<svg width="965" height="687" viewBox="0 0 965 687" fill="none" xmlns="http://www.w3.org/2000/svg">
<mask id="mask0_1678_7" style="mask-type:luminance" maskUnits="userSpaceOnUse" x="-1" y="-194" width="966" height="1407">
<path d="M964.768 -193.348H-0.00195312V1212.94H964.768V-193.348Z" fill="white"/>
</mask>
<g mask="url(#mask0_1678_7)">
<path d="M853.784 1101.37L964.768 1155.91V1143.93L858.54 1091.74C823.743 1074.63 796.706 1045.38 782.479 1009.29L610.161 573.073L859.917 685.476L964.81 915.956V864.01L444.644 -279.002H420.987L596.976 107.732L503.641 151.083C488.621 158.051 471.848 158.676 456.369 152.877C440.889 147.077 428.664 135.52 421.988 120.416C408.387 89.7077 374.632 72.3508 341.754 79.11L318.89 83.8247C301.616 87.3712 283.675 83.324 269.615 72.6428C255.554 62.0034 246.792 45.8147 245.582 28.2074L223.927 -279.002H213.163L234.859 28.9167C236.319 49.6115 246.625 68.6374 263.147 81.1544C279.67 93.6714 300.782 98.4696 321.06 94.2973L343.924 89.5825C371.92 83.8247 400.584 98.5948 412.183 124.714C420.069 142.488 434.422 156.048 452.613 162.891C460.875 165.978 469.428 167.522 477.981 167.522C481.152 167.522 484.323 167.23 487.494 166.812L488.203 170.985C493.878 205.198 484.657 240.329 462.877 267.366C441.098 294.403 408.762 310.883 374.09 312.636L223.969 320.229L-0.00195312 -195.722V-141.649L231.146 391.034L162.01 416.736L-0.00195312 39.1389V93.7131L189.881 536.398C155.918 551.753 129.633 578.956 115.363 613.795C99.9673 651.388 100.76 692.444 117.616 729.411L124.584 744.682C140.898 780.438 140.773 821.411 124.334 857.084L63.4176 989.306L-0.00195312 950.253V975.537L133.847 1057.98C222.008 1112.26 280.88 1202.22 295.441 1304.73L328.027 1534.38H349.765L326.108 1367.78H389.319L414.103 1534.38H435.882L431.919 1507.68L679.672 1286.75L806.636 1534.38H818.736L594.765 1097.54C590.885 1089.98 587.589 1082.18 584.835 1074.3L781.769 1032.95C798.125 1062.45 823.117 1086.35 853.742 1101.37H853.784ZM228.475 330.827L374.591 323.442C412.309 321.523 447.523 303.582 471.18 274.167C494.879 244.752 504.893 206.533 498.718 169.274L497.925 164.601C501.388 163.6 504.809 162.39 508.147 160.846L601.441 117.537L846.357 655.811L253.718 389.073L228.434 330.827H228.475ZM324.648 1357.06L316.804 1301.73C301.366 1192.87 238.781 1097.37 145.195 1039.71L67.2144 991.684L73.014 994.354L134.18 861.632C151.955 823.08 152.038 778.853 134.431 740.259L127.463 724.988C111.858 690.733 111.107 652.723 125.377 617.884C138.561 585.674 162.844 560.556 194.179 546.328L305.997 807.016L387.817 1357.06H324.648ZM585.21 1102.46L674.624 1276.86L430.083 1494.95L327.068 802.469L326.859 801.092L170.48 436.554L245.123 408.808L394.743 476.15L563.139 839.602C581.205 878.572 584.418 922.715 572.234 963.896C558.507 1010.25 563.097 1059.44 585.169 1102.46H585.21ZM581.706 1063.95C572.944 1032.41 573.111 998.944 582.624 966.942C595.558 923.258 592.136 876.402 572.985 835.054L409.805 482.867L596.142 566.731L772.548 1013.21C773.842 1016.51 775.302 1019.76 776.804 1022.98L581.747 1063.95H581.706Z" fill="#F3FAFF"/>
<path d="M787.613 172.487L592.556 -279.002H569.107L964.77 636.785V582.544L793.454 186.047L846.193 65.5081C861.046 31.5453 861.463 -7.633 847.277 -41.8879C803.676 -147.406 770.631 -229.101 751.355 -278.96H739.881C758.49 -230.352 791.076 -149.785 837.347 -37.799C850.407 -6.21439 850.031 29.8763 836.346 61.2106L787.613 172.529V172.487Z" fill="#F3FAFF"/>
<path opacity="0.48" d="M592.43 138.648L633.736 226.101L604.905 240.62L565.268 152.375L592.471 138.648H592.43ZM432.504 1407.16L439.221 1456.69L523.711 1384.47L504.352 1352.21L432.504 1407.16ZM736.375 574.408L752.689 529.513L604.78 470.641L593.222 518.874L736.375 574.408Z" fill="#F3FAFF"/>
</g>
<path d="M189.717 536.402L193.973 546.29L212.873 535.692L170.315 436.516L244.959 408.77L253.554 389.035L228.269 330.789L374.385 323.404C412.102 321.484 447.317 303.543 470.974 274.128C494.673 244.713 504.687 206.495 498.512 169.236L497.719 164.563L496.092 153.84C487.58 156.552 478.735 157.345 469.973 156.218V167.066C472.56 167.358 475.105 167.525 477.692 167.525C480.863 167.525 484.034 167.233 487.205 166.816L487.914 170.988C493.588 205.201 484.367 240.332 462.588 267.369C440.808 294.406 408.473 310.887 373.8 312.639L223.68 320.233L198.646 316.645L230.898 390.996L161.762 416.697L141.818 424.833L189.675 536.36L189.717 536.402Z" fill="#FE372F"/>
<path d="M470.223 160.468L439.932 130.177C430.586 120.831 426.456 108.189 427.54 95.9638C428.417 86.3257 432.547 76.9379 439.932 69.5529C448.319 61.1665 459.292 56.9941 470.223 56.9941C481.155 56.9941 492.17 61.1665 500.515 69.5529C508.317 77.3552 512.447 87.3688 512.99 97.591C513.616 109.315 509.443 121.248 500.515 130.177L470.223 160.468Z" fill="#FE372F"/>
<path d="M498.174 99.8466C498.174 115.284 485.657 127.759 470.261 127.759C454.865 127.759 442.348 115.242 442.348 99.8466C442.348 84.4506 454.865 71.9336 470.261 71.9336C485.657 71.9336 498.174 84.4506 498.174 99.8466Z" fill="#F3FAFF"/>
<path d="M197.725 549.538L167.434 519.247C158.088 509.901 153.957 497.259 155.042 485.034C155.918 475.396 160.049 466.008 167.434 458.623C175.821 450.237 186.794 446.064 197.725 446.064C208.657 446.064 219.672 450.237 228.017 458.623C235.819 466.425 239.949 476.439 240.492 486.661C241.118 498.386 236.945 510.319 228.017 519.247L197.725 549.538Z" fill="#FE372F"/>
<path d="M225.685 488.917C225.685 504.355 213.168 516.83 197.772 516.83C182.376 516.83 169.859 504.313 169.859 488.917C169.859 473.521 182.376 461.004 197.772 461.004C213.168 461.004 225.685 473.521 225.685 488.917Z" fill="#F3FAFF"/>
</svg>
