<svg width="58" height="60" viewBox="0 0 58 60" fill="none" xmlns="http://www.w3.org/2000/svg">
<g opacity="0.6" clip-path="url(#clip0_1037_2971)">
<path fill-rule="evenodd" clip-rule="evenodd" d="M15.6813 59.1459C17.5198 59.1459 18.9906 57.9715 19.492 56.0717L23.0352 44.155H33.2638C35.6706 44.155 37.6762 42.2207 37.8767 39.7683C37.9102 39.6992 37.9102 39.5956 37.9102 39.5265V24.2594C37.9102 20.3217 34.8015 17.1094 30.9908 17.1094C27.1467 17.1094 24.038 20.3217 24.038 24.2594V34.5181H20.6285H20.2274C18.8903 34.5526 17.6535 35.278 16.8847 36.4524H16.9181C15.7147 38.4212 11.7369 53.7229 11.6701 53.8611C11.1353 56.0372 12.1381 58.0751 14.1771 58.835C14.6785 59.0422 15.1799 59.1459 15.6813 59.1459Z" fill="black"/>
<path fill-rule="evenodd" clip-rule="evenodd" d="M42.1215 58.9403C44.0268 58.9403 45.5645 57.3514 45.5645 55.3826V26.5753C45.5645 24.6065 44.0268 23.0176 42.1215 23.0176C40.9181 23.0176 39.8485 23.6739 39.2468 24.641V39.5282C39.2468 39.8736 39.2468 39.7009 39.2134 39.9427C39.1465 40.4608 39.0128 40.9444 38.8791 41.3934L38.8457 41.4625V41.4971H38.8122V41.5661L38.7788 41.6007V41.6352V41.6698H38.7454V41.7043V41.7388L38.712 41.7734V41.8079H38.6785C37.7426 44.0185 35.7035 45.5384 33.2634 45.5384H24.2716V55.3826C24.2716 57.3514 25.8092 58.9403 27.7145 58.9403C29.5864 58.9403 31.1241 57.3514 31.1241 55.3826V48.4743H38.6785V55.3826C38.6785 57.3514 40.2162 58.9403 42.1215 58.9403Z" fill="black"/>
<path fill-rule="evenodd" clip-rule="evenodd" d="M30.9924 15.8326C35.1373 15.8326 38.5469 12.3095 38.5469 7.99183C38.5469 3.70874 35.1373 0.185547 30.9924 0.185547C26.8141 0.185547 23.4045 3.70874 23.4045 7.99183C23.4045 12.3095 26.8141 15.8326 30.9924 15.8326Z" fill="black"/>
</g>
<defs>
<clipPath id="clip0_1037_2971">
<rect width="57.0596" height="58.9616" fill="white" transform="matrix(-1 0 0 1 57.0605 0.185547)"/>
</clipPath>
</defs>
</svg>
