<svg width="778" height="501" viewBox="0 0 778 501" fill="none" xmlns="http://www.w3.org/2000/svg">
<g clip-path="url(#clip0_1199_468)">
<path d="M655.125 121.646C656.51 122.245 657.863 123.023 659.162 123.965" stroke="#A3A3A3" stroke-width="1.55577" stroke-linecap="round" stroke-linejoin="round"/>
<path d="M665.589 130.607C669.89 136.83 671.998 145.006 669.369 152.59C665.558 163.582 647.97 165.846 648.685 155.881C648.973 151.859 653.858 152.264 656.558 153.446C661.419 155.577 664.492 160.564 665.978 165.667C668.988 176.036 660.042 184.701 650.498 186.724" stroke="#A3A3A3" stroke-width="1.55577" stroke-linecap="round" stroke-linejoin="round"/>
<path d="M645.91 187.43C644.369 187.624 642.821 187.788 641.266 187.912" stroke="#A3A3A3" stroke-width="1.55577" stroke-linecap="round" stroke-linejoin="round"/>
<path d="M386.202 139.732C385.548 139.732 385.012 139.195 385.012 138.542C385.012 137.888 385.548 137.352 386.202 137.352H395.762C396.415 137.352 396.952 137.888 396.952 138.542C396.952 139.195 396.415 139.732 395.762 139.732H386.202Z" fill="#2D2D2D"/>
<path d="M386.202 127.923C385.548 127.923 385.012 127.387 385.012 126.733C385.012 126.08 385.548 125.543 386.202 125.543H420.507C421.16 125.543 421.697 126.08 421.697 126.733C421.697 127.387 421.16 127.923 420.507 127.923H386.202Z" fill="#2D2D2D"/>
<path d="M414.526 81.4057C413.873 81.4057 413.336 80.869 413.336 80.2156C413.336 79.5621 413.873 79.0254 414.526 79.0254H433.6C434.253 79.0254 434.79 79.5621 434.79 80.2156C434.79 80.869 434.253 81.4057 433.6 81.4057H414.526Z" fill="#2D2D2D"/>
<path d="M414.526 93.2124C413.873 93.2124 413.336 92.6756 413.336 92.0222C413.336 91.3688 413.873 90.832 414.526 90.832H455.023C455.676 90.832 456.213 91.3688 456.213 92.0222C456.213 92.6756 455.676 93.2124 455.023 93.2124H414.526Z" fill="#2D2D2D"/>
<path d="M446.538 81.4057C445.884 81.4057 445.348 80.869 445.348 80.2156C445.348 79.5621 445.884 79.0254 446.538 79.0254H481.924C482.577 79.0254 483.114 79.5621 483.114 80.2156C483.114 80.869 482.577 81.4057 481.924 81.4057H446.538Z" fill="#2D2D2D"/>
<path d="M414.526 105.109C413.873 105.109 413.336 104.572 413.336 103.919C413.336 103.265 413.873 102.729 414.526 102.729H424.265C424.919 102.729 425.455 103.265 425.455 103.919C425.455 104.572 424.919 105.109 424.265 105.109H414.526Z" fill="#2D2D2D"/>
<path d="M414.815 14.1889C414.162 14.1889 413.625 13.6522 413.625 12.9988C413.625 12.3453 414.162 11.8086 414.815 11.8086H424.375C425.029 11.8086 425.566 12.3453 425.566 12.9988C425.566 13.6522 425.029 14.1889 424.375 14.1889H414.815Z" fill="#2D2D2D"/>
<path d="M414.815 2.38032C414.162 2.38032 413.625 1.84358 413.625 1.19016C413.625 0.53674 414.162 0 414.815 0H449.128C449.781 0 450.318 0.53674 450.318 1.19016C450.318 1.84358 449.781 2.38032 449.128 2.38032H414.815Z" fill="#2D2D2D"/>
<path d="M387.276 54.685C386.623 54.685 386.086 54.1483 386.086 53.4948C386.086 52.8414 386.623 52.3047 387.276 52.3047H396.836C397.49 52.3047 398.026 52.8414 398.026 53.4948C398.026 54.1483 397.49 54.685 396.836 54.685H387.276Z" fill="#2D2D2D"/>
<path d="M387.276 42.8764C386.623 42.8764 386.086 42.3397 386.086 41.6863C386.086 41.0328 386.623 40.4961 387.276 40.4961H421.589C422.242 40.4961 422.779 41.0328 422.779 41.6863C422.779 42.3397 422.242 42.8764 421.589 42.8764H387.276Z" fill="#2D2D2D"/>
<path d="M698.718 97.6797L675.195 114.101L651.672 97.6797H698.718Z" fill="#2D2D2D"/>
<path d="M649.906 130.497V102.742L674.729 120.073C674.869 120.167 675.032 120.221 675.195 120.221C675.359 120.221 675.522 120.175 675.662 120.073L700.484 102.742V130.497H649.914H649.906Z" fill="#2D2D2D"/>
<path d="M619.835 222.055L609.909 209.329H578.561C575.854 209.329 573.66 207.128 573.66 204.429V171.61C573.66 168.903 575.862 166.709 578.561 166.709H638.341C641.048 166.709 643.242 168.91 643.242 171.61V204.429C643.242 207.136 641.04 209.329 638.341 209.329H629.761L619.835 222.055ZM578.561 169.035C577.145 169.035 575.994 170.186 575.994 171.602V204.421C575.994 205.837 577.145 206.988 578.561 206.988H611.045L619.828 218.252L628.61 206.988H638.333C639.749 206.988 640.9 205.837 640.9 204.421V171.602C640.9 170.186 639.749 169.035 638.333 169.035H578.553H578.561Z" fill="#2D2D2D"/>
<path d="M588.688 188.015C588.688 190.379 590.601 192.293 592.966 192.293C595.331 192.293 597.244 190.379 597.244 188.015C597.244 185.65 595.331 183.736 592.966 183.736C590.601 183.736 588.688 185.65 588.688 188.015Z" fill="#2D2D2D"/>
<path d="M604.176 188.015C604.176 190.379 606.089 192.293 608.454 192.293C610.819 192.293 612.732 190.379 612.732 188.015C612.732 185.65 610.819 183.736 608.454 183.736C606.089 183.736 604.176 185.65 604.176 188.015Z" fill="#2D2D2D"/>
<path d="M619.664 188.015C619.664 190.379 621.578 192.293 623.942 192.293C626.307 192.293 628.221 190.379 628.221 188.015C628.221 185.65 626.307 183.736 623.942 183.736C621.578 183.736 619.664 185.65 619.664 188.015Z" fill="#2D2D2D"/>
<path d="M701.325 420.056H690.762V413.452H701.325C705.331 413.452 708.583 410.192 708.583 406.194C708.583 402.196 705.324 398.936 701.325 398.936H690.762V392.332H701.325C708.972 392.332 715.187 398.547 715.187 406.194C715.187 413.841 708.972 420.056 701.325 420.056Z" fill="#F69696"/>
<path d="M702.29 413.383C701.971 413.422 701.652 413.453 701.325 413.453H690.762V420.057H701.325C701.963 420.057 702.593 419.995 703.208 419.917L702.29 413.391V413.383Z" fill="#FFAEAE"/>
<path d="M690.762 398.929H700.26L699.334 392.332H690.762V398.929Z" fill="#FFAEAE"/>
<path d="M680.625 431.236H665.254C656.736 431.236 649.836 424.336 649.836 415.819V381.141H696.042V415.819C696.042 424.336 689.142 431.236 680.625 431.236Z" fill="#FFAEAE"/>
<path d="M688.121 381.148V413.182C688.121 421.699 681.222 428.599 672.704 428.599H656.617C659.083 430.264 662.047 431.236 665.244 431.236H681.937C690.455 431.236 697.355 424.336 697.355 415.819V381.141H688.114L688.121 381.148Z" fill="#F69696"/>
<path opacity="0.6" d="M657.754 411.469C656.3 411.469 655.117 410.287 655.117 408.832V392.987C655.117 391.532 656.3 390.35 657.754 390.35C659.209 390.35 660.391 391.532 660.391 392.987V408.832C660.391 410.287 659.209 411.469 657.754 411.469Z" fill="white"/>
<path d="M678.255 371.891C677.796 371.891 677.368 371.611 677.205 371.152C672.678 358.628 670.601 340.363 686.439 324.494C692.825 318.1 695.882 310.01 695.05 301.718C694.311 294.367 690.515 287.584 685.132 284.005C684.618 283.663 684.478 282.971 684.821 282.457C685.163 281.944 685.855 281.804 686.369 282.146C692.296 286.082 696.473 293.496 697.274 301.492C698.169 310.461 694.886 319.189 688.018 326.066C673.005 341.102 674.996 358.464 679.298 370.382C679.508 370.965 679.204 371.603 678.629 371.813C678.504 371.86 678.372 371.883 678.247 371.883L678.255 371.891Z" fill="#A3A3A3"/>
<path d="M657.785 322.636C657.233 322.636 656.751 322.224 656.681 321.656C656.603 321.041 657.039 320.481 657.645 320.403C659.225 320.201 661.978 319.314 662.748 315.596C662.873 314.989 663.456 314.608 664.071 314.733C664.678 314.857 665.059 315.448 664.934 316.055C664.164 319.758 661.605 322.154 657.925 322.62C657.879 322.62 657.832 322.628 657.785 322.628V322.636Z" fill="#A3A3A3"/>
<path d="M669.923 332.187C669.737 332.187 669.55 332.14 669.379 332.039C668.842 331.736 668.648 331.059 668.951 330.515C669.923 328.795 670.934 327.17 671.907 325.591L672.031 325.396C675.143 320.394 675.921 313.432 673.976 308.088C672.988 305.366 670.849 301.803 666.275 300.302C660.153 298.287 654.296 299.827 650.608 304.417C647.614 308.143 646.96 312.95 648.983 316.38C649.379 317.057 649.908 317.672 650.554 318.224C651.021 318.628 651.075 319.329 650.678 319.795C650.274 320.262 649.574 320.316 649.107 319.92C648.275 319.204 647.582 318.395 647.061 317.508C644.564 313.284 645.295 307.458 648.874 303.009C653.168 297.672 659.935 295.86 666.983 298.17C671.269 299.578 674.419 302.744 676.084 307.318C678.285 313.37 677.445 320.931 673.937 326.571L673.813 326.765C672.848 328.321 671.852 329.931 670.903 331.604C670.701 331.969 670.32 332.171 669.931 332.171L669.923 332.187Z" fill="#A3A3A3"/>
<path d="M666.306 357.685C665.831 357.685 665.395 357.382 665.24 356.907C663.318 350.894 663.264 345.099 665.084 339.195C665.263 338.604 665.893 338.269 666.484 338.456C667.076 338.635 667.402 339.265 667.223 339.856C665.543 345.309 665.598 350.661 667.371 356.231C667.558 356.814 667.231 357.444 666.648 357.631C666.539 357.67 666.422 357.685 666.306 357.685Z" fill="#A3A3A3"/>
<path d="M690.325 242.591C690.169 242.591 690.006 242.559 689.858 242.489C689.298 242.225 689.057 241.564 689.314 241.004C693.755 231.475 691.087 225.259 691.056 225.197C690.807 224.637 691.056 223.976 691.616 223.719C692.176 223.462 692.837 223.719 693.086 224.271C693.218 224.559 696.237 231.412 691.328 241.937C691.142 242.342 690.737 242.583 690.317 242.583L690.325 242.591Z" fill="#A3A3A3"/>
<path d="M680.709 297.261C680.327 297.261 679.962 297.067 679.752 296.724C671.848 283.679 666.691 269.164 682.311 251.413C682.723 250.946 683.423 250.907 683.89 251.311C684.357 251.716 684.396 252.424 683.991 252.891C670.137 268.635 673.046 281.338 681.665 295.573C681.984 296.102 681.813 296.787 681.292 297.105C681.113 297.214 680.911 297.269 680.716 297.269L680.709 297.261Z" fill="#A3A3A3"/>
<path opacity="0.48" d="M175.509 454.494C210.806 454.494 239.419 451.133 239.419 446.987C239.419 442.841 210.806 439.48 175.509 439.48C140.212 439.48 111.598 442.841 111.598 446.987C111.598 451.133 140.212 454.494 175.509 454.494Z" fill="#2D2D2D"/>
<path d="M776.811 429.828H1.19141" stroke="#A3A3A3" stroke-width="2.38032" stroke-linecap="round" stroke-linejoin="round"/>
<path d="M239.237 58.8384L239.377 59.7486L246.612 108.203L251.808 107.425L244.527 58.6751L244.433 58.0606C243.484 51.6897 245.079 45.3344 248.93 40.1615C252.788 34.9808 258.42 31.6359 264.798 30.718C273.822 29.4189 282.456 33.3394 287.567 40.247C289.8 40.7215 292.273 41.4683 294.965 42.5418C289.737 30.858 277.221 23.6314 264.059 25.5139C256.281 26.6341 249.42 30.718 244.721 37.0188C240.031 43.3274 238.086 51.0674 239.245 58.8384H239.237Z" fill="#A3A3A3"/>
<path d="M259.804 179.761L255.121 133.928L302.922 143.293L309.324 181.729L289.348 199.223L259.804 179.761Z" fill="#F69696"/>
<path d="M128.561 336.482C129.611 332.328 130.591 328.447 131.47 325.008C121.031 323.647 114.512 323.709 113.206 328.05C113.206 328.058 113.198 328.073 113.198 328.089C111.953 332.375 122.61 335.238 128.561 336.49V336.482Z" fill="#2D2D2D"/>
<path d="M396.844 341.648L407.065 394.746C415.762 402.253 427.049 406.687 439.153 406.687C439.573 406.687 439.985 406.679 440.405 406.671C462.979 406.103 482.263 390.219 487.14 368.166L522.526 208.256C522.526 208.256 534.762 192.162 531.068 172.116L540.674 159.802L547.356 156.831C548.998 156.092 549.954 154.489 549.954 152.824C549.954 152.101 549.768 151.362 549.387 150.677C548.337 148.826 546.112 147.994 544.113 148.717L537.221 151.175L524.494 163.575L532.709 142.72L539.453 135.773C541.74 133.416 541.756 129.675 539.484 127.294L534.638 122.222C531.931 119.383 527.489 119.142 524.479 121.655L516.28 128.516L506.175 152.91L510.85 127.287L519.088 116.645C519.835 115.68 520.2 114.545 520.2 113.409C520.2 111.783 519.438 110.158 518.007 109.123C515.673 107.443 512.414 107.933 510.695 110.228L500.263 124.082L493.115 155.275L489.443 133.704C489.038 131.386 487.016 129.706 484.706 129.706C484.542 129.706 484.363 129.714 484.192 129.729C481.61 130.009 479.727 132.281 479.906 134.863L484.464 196.425L449.973 282.801L434.05 322.675H434.042L396.836 341.632L396.844 341.648Z" fill="#F69696"/>
<path d="M498.801 159.062C498.801 159.062 516.295 180.991 508.905 199.715" stroke="#FF7D7D" stroke-width="1.58688" stroke-linecap="round" stroke-linejoin="round"/>
<path d="M260.832 137.623L302.915 143.294L306.463 164.592C273.62 168.513 260.824 138.339 260.824 137.623H260.832Z" fill="#2D2D2D"/>
<path d="M126.995 306.151C124.366 276.918 144.412 268.377 144.412 268.377L150.23 242.435C154.555 223.112 168.861 207.57 187.763 201.643L244.284 183.938L258.722 169.143L289.347 188.629L307.69 171.896L324.352 187.151L366.256 198.733C392.222 205.905 414.415 222.863 428.168 246.029L449.988 282.807L434.064 322.681H434.057L396.851 341.638L407.072 394.737L413.801 429.671H210.337L193.769 364.298L201.944 331.285C186.192 335.158 160.312 329.301 144 326.827C139.363 326.127 135.171 325.466 131.476 324.999C121.036 323.638 114.518 323.7 113.211 328.041C113.328 327.302 115.389 315.385 127.003 306.151H126.995Z" fill="#FE372F"/>
<path d="M285.171 222.139L275.043 207.554L284.269 196.096C287.761 197.62 291.433 197.651 295.299 196.096L304.688 204.684L298.893 222.139L338.316 382.049L319.592 410.955L275.043 378.999L285.171 222.139Z" fill="white"/>
<path d="M434.06 322.682L424.609 347.333C423.691 349.729 420.105 348.803 420.463 346.259L422.983 328.321L434.06 322.682Z" fill="#FF7D7D"/>
<path d="M384.422 260.163C384.422 260.163 390.878 235.855 389.898 220.74" stroke="white" stroke-width="1.58688" stroke-linecap="round" stroke-linejoin="round"/>
<path d="M214.795 267.389L203.625 240.451" stroke="white" stroke-width="1.58688" stroke-linecap="round" stroke-linejoin="round"/>
<path d="M218.738 265.748C218.738 265.748 223.662 245.002 223.336 235.504" stroke="white" stroke-width="1.58688" stroke-linecap="round" stroke-linejoin="round"/>
<path d="M267.169 287.428H223.709C223.709 287.428 222.993 330.499 249.659 330.499C276.325 330.499 267.169 287.428 267.169 287.428Z" stroke="white" stroke-width="1.58688" stroke-linecap="round" stroke-linejoin="round"/>
<path d="M132.576 432.253L133.229 432.875C150.848 449.475 177.615 451.676 197.708 438.165L210.333 429.678L301.688 368.248C320.66 368.739 334.709 362.827 334.709 362.827L351.457 364.305L360.869 362.772C361.647 362.648 362.324 362.259 362.814 361.691C363.304 361.139 363.607 360.415 363.638 359.622C363.716 357.654 362.059 356.051 360.091 356.199L350.484 356.907L337.175 352.963L353.479 350.995H366.968C367.823 350.995 368.624 350.692 369.247 350.163C369.869 349.649 370.305 348.91 370.452 348.07C370.803 346.063 369.395 344.173 367.372 343.947L353.681 342.376L338.66 341.388L353.565 339.047L366.555 341.225C366.789 341.271 367.022 341.287 367.255 341.287C369.169 341.287 370.873 339.965 371.308 338.028C371.79 335.889 370.546 333.749 368.446 333.112L353.44 328.576L328.805 329.557L338.163 322.665L356.832 320.253C358.994 319.973 360.581 318.122 360.581 315.998C360.581 315.819 360.573 315.64 360.55 315.454C360.293 313.361 358.551 311.766 356.443 311.689L337.167 311.012C334.234 310.903 331.333 311.696 328.851 313.252L290.859 337.195L193.787 364.297L201.963 331.283C186.211 335.157 160.331 329.3 144.018 326.826C139.382 326.126 135.189 325.465 131.494 324.998C130.615 328.444 129.635 332.326 128.585 336.472C125.155 349.999 120.97 366.42 117.423 380.391C112.662 399.076 118.418 418.873 132.599 432.245L132.576 432.253Z" fill="#F69696"/>
<path d="M171.679 370.476L193.763 364.307L197.645 348.617C197.645 348.617 181.371 354.093 168.217 362.938C164.25 365.598 167.074 371.759 171.679 370.476Z" fill="#FF7D7D"/>
<path d="M131.468 325.008C135.163 325.482 139.363 326.136 143.992 326.836C160.304 329.317 186.184 335.167 201.936 331.293L199.89 339.57C175.216 345.139 144.855 327.676 131.227 325.949C131.304 325.638 131.39 325.303 131.468 325V325.008Z" fill="#FF7D7D"/>
<path d="M216.966 272.336L203.625 325.006" stroke="white" stroke-width="1.58688" stroke-linecap="round" stroke-linejoin="round"/>
<path d="M292.656 193.677L310.4 209.903L323.212 189.857" stroke="white" stroke-width="1.58688" stroke-linecap="round" stroke-linejoin="round"/>
<path d="M286.246 193.639L271.202 212.316L244.691 186.902" stroke="white" stroke-width="1.58688" stroke-linecap="round" stroke-linejoin="round"/>
<path d="M520.108 165.332L500 152.598" stroke="#FF7D7D" stroke-width="1.58688" stroke-linecap="round" stroke-linejoin="round"/>
<path d="M476.83 210.681C490.303 218.04 505.161 222.381 520.477 223.431C521.449 223.501 522.352 222.824 522.64 221.844L524.149 216.663C524.53 215.357 523.69 214.026 522.398 213.925C507.65 212.797 493.345 208.62 480.315 201.627C479.171 201.012 477.748 201.681 477.367 202.988L475.858 208.169C475.57 209.157 475.974 210.207 476.83 210.674V210.681Z" fill="#2D2D2D"/>
<path d="M502.044 221.3C502.386 221.3 502.705 221.074 502.806 220.724C502.923 220.304 502.682 219.861 502.262 219.744L497.345 218.344C496.91 218.219 496.552 217.939 496.342 217.543C496.132 217.146 496.077 216.695 496.202 216.267L497.586 211.569C497.843 210.689 498.769 210.176 499.656 210.433L504.937 211.942C505.358 212.066 505.801 211.817 505.918 211.397C506.034 210.977 505.793 210.534 505.373 210.417L500.091 208.908C498.38 208.418 496.567 209.414 496.07 211.125L494.685 215.824C494.436 216.664 494.537 217.55 494.957 218.321C495.377 219.091 496.077 219.643 496.917 219.884L501.834 221.284C501.904 221.308 501.982 221.315 502.052 221.315L502.044 221.3Z" fill="#FCFCFC"/>
<path d="M501.471 216.356L498.188 215.415C497.956 215.349 497.823 215.108 497.89 214.876L498.13 214.039C498.196 213.807 498.436 213.674 498.668 213.74L501.951 214.681C502.415 214.814 502.681 215.295 502.549 215.758C502.416 216.222 501.935 216.489 501.471 216.356Z" fill="#FCFCFC"/>
<path d="M384.422 272.336L392.177 299.663" stroke="white" stroke-width="1.58688" stroke-linecap="round" stroke-linejoin="round"/>
<path d="M321.4 74.0539L323.617 107.806C331.994 136.386 322.139 152.892 296.756 155.109C271.374 157.326 255.116 133.92 255.116 133.92L252.16 89.0748L266.699 69.3633L321.4 74.0461V74.0539Z" fill="#F69696"/>
<path d="M282.008 128.99C285.522 128.99 288.371 126.141 288.371 122.627C288.371 119.113 285.522 116.264 282.008 116.264C278.493 116.264 275.645 119.113 275.645 122.627C275.645 126.141 278.493 128.99 282.008 128.99Z" fill="#FF7D7D"/>
<path d="M244.036 102.883C240.092 118.899 255.121 133.928 255.121 133.928L255.868 115.695C255.868 115.695 268.431 95.4929 266.704 80.4564C292.086 87.8541 301.693 77.4927 301.693 77.4927C318.939 88.3364 352.699 77.2438 348.265 48.6721C343.823 20.0849 306.127 25.5067 297.259 43.4914C296.473 43.1414 295.711 42.8146 294.957 42.5268C292.265 41.4456 289.799 40.7066 287.559 40.2321C276.365 37.8673 270.687 42.3868 268.913 47.6764C252.165 44.9694 248.711 52.8571 246.984 58.769C246.16 58.6601 245.343 58.629 244.526 58.6524L251.807 107.402L246.611 108.18L239.377 59.7258C229.062 63.8486 223.228 79.4607 244.036 102.859V102.883Z" fill="#2D2D2D"/>
<path d="M259.037 134.194L269.406 140.72L274.595 143.987L277.185 145.621C278.15 146.227 279.231 146.756 280.343 147.13C281.456 147.511 282.622 147.768 283.805 147.877C284.396 147.931 284.987 147.954 285.586 147.947L287.119 147.923L293.248 147.822L305.5 147.62C307.071 147.596 308.331 146.297 308.3 144.726C308.277 143.155 306.978 141.895 305.407 141.926C305.344 141.926 305.274 141.926 305.212 141.934L292.999 142.96L286.893 143.474L285.368 143.598C284.941 143.637 284.513 143.645 284.085 143.637C283.229 143.614 282.374 143.489 281.541 143.264C280.701 143.038 279.908 142.727 279.114 142.299L276.415 140.844L271.016 137.935L260.227 132.124C259.644 131.813 258.928 132.031 258.609 132.607C258.314 133.159 258.5 133.851 259.021 134.178L259.037 134.194Z" fill="#A3A3A3"/>
<path d="M257.177 139.775C268.059 137.35 274.637 125.316 271.87 112.896C269.102 100.475 258.038 92.3715 247.156 94.7958C236.274 97.2202 229.696 109.254 232.464 121.675C235.231 134.096 246.296 142.199 257.177 139.775Z" fill="#A3A3A3"/>
<path d="M312.105 105.466C313.682 105.466 314.96 104.187 314.96 102.611C314.96 101.034 313.682 99.7559 312.105 99.7559C310.528 99.7559 309.25 101.034 309.25 102.611C309.25 104.187 310.528 105.466 312.105 105.466Z" fill="#2D2D2D"/>
<path d="M283.726 108.389C285.303 108.389 286.581 107.111 286.581 105.535C286.581 103.958 285.303 102.68 283.726 102.68C282.149 102.68 280.871 103.958 280.871 105.535C280.871 107.111 282.149 108.389 283.726 108.389Z" fill="#2D2D2D"/>
<path d="M299.687 99.6302C298.777 102.081 298.124 104.655 297.898 107.308L297.859 107.806C297.859 107.985 297.844 108.179 297.859 108.366C297.875 108.739 297.929 109.12 298.022 109.486C298.217 110.217 298.559 110.925 299.057 111.516C299.524 112.123 300.255 112.598 300.745 112.909L302.355 113.982L303.958 115.056C304.253 115.289 304.44 115.569 304.471 115.904C304.518 116.238 304.417 116.588 304.222 116.837C304.012 117.078 303.794 117.21 303.421 117.257L295.774 118.533C294.88 118.681 294.281 119.521 294.429 120.415C294.576 121.31 295.417 121.909 296.311 121.761C296.35 121.761 296.397 121.745 296.436 121.738L303.958 119.855C304.852 119.669 305.801 119.038 306.307 118.206C306.82 117.366 306.984 116.363 306.758 115.429C306.556 114.488 305.895 113.663 305.109 113.204L303.405 112.255L301.71 111.314C301.095 110.972 300.698 110.77 300.333 110.381C299.967 110.015 299.687 109.548 299.508 109.05C299.415 108.801 299.36 108.537 299.329 108.265C299.306 108.133 299.306 108 299.298 107.852V107.386C299.314 104.873 299.734 102.353 300.434 99.8947C300.496 99.6847 300.372 99.4669 300.162 99.4047C299.959 99.3502 299.749 99.4591 299.679 99.6458L299.687 99.6302Z" fill="#2D2D2D"/>
<path d="M302.909 126.678C301.734 126.818 300.42 126.842 299.175 126.779C297.915 126.709 296.67 126.538 295.449 126.274C294.228 126.017 293.053 125.613 291.925 125.123C290.789 124.648 289.77 123.971 288.79 123.279L288.713 123.224C288.114 122.797 287.281 122.937 286.853 123.536C286.426 124.135 286.566 124.967 287.165 125.395C287.172 125.395 287.188 125.41 287.203 125.418C288.394 126.212 289.623 126.943 290.945 127.441C292.252 127.954 293.605 128.359 294.974 128.592C296.344 128.841 297.72 128.973 299.097 128.996C300.482 129.012 301.82 128.942 303.251 128.716C303.811 128.623 304.192 128.102 304.107 127.542C304.021 126.997 303.516 126.616 302.971 126.686H302.909V126.678Z" fill="#2D2D2D"/>
<path d="M317.003 95.3153C317.003 95.3153 311.41 90.7336 305.988 95.7587" stroke="#2D2D2D" stroke-width="2.38032" stroke-linecap="round" stroke-linejoin="round"/>
<path d="M288.898 97.663C288.898 97.663 283.305 93.0813 277.883 98.1064" stroke="#2D2D2D" stroke-width="2.38032" stroke-linecap="round" stroke-linejoin="round"/>
<path d="M533.739 126.461L524.132 134.955L514.859 162.01" stroke="#FF7D7D" stroke-width="1.58688" stroke-linecap="round" stroke-linejoin="round"/>
<path d="M504.89 500.381C549.346 500.381 585.385 492.622 585.385 483.05C585.385 473.478 549.346 465.719 504.89 465.719C460.434 465.719 424.395 473.478 424.395 483.05C424.395 492.622 460.434 500.381 504.89 500.381Z" fill="#252626"/>
<path d="M371.408 438.555H574.023C581.211 438.555 587.309 433.28 588.352 426.163L605.255 310.243C605.869 306.019 602.595 302.23 598.332 302.23H395.172C388.295 302.23 382.461 307.279 381.466 314.078L364.484 430.542C363.87 434.766 367.145 438.555 371.408 438.555Z" fill="#2D2D2D"/>
<path d="M471.976 377.709L469.992 438.555H502.243L471.976 377.709Z" fill="#2D2D2D"/>
<path d="M598.752 307.404H397.358C391.975 307.404 387.417 311.348 386.639 316.677L370.062 430.38" stroke="#A3A3A3" stroke-width="1.58688" stroke-linecap="round" stroke-linejoin="round"/>
<path d="M484.87 483.05H524.293L511.396 377.709H471.973L484.87 483.05Z" fill="#252626"/>
<path d="M477.223 380.656L490.33 478.95" stroke="#A3A3A3" stroke-width="1.58688" stroke-linecap="round" stroke-linejoin="round"/>
<path d="M184.843 54.2734L114.32 55.7125L135.735 78.1156L184.843 54.2734Z" stroke="#2D2D2D" stroke-width="1.55577" stroke-linecap="round" stroke-linejoin="round"/>
<path d="M184.84 54.2734L141.473 83.3274L163.868 102.051L184.84 54.2734Z" stroke="#2D2D2D" stroke-width="1.55577" stroke-linecap="round" stroke-linejoin="round"/>
<path d="M135.73 78.1152L136.259 101.063L148.62 89.3012" stroke="#2D2D2D" stroke-width="1.55577" stroke-linecap="round" stroke-linejoin="round"/>
<path d="M122.281 86.5625C120.796 86.9514 119.31 87.4182 117.824 87.9549" stroke="#A3A3A3" stroke-width="1.55577" stroke-linecap="round" stroke-linejoin="round"/>
<path d="M109.206 91.9688C88.0481 103.995 70.5768 130.35 75.5319 157.334C80.7593 185.836 123.185 198.049 125.2 173.258C126.017 163.246 113.843 162.391 106.741 164.289C93.96 167.703 84.5165 178.804 78.9313 190.799C67.193 216.033 87.698 241.626 111.478 249.319C115.025 250.47 118.603 251.544 122.197 252.539" stroke="#A3A3A3" stroke-width="1.55577" stroke-linecap="round" stroke-linejoin="round"/>
<path d="M126.805 253.77C128.314 254.158 129.823 254.532 131.332 254.897" stroke="#A3A3A3" stroke-width="1.55577" stroke-linecap="round" stroke-linejoin="round"/>
</g>
<defs>
<clipPath id="clip0_1199_468">
<rect width="778" height="500.381" fill="white"/>
</clipPath>
</defs>
</svg>
