<svg width="198" height="200" viewBox="0 0 198 200" fill="none" xmlns="http://www.w3.org/2000/svg">
<path d="M133.87 105.951C163.127 105.951 186.845 82.2327 186.845 52.9753C186.845 23.7178 163.127 0 133.87 0C104.612 0 80.8945 23.7178 80.8945 52.9753C80.8945 82.2327 104.612 105.951 133.87 105.951Z" fill="#ED3327"/>
<path d="M133.87 95.0195C157.09 95.0195 175.914 76.1958 175.914 52.9756C175.914 29.7553 157.09 10.9316 133.87 10.9316C110.65 10.9316 91.8262 29.7553 91.8262 52.9756C91.8262 76.1958 110.65 95.0195 133.87 95.0195Z" fill="#FFDCDB"/>
<path d="M138.115 49.0221H135.703V31.4629H138.115C142.956 31.4629 146.894 35.4009 146.894 40.242C146.894 41.2531 147.715 42.0737 148.726 42.0737C149.737 42.0737 150.557 41.2531 150.557 40.242C150.557 33.3815 144.975 27.7996 138.115 27.7996H135.703V25.3863C135.703 24.3753 134.882 23.5547 133.871 23.5547C132.86 23.5547 132.039 24.3753 132.039 25.3863V27.7996H129.626C122.766 27.7996 117.184 33.3815 117.184 40.242C117.184 47.1034 122.766 52.6854 129.626 52.6854H132.039V74.4886H129.626C124.785 74.4886 120.847 70.5505 120.847 65.7094C120.847 64.6983 120.026 63.8778 119.015 63.8778C118.004 63.8778 117.184 64.6983 117.184 65.7094C117.184 72.5699 122.766 78.1519 129.626 78.1519H132.039V80.5651C132.039 81.5762 132.86 82.3968 133.871 82.3968C134.882 82.3968 135.703 81.5762 135.703 80.5651V78.1519H138.115C144.976 78.1519 150.557 72.5699 150.557 65.7094V61.4646C150.557 54.6041 144.975 49.0221 138.115 49.0221ZM129.626 49.0221C124.785 49.0221 120.847 45.0831 120.847 40.242C120.847 35.4009 124.785 31.4629 129.626 31.4629H132.039V49.0221H129.626ZM146.894 65.7094C146.894 70.5505 142.956 74.4886 138.115 74.4886H135.703V52.6854H138.115C142.956 52.6854 146.894 56.6235 146.894 61.4646V65.7094Z" fill="#2D2D2D"/>
<path d="M56.8952 105.951C86.1526 105.951 109.87 82.2327 109.87 52.9753C109.87 23.7178 86.1526 0 56.8952 0C27.6378 0 3.91992 23.7178 3.91992 52.9753C3.91992 82.2327 27.6378 105.951 56.8952 105.951Z" fill="#2D2D2D"/>
<path d="M56.8952 0C27.6381 0 3.91992 23.7182 3.91992 52.9753C3.91992 82.2324 27.6381 105.951 56.8952 105.951C86.1523 105.951 109.87 82.2324 109.87 52.9753C109.87 23.7182 86.1523 0 56.8952 0ZM56.8952 101.894C29.8773 101.894 7.97522 79.9923 7.97522 52.9744C7.97522 25.9565 29.8773 4.05438 56.8952 4.05438C83.9131 4.05438 105.815 25.9565 105.815 52.9744C105.814 79.9923 83.9122 101.894 56.8952 101.894Z" fill="#2D2D2D"/>
<path d="M56.8959 94.9988C80.1045 94.9988 98.9188 76.1846 98.9188 52.976C98.9188 29.7674 80.1045 10.9531 56.8959 10.9531C33.6873 10.9531 14.873 29.7674 14.873 52.976C14.873 76.1846 33.6873 94.9988 56.8959 94.9988Z" fill="#FFDCDB"/>
<path d="M75.5035 51.162H61.8182C61.2898 49.7278 60.1569 48.5904 58.7255 48.0574V26.441C58.7255 25.43 57.9049 24.6094 56.8938 24.6094C55.8827 24.6094 55.0622 25.43 55.0622 26.441V48.0574C53.0657 48.8019 51.6406 50.7197 51.6406 52.9754C51.6406 55.8767 53.9925 58.2286 56.8938 58.2286C59.1431 58.2286 61.0563 56.8127 61.8054 54.8254H75.5044C76.5155 54.8254 77.3361 54.0048 77.3361 52.9937C77.3361 51.9826 76.5146 51.162 75.5035 51.162Z" fill="#ED3327"/>
<path d="M56.8942 19.127C55.8831 19.127 55.0625 18.3064 55.0625 17.2953V15.1129C55.0625 14.1018 55.8831 13.2812 56.8942 13.2812C57.9052 13.2812 58.7258 14.1018 58.7258 15.1129V17.2953C58.7258 18.3073 57.9052 19.127 56.8942 19.127Z" fill="#ED3327"/>
<path d="M56.8942 92.668C55.8831 92.668 55.0625 91.8474 55.0625 90.8364V88.6539C55.0625 87.6428 55.8831 86.8223 56.8942 86.8223C57.9052 86.8223 58.7258 87.6428 58.7258 88.6539V90.8364C58.7258 91.8483 57.9052 92.668 56.8942 92.668Z" fill="#ED3327"/>
<path d="M21.2142 54.8079H19.0309C18.0198 54.8079 17.1992 53.9873 17.1992 52.9762C17.1992 51.9651 18.0198 51.1445 19.0309 51.1445H21.2142C22.2253 51.1445 23.0459 51.9651 23.0459 52.9762C23.0459 53.9873 22.2253 54.8079 21.2142 54.8079Z" fill="#ED3327"/>
<path d="M94.7543 54.8079H92.5719C91.5608 54.8079 90.7402 53.9873 90.7402 52.9762C90.7402 51.9651 91.5608 51.1445 92.5719 51.1445H94.7543C95.7654 51.1445 96.586 51.9651 96.586 52.9762C96.586 53.9873 95.7663 54.8079 94.7543 54.8079Z" fill="#ED3327"/>
<path d="M193.921 105.921C193.839 105.838 193.756 105.755 193.673 105.673C189.099 101.098 181.685 101.095 177.111 105.671C167.383 115.403 151.72 131.066 145.049 137.739C143.008 139.779 140.254 140.913 137.368 140.913H114.622C122.134 140.875 128.213 134.777 128.213 127.256C128.213 119.712 122.097 113.596 114.553 113.596H85.0117C77.6585 113.596 70.6185 116.572 65.4963 121.847L46.98 140.914H40.0078V186.4H62.627H115.983C124.641 186.4 132.944 182.962 139.068 176.84L193.919 121.997C198.359 117.557 198.36 110.361 193.921 105.921Z" fill="#FFDCDB"/>
<path d="M35.427 200H4.57915C2.05054 200 0 197.949 0 195.421V131.888C0 129.359 2.05054 127.309 4.57915 127.309H35.427C37.9557 127.309 40.0062 129.359 40.0062 131.888V195.421C40.0062 197.95 37.9566 200 35.427 200Z" fill="#ED3327"/>
<path d="M5.49572 178.021C4.48465 178.021 3.66406 177.2 3.66406 176.189V140.472C3.66406 139.461 4.48465 138.64 5.49572 138.64C6.5068 138.64 7.32738 139.461 7.32738 140.472V176.189C7.32738 177.201 6.50771 178.021 5.49572 178.021ZM5.49572 134.977C4.48465 134.977 3.66406 134.156 3.66406 133.145V132.804C3.66406 131.793 4.48465 130.973 5.49572 130.973C6.5068 130.973 7.32738 131.793 7.32738 132.804V133.145C7.32738 134.157 6.50771 134.977 5.49572 134.977Z" fill="white"/>
<path d="M40.0062 131.89C40.0062 129.361 37.9557 127.311 35.427 127.311H30.8479V186.264C30.8479 188.793 28.7974 190.844 26.2687 190.844H0V195.423C0 197.951 2.05054 200.002 4.57915 200.002H35.427C37.9557 200.002 40.0062 197.951 40.0062 195.423V131.89Z" fill="#ED3327"/>
</svg>
