<svg width="304" height="220" viewBox="0 0 304 220" fill="none" xmlns="http://www.w3.org/2000/svg">
<path d="M303.628 105.421L286.12 104.316L170.276 36.8552C158.965 30.2696 145.032 30.2696 133.721 36.8552L14.5555 106.251L0.381741 105.258L0.371826 125.775C0.371826 132.348 3.59674 138.921 10.0466 142.676L133.724 214.697C145.035 221.282 158.968 221.282 170.279 214.697L293.956 142.676C300.54 138.843 303.76 132.073 303.623 125.367H303.631V105.421H303.628Z" fill="#FF5722"/>
<path d="M159.084 218.94C162.478 218.265 165.797 217.095 168.938 215.437V159.905H159.084V218.94Z" fill="#FFBCA7"/>
<path d="M134.705 215.25C140.835 218.57 147.672 220.008 154.414 219.558V159.905H134.705V215.25Z" fill="#FFBCA7"/>
<path d="M152 219.998C145.615 219.998 139.232 218.34 133.538 215.025L9.86067 143.001C3.68598 139.406 0 132.968 0 125.778L0.0099152 104.858L14.4688 105.868L133.538 36.5304C144.928 29.8974 159.077 29.8974 170.465 36.5304L286.232 103.946L304 105.068V125.633C304.052 132.888 300.381 139.366 294.139 143.001L170.462 215.022C164.768 218.337 158.383 219.995 152 219.995V219.998ZM0.753555 105.661L0.74364 125.778C0.74364 132.696 4.2908 138.894 10.2325 142.354L133.91 214.375C145.069 220.873 158.933 220.873 170.093 214.375L293.77 142.354C299.851 138.811 303.395 132.466 303.251 125.378L303.246 125.105L303.259 125.1V105.776L286.014 104.686L285.94 104.641L170.095 37.1805C158.936 30.6825 145.072 30.6825 133.912 37.1805L14.6448 106.634L14.5307 106.626L0.753555 105.663V105.661Z" fill="#231F20"/>
<path d="M10.0467 88.5214L133.721 16.5007C145.032 9.91514 158.966 9.91514 170.276 16.5007L293.954 88.5214C306.851 96.032 306.851 114.811 293.954 122.322L170.276 194.342C158.966 200.928 145.032 200.928 133.721 194.342L10.0467 122.322C-2.85052 114.811 -2.85052 96.032 10.0467 88.5214Z" fill="#E8E5CC"/>
<path d="M152 199.641C145.615 199.641 139.232 197.983 133.538 194.668L9.86066 122.647C3.68597 119.052 0 112.611 0 105.423C0 98.235 3.68597 91.7945 9.86066 88.1992L133.535 16.176C144.926 9.54295 159.074 9.54545 170.462 16.176L294.139 88.1967C300.314 91.792 304 98.23 304 105.421C304 112.611 300.314 119.049 294.139 122.644L170.462 194.665C164.768 197.98 158.383 199.638 152 199.638V199.641ZM10.2325 88.8468C4.2908 92.307 0.74364 98.5025 0.74364 105.423C0.74364 112.344 4.2908 118.539 10.2325 121.999L133.91 194.02C145.069 200.518 158.933 200.518 170.093 194.02L293.77 121.999C299.712 118.539 303.259 112.344 303.259 105.423C303.259 98.5025 299.712 92.307 293.77 88.8468L170.09 16.826C158.931 10.328 145.067 10.328 133.907 16.826L10.2325 88.8468Z" fill="#231F20"/>
<path d="M33.4738 41.416C33.4738 41.416 22.9265 63.8203 27.0413 90.2599C27.0413 90.2599 42.3578 45.3088 33.4738 41.416Z" fill="#295908"/>
<path d="M26.905 91.8118L26.672 90.3192C24.5378 76.6006 26.4068 63.9946 28.3527 55.8364C30.4596 46.9957 33.112 41.3128 33.1392 41.2553L33.2929 40.9277L33.6226 41.0727C37.4945 42.7704 37.606 51.6236 33.9498 67.3848C31.2578 78.9933 27.4306 90.2717 27.3909 90.3842L26.905 91.8118ZM33.6499 41.9303C32.3782 44.8305 24.0073 65.0797 27.1802 88.649C28.3031 85.2088 31.114 76.3106 33.226 67.2073C36.6219 52.5612 36.7632 43.848 33.6499 41.9303Z" fill="#231F20"/>
<path d="M41.5398 115.329C46.8469 112.256 46.8469 97.9623 41.5398 94.8895C36.2327 91.8168 27.5743 91.8168 22.2969 94.8895C17.0195 97.9623 17.0195 112.256 22.2969 115.329C24.9046 116.849 28.3402 118.294 31.7882 118.311C35.3155 118.329 38.8578 116.881 41.5398 115.329Z" fill="#FE5E31"/>
<path d="M31.8525 118.687C31.8302 118.687 31.8079 118.687 31.7856 118.687C28.0625 118.667 24.4707 117.027 22.1109 115.654C19.5949 114.189 17.9663 110.049 17.9663 105.111C17.9663 100.171 19.5924 96.0328 22.1109 94.5651C27.5022 91.4249 36.302 91.4249 41.7231 94.5651C44.254 96.0303 45.89 100.171 45.89 105.111C45.89 110.051 44.254 114.189 41.7231 115.654C39.3286 117.039 35.6798 118.687 31.8525 118.687ZM31.9071 92.9475C28.4888 92.9475 25.078 93.7026 22.4827 95.2127C20.1923 96.5478 18.7099 100.431 18.7099 105.108C18.7099 109.784 20.1898 113.669 22.4827 115.002C24.7632 116.329 28.2285 117.917 31.7881 117.935C31.8079 117.935 31.8302 117.935 31.8525 117.935C35.5162 117.935 39.0386 116.342 41.3538 114.999C43.6591 113.664 45.1463 109.781 45.1463 105.106C45.1463 100.431 43.6566 96.5453 41.3538 95.2102C38.7461 93.7001 35.3229 92.945 31.9071 92.945V92.9475Z" fill="#231F20"/>
<path d="M46.0165 98.1904C46.0165 98.1004 46.0165 98.0079 46.0165 97.9179V95.7802H45.4737C44.8366 94.4876 43.6468 93.2725 41.8992 92.26C36.3938 89.0722 27.4107 89.0722 21.9375 92.26C20.1998 93.2725 19.0174 94.4901 18.3829 95.7802H17.8871V97.3654C17.8202 97.8254 17.8202 98.2854 17.8871 98.7455V98.783H17.8896C18.1697 100.636 19.5157 102.441 21.935 103.851C27.4082 107.039 36.3913 107.039 41.8968 103.851C44.3309 102.441 45.6844 100.636 45.967 98.783H46.014V98.1929L46.0165 98.1904Z" fill="#FE9E83"/>
<path d="M31.9047 106.619C28.2237 106.619 24.5452 105.806 21.7491 104.176C19.3298 102.766 17.8276 100.871 17.5203 98.8406L17.5153 98.8006C17.4459 98.318 17.4434 97.8255 17.5104 97.3405V95.4078H18.1524C18.8613 94.0927 20.0982 92.8976 21.7466 91.9375C27.3363 88.6823 36.4583 88.6823 42.0802 91.9375C43.7385 92.8976 44.9829 94.0927 45.6943 95.4078H46.3834V97.9205C46.3859 98.0055 46.3859 98.103 46.3834 98.198V98.9631C46.0785 100.943 44.6334 102.698 42.0802 104.176C39.2693 105.804 35.5833 106.616 31.9023 106.616L31.9047 106.619ZM18.2738 98.8331C18.5837 100.596 19.9445 102.261 22.1209 103.528C27.5074 106.664 36.2947 106.664 41.7134 103.528C44.0459 102.178 45.3696 100.613 45.6447 98.8831V98.1905V98.1855C45.6447 98.1005 45.6447 98.018 45.6447 97.933V96.1579H45.2432L45.1415 95.9504C44.5169 94.6878 43.332 93.5252 41.7158 92.5876C36.2997 89.4498 27.5098 89.4498 22.1234 92.5876C20.5147 93.5252 19.3372 94.6878 18.7175 95.9504L18.6159 96.1579H18.2614L18.2565 97.4205C18.197 97.843 18.197 98.2705 18.2565 98.6931L18.2763 98.8331H18.2738Z" fill="#231F20"/>
<path d="M41.8992 101.813C47.4046 98.625 47.4046 93.4096 41.8992 90.2219C36.3938 87.0341 27.4106 87.0341 21.9374 90.2219C16.4642 93.4096 16.4642 98.625 21.9374 101.813C27.4106 105.001 36.3938 105.001 41.8992 101.813Z" fill="#FE7E5A"/>
<path d="M31.9047 104.58C28.2237 104.58 24.5451 103.768 21.7491 102.137C18.9827 100.525 17.4583 98.3522 17.4583 96.017C17.4583 93.6818 18.9827 91.5067 21.7491 89.8965C27.3387 86.6413 36.4607 86.6413 42.0827 89.8965C44.8663 91.5092 46.3982 93.6818 46.3982 96.017C46.3982 98.3522 44.8663 100.527 42.0827 102.137C39.2717 103.765 35.5857 104.578 31.9047 104.578V104.58ZM31.9047 88.1939C28.3575 88.1939 24.8153 88.9765 22.1209 90.5466C19.5925 92.0192 18.2019 93.9618 18.2019 96.017C18.2019 98.0722 19.595 100.017 22.1209 101.487C27.5073 104.623 36.2947 104.623 41.7133 101.487C44.2566 100.015 45.6546 98.0722 45.6546 96.017C45.6546 93.9618 44.2541 92.0192 41.7133 90.5466C39.004 88.979 35.4519 88.1939 31.9047 88.1939Z" fill="#231F20"/>
<path d="M39.8171 100.603C44.1724 98.0801 44.1724 93.9548 39.8171 91.4321C35.4619 88.9094 28.3552 88.9094 24.0247 91.4321C19.6942 93.9548 19.6942 98.0801 24.0247 100.603C28.3552 103.126 35.4619 103.126 39.8171 100.603Z" fill="#FE5E31"/>
<path d="M31.9097 102.868C28.9822 102.868 26.0597 102.22 23.8362 100.928C21.6226 99.6375 20.4031 97.8948 20.4031 96.0172C20.4031 94.1395 21.6226 92.3969 23.8362 91.1068C28.2807 88.5191 35.5312 88.5191 40.0005 91.1068C42.2264 92.3969 43.4534 94.1395 43.4534 96.0172C43.4534 97.8948 42.2264 99.6375 40.0005 100.928C37.7671 102.22 34.8371 102.868 31.9097 102.868ZM31.9097 89.9042C29.1161 89.9042 26.3274 90.5218 24.208 91.7568C22.2324 92.9069 21.1467 94.4196 21.1467 96.0172C21.1467 97.6148 22.2349 99.1274 24.208 100.278C28.4468 102.745 35.3651 102.745 39.6286 100.278C41.6142 99.1274 42.7073 97.6148 42.7073 96.0172C42.7073 94.4196 41.6142 92.9069 39.6286 91.7568C37.4969 90.5218 34.7008 89.9042 31.9072 89.9042H31.9097Z" fill="#231F20"/>
<path d="M38.3843 100.945C41.9488 98.8799 41.9488 95.5022 38.3843 93.4395C34.8198 91.3743 29.002 91.3743 25.4573 93.4395C21.9127 95.5047 21.9127 98.8824 25.4573 100.945C29.002 103.01 34.8198 103.01 38.3843 100.945Z" fill="#96602D"/>
<path d="M31.9146 102.868C29.5077 102.868 27.1008 102.336 25.2739 101.271C23.4396 100.203 22.4282 98.7557 22.4282 97.193C22.4282 95.6304 23.4396 94.1828 25.2739 93.1152C28.9301 90.985 34.8941 90.985 38.5702 93.1152C40.4144 94.1828 41.4307 95.6304 41.4307 97.193C41.4307 98.7557 40.4144 100.203 38.5702 101.271C36.7334 102.336 34.3215 102.866 31.9146 102.866V102.868ZM31.9146 92.2576C29.6415 92.2576 27.3709 92.7602 25.6457 93.7653C24.0518 94.6928 23.1719 95.9104 23.1719 97.193C23.1719 98.4756 24.0494 99.6932 25.6457 100.621C29.0962 102.631 34.728 102.628 38.2008 100.621C39.8046 99.6932 40.6871 98.4756 40.6871 97.193C40.6871 95.9104 39.8046 94.6928 38.2008 93.7653C36.4657 92.7602 34.1876 92.2576 31.9146 92.2576Z" fill="#231F20"/>
<path d="M32.921 99.5829C32.921 99.5829 11.1249 82.5091 10.3714 57.0445C10.364 56.7895 12.3767 56.532 12.3743 56.277C12.3718 56.0245 10.3516 55.7694 10.3516 55.5144C10.364 52.3092 10.7135 48.9789 11.4844 45.5361C14.858 30.4599 21.3128 40.0357 26.4687 55.1319C26.5852 55.4719 24.6815 55.8169 24.798 56.1645C24.9765 56.7045 27.1752 57.2521 27.3512 57.8046C32.5641 74.1759 36.084 95.3676 32.9235 99.5829H32.921Z" fill="#36760A"/>
<path d="M32.9904 100.113L32.693 99.8803C32.6384 99.8378 27.1405 95.4949 21.6326 88.0893C16.5436 81.2463 10.3937 70.3104 9.99957 57.0569C9.98717 56.6293 10.4458 56.5118 11.2786 56.2993C11.3009 56.2943 11.3257 56.2868 11.3505 56.2818C11.3257 56.2743 11.2985 56.2693 11.2761 56.2618C10.4383 56.0518 9.97974 55.9343 9.97974 55.5117C9.99213 52.1665 10.3763 48.7837 11.1225 45.4534C12.285 40.2655 13.8491 37.6878 15.9065 37.5728C15.9512 37.5728 15.9958 37.5703 16.0404 37.5703C20.237 37.5703 24.5898 48.4687 26.8232 55.0117C26.9992 55.5242 26.4043 55.7543 25.7722 55.9968C25.6433 56.0468 25.4598 56.1168 25.3161 56.1818C25.5441 56.3243 25.9482 56.5118 26.2159 56.6343C27.0512 57.0194 27.5718 57.2769 27.7032 57.6919C32.9334 74.1182 36.4855 95.4549 33.2185 99.8103L32.9904 100.113ZM10.7482 57.2269C11.1894 70.1879 17.2178 80.9013 22.2126 87.6218C26.9124 93.9448 31.5974 98.0051 32.8343 99.0327C35.4915 94.2773 32.0336 73.7457 26.9942 57.9219C26.9099 57.7794 26.2803 57.4894 25.906 57.3169C25.0855 56.9394 24.5774 56.6868 24.4435 56.2843C24.2725 55.7693 24.8699 55.5392 25.5045 55.2942C25.6656 55.2317 25.9085 55.1392 26.0523 55.0642C22.401 44.4259 18.6332 38.1779 15.9437 38.3204C14.3102 38.4104 12.8948 40.9331 11.8463 45.616C11.1274 48.8312 10.7506 52.0965 10.7234 55.3267C10.8994 55.3917 11.2241 55.4717 11.4546 55.5317C12.2825 55.7393 12.7386 55.8543 12.7461 56.2718C12.751 56.6968 12.2925 56.8118 11.4621 57.0244C11.2365 57.0819 10.9242 57.1619 10.7482 57.2244V57.2269Z" fill="#231F20"/>
<path d="M30.7297 90.2842C24.0567 76.3331 16.722 60.4744 16.9525 44.6506C16.9575 44.3131 16.4369 44.3131 16.432 44.6506C16.2138 60.4069 23.2264 76.7157 30.5512 90.3892C30.6132 90.5068 30.7842 90.4042 30.7272 90.2842H30.7297Z" fill="#231F20"/>
<path d="M33.097 99.5829C33.097 99.5829 24.1733 64.1701 42.5982 50.0814C43.0667 49.7214 42.2413 53.7217 42.7395 53.3867C43.2377 53.0517 43.7583 49.6814 44.2962 49.3889C47.536 47.6262 51.5392 46.6337 56.4621 46.7037C75.3233 46.9787 70.6533 49.2014 60.4084 58.2496C60.039 58.5746 55.6243 58.9096 55.2426 59.2522C54.9154 59.5472 58.6187 59.8497 58.2816 60.1572C49.6653 68.0404 38.3223 80.3813 33.0945 99.5804L33.097 99.5829Z" fill="#36760A"/>
<path d="M33.0995 99.7807C33.0995 99.7807 33.0945 99.7807 33.0921 99.7807C32.8962 99.7782 32.7277 99.6382 32.6806 99.4456C31.813 95.7853 24.7137 63.2878 42.3752 49.7842C42.5239 49.6692 42.7048 49.6517 42.8561 49.7392C43.1783 49.9217 43.1609 50.3467 43.0395 51.6443C43.0692 51.5443 43.0965 51.4468 43.1213 51.3568C43.5278 49.9167 43.7435 49.2641 44.1202 49.0591C47.5782 47.179 51.7326 46.2589 56.4671 46.3289C65.7453 46.4639 69.0694 47.0465 69.642 48.6391C70.2195 50.2492 67.8324 52.3119 63.4995 56.0547C62.5972 56.8347 61.6627 57.6423 60.6538 58.5324C60.4233 58.7349 59.8358 58.8449 57.9321 59.1099C57.5454 59.1649 57.072 59.2299 56.6407 59.2974C56.6977 59.3074 56.7522 59.3174 56.8043 59.3274C58.1651 59.57 58.5617 59.6575 58.6609 60.005C58.7055 60.16 58.6559 60.325 58.5345 60.4375C50.347 67.9281 38.8478 80.1216 33.5184 99.4581C33.4664 99.6482 33.2953 99.7782 33.102 99.7782L33.0995 99.7807ZM42.3677 50.7418C35.4023 56.3372 31.6915 65.7155 31.3346 78.6315C31.0966 87.2772 32.4773 94.9578 33.1367 98.0755C38.5603 79.5466 49.5786 67.6781 57.6322 60.2525C57.3422 60.1875 56.9629 60.12 56.6754 60.07C55.3219 59.8275 54.9625 59.75 54.8658 59.4074C54.8212 59.2524 54.8733 59.0874 54.9947 58.9774C55.2352 58.7599 55.8474 58.6474 57.8305 58.3699C58.7228 58.2449 59.9399 58.0748 60.1804 57.9573C61.1843 57.0698 62.1163 56.2672 63.0161 55.4896C66.5534 52.4344 69.347 50.0217 68.9429 48.8991C68.4249 47.4515 62.3394 47.169 56.4572 47.084C51.8516 47.014 47.8186 47.904 44.4722 49.7242C44.3111 49.8767 44.0137 50.9343 43.8352 51.5668C43.4931 52.7794 43.2824 53.477 42.9453 53.7045C42.7916 53.807 42.6131 53.8145 42.4644 53.727C42.1322 53.527 42.1595 53.0369 42.2909 51.6493C42.3157 51.3768 42.3504 51.0293 42.3653 50.7443L42.3677 50.7418Z" fill="#231F20"/>
<path d="M33.1789 91.8375C34.4828 72.856 43.4139 57.2598 61.3232 50.0067C61.5166 49.9292 61.4373 49.6091 61.234 49.6842C43.694 56.2972 33.2707 73.091 33.05 91.8375C33.05 91.92 33.1715 91.9175 33.1765 91.8375H33.1789Z" fill="#231F20"/>
<g opacity="0.5">
<path d="M230.01 99.5326L145.957 50.5862C141.832 48.1835 136.75 48.1835 132.626 50.5862L87.4148 76.9158C84.5766 78.5684 84.5766 82.6988 87.4148 84.3514L171.468 133.298C175.593 135.7 180.675 135.7 184.799 133.298L230.01 106.968C232.848 105.316 232.848 101.185 230.01 99.5326Z" fill="#759BF0"/>
</g>
<path d="M174.334 105.336L170.417 158.27L172.728 156.923L180.1 105.976L174.334 105.336Z" fill="#231F20"/>
<path d="M94.3853 55.3467L82.2417 105.353L84.3636 105.958L99.9676 56.9393L94.3853 55.3467Z" fill="#231F20"/>
<path d="M219.661 80.1059L232.898 121.894L234.787 121.377L225.261 78.5732L219.661 80.1059Z" fill="#231F20"/>
<path d="M169.994 158.95L173.992 104.921L180.523 105.646L173.07 157.155L169.994 158.95ZM174.676 105.751L170.841 157.59L172.386 156.688L179.678 106.306L174.676 105.751Z" fill="#231F20"/>
<path d="M84.6088 106.418L81.7954 105.615L94.1175 54.8789L100.441 56.6816L84.6088 106.416V106.418ZM82.6878 105.09L84.1205 105.498L99.4965 57.1916L94.6554 55.8115L82.6878 105.088V105.09Z" fill="#231F20"/>
<path d="M232.653 122.349L219.188 79.846L225.539 78.1084L235.228 121.644L232.655 122.349H232.653ZM220.132 80.3636L233.144 121.437L234.343 121.109L224.981 79.036L220.132 80.3636Z" fill="#231F20"/>
<path d="M85.2856 55.944V52.8638L86.6415 52.8038C86.8696 52.5913 87.1274 52.3987 87.4125 52.2312L132.623 25.9016C136.748 23.4989 141.83 23.4989 145.954 25.9016L230.008 74.848C230.273 75.003 230.511 75.1781 230.727 75.3706L232.137 75.4481V78.5833C232.132 80.0234 231.423 81.4611 230.01 82.2861L184.8 108.616C180.675 111.018 175.593 111.018 171.469 108.616L87.4149 59.6693C85.9946 58.8418 85.2856 57.3941 85.2856 55.9465V55.944Z" fill="#F19CD9"/>
<path d="M178.134 110.786C175.764 110.786 173.395 110.171 171.283 108.941L87.229 59.9943C85.7789 59.1493 84.9138 57.6341 84.9138 55.944V52.5037L86.4928 52.4337C86.7209 52.2337 86.9663 52.0562 87.2265 51.9062L132.437 25.5766C136.664 23.1164 141.914 23.1164 146.14 25.5766L230.194 74.523C230.434 74.663 230.662 74.823 230.873 75.003L232.507 75.093V78.5833C232.499 80.2659 231.634 81.7711 230.194 82.6086L184.983 108.938C182.871 110.168 180.501 110.783 178.132 110.783L178.134 110.786ZM85.6575 53.2213V55.944C85.6575 57.3616 86.3813 58.6342 87.6008 59.3418L171.654 108.288C175.65 110.616 180.618 110.616 184.614 108.288L229.824 81.9586C231.034 81.2535 231.76 79.9909 231.765 78.5808V75.8031L230.578 75.7381L230.481 75.6506C230.281 75.4706 230.06 75.3106 229.824 75.173L145.771 26.2266C141.773 23.899 136.807 23.899 132.812 26.2266L87.6008 52.5562C87.348 52.7038 87.1125 52.8788 86.8944 53.0788L86.7952 53.1713L85.6575 53.2213Z" fill="#231F20"/>
<path d="M230.01 71.7679L145.957 22.8215C141.832 20.4189 136.75 20.4189 132.626 22.8215L87.4148 49.1511C84.5766 50.8038 84.5766 54.9341 87.4148 56.5867L171.468 105.533C175.593 107.936 180.675 107.936 184.799 105.533L230.01 79.2035C232.848 77.5509 232.848 73.4206 230.01 71.7679Z" fill="#FFF8E9"/>
<path d="M178.134 107.703C175.764 107.703 173.395 107.088 171.283 105.858L87.229 56.9118C85.7789 56.0667 84.9138 54.5566 84.9138 52.8689C84.9138 51.1813 85.7789 49.6712 87.229 48.8261L132.44 22.4965C136.666 20.0363 141.916 20.0363 146.143 22.4965L230.196 71.4429C231.646 72.2855 232.509 73.7981 232.509 75.4857C232.509 77.1734 231.644 78.6835 230.196 79.5285L184.985 105.858C182.874 107.088 180.504 107.703 178.134 107.703ZM139.291 21.3989C137.05 21.3989 134.81 21.9815 132.812 23.1441L87.6008 49.4737C86.3837 50.1812 85.6575 51.4513 85.6575 52.8664C85.6575 54.2815 86.3837 55.5516 87.6008 56.2592L171.654 105.206C175.65 107.533 180.618 107.533 184.614 105.206L229.824 78.876C231.042 78.1684 231.768 76.8983 231.765 75.4832C231.765 74.0656 231.039 72.798 229.824 72.0905L145.771 23.1441C143.773 21.9815 141.532 21.3989 139.291 21.3989Z" fill="#231F20"/>
<path d="M123.263 44.778C121.62 43.6654 120.636 41.8078 120.636 39.8076V38.0425C120.636 37.54 120.894 37.0874 121.327 36.8349C121.759 36.5824 122.277 36.5824 122.708 36.8349L123.945 37.555L123.3 38.68L122.066 37.96C122.066 37.96 122.019 37.9325 121.974 37.96C121.927 37.9875 121.927 38.0275 121.927 38.04V39.8051C121.927 41.3678 122.696 42.8229 123.982 43.6954L123.263 44.7755V44.778Z" fill="#36760A"/>
<path d="M123.365 45.2982L123.055 45.0882C121.307 43.9056 120.264 41.9304 120.264 39.8077V38.0426C120.264 37.4025 120.591 36.83 121.141 36.5125C121.689 36.1925 122.344 36.1925 122.894 36.5125L124.453 37.42L123.437 39.1952L122.299 38.5326V39.8077C122.299 41.2479 123.005 42.5855 124.19 43.3855L124.5 43.5955L123.367 45.2982H123.365ZM122.019 37.025C121.845 37.025 121.672 37.07 121.513 37.1625C121.196 37.3475 121.008 37.6751 121.008 38.0451V39.8102C121.008 41.5579 121.808 43.1905 123.167 44.2481L123.471 43.7906C122.264 42.8355 121.553 41.3729 121.553 39.8102V38.0451C121.553 37.8751 121.64 37.7226 121.786 37.6401C121.922 37.5576 122.088 37.5551 122.232 37.6326L123.162 38.1726L123.434 37.6951L122.52 37.1625C122.361 37.07 122.187 37.025 122.014 37.025H122.019Z" fill="#231F20"/>
<path d="M132.232 36.5977H123.236V45.3134H123.241C123.261 45.9684 123.695 46.6185 124.547 47.116C125.398 47.611 126.513 47.8636 127.638 47.8761H127.832C128.952 47.8611 130.065 47.6085 130.915 47.116C131.805 46.601 132.244 45.9184 132.232 45.2383V36.5977Z" fill="#36760A"/>
<path d="M127.636 48.2506C126.394 48.2356 125.231 47.9481 124.359 47.4406C123.506 46.943 122.99 46.2755 122.886 45.5429L122.867 45.5329L122.862 45.3154V36.5547L132.601 36.5722L132.591 45.4404C132.524 46.2155 132.001 46.9205 131.096 47.4431C130.221 47.9481 129.064 48.2356 127.832 48.2531H127.633L127.636 48.2506ZM123.608 45.2279L123.613 45.3054C123.63 45.8529 124.029 46.3805 124.733 46.793C125.497 47.238 126.53 47.4906 127.641 47.5031H127.829C128.932 47.4881 129.963 47.2355 130.729 46.793C131.468 46.3655 131.87 45.8154 131.857 45.2479L131.852 45.0479L131.857 45.0429V37.3222L123.605 37.3072V45.2304L123.608 45.2279Z" fill="#231F20"/>
<path d="M130.915 38.4454C132.673 37.4278 132.673 35.7651 130.915 34.7476C129.16 33.73 126.292 33.73 124.547 34.7476C122.8 35.7651 122.8 37.4278 124.547 38.4454C126.295 39.4629 129.16 39.4629 130.915 38.4454Z" fill="#36760A"/>
<path d="M127.728 39.5803C126.508 39.5803 125.288 39.3103 124.361 38.7702C123.397 38.2077 122.867 37.4376 122.867 36.595C122.867 35.755 123.397 34.9824 124.361 34.4224C126.216 33.3423 129.237 33.3423 131.101 34.4224C132.07 34.9849 132.606 35.755 132.606 36.5975C132.606 37.4401 132.073 38.2102 131.101 38.7727C130.169 39.3128 128.947 39.5828 127.728 39.5828V39.5803ZM127.728 34.3649C126.634 34.3649 125.544 34.5999 124.733 35.0724C124.009 35.495 123.61 36.035 123.61 36.5975C123.61 37.1601 124.009 37.7001 124.733 38.1227C126.354 39.0652 129.101 39.0652 130.732 38.1227C131.461 37.7001 131.862 37.1601 131.862 36.5975C131.862 36.035 131.461 35.495 130.732 35.0749C129.916 34.6024 128.823 34.3674 127.73 34.3674L127.728 34.3649Z" fill="#231F20"/>
<path d="M130.38 38.4631C131.845 37.768 131.845 36.6304 130.38 35.9354C128.915 35.2403 126.525 35.2403 125.07 35.9354C123.613 36.6304 123.613 37.768 125.07 38.4631C126.525 39.1581 128.915 39.1581 130.38 38.4631Z" fill="#96602D"/>
<g opacity="0.3">
<path d="M131.421 37.5054C131.295 37.2579 130.948 37.0204 130.38 36.8303C128.915 36.3378 126.525 36.3378 125.07 36.8303C124.505 37.0204 124.163 37.2579 124.037 37.5054C124.163 37.8554 124.508 38.1929 125.07 38.463C126.525 39.158 128.915 39.158 130.38 38.463C130.948 38.1929 131.292 37.8579 131.421 37.5054Z" fill="#FF9800"/>
</g>
<path d="M123.236 37.1448V38.6474L123.01 38.5149L122.366 38.1399V36.6973C122.485 36.7298 122.599 36.7748 122.711 36.8398L123.236 37.1473V37.1448Z" fill="#231F20"/>
<path d="M122.366 44.0306V42.043L122.644 42.308C122.815 42.5805 123.013 42.8355 123.239 43.0681V44.7582C122.924 44.5407 122.631 44.2981 122.368 44.0306H122.366Z" fill="#231F20"/>
<path d="M127.723 39.3555C126.704 39.3555 125.685 39.1704 124.912 38.8004C124.071 38.3979 123.608 37.8303 123.608 37.1978C123.608 36.5652 124.071 35.9952 124.914 35.5952C126.461 34.8576 128.987 34.8576 130.541 35.5952C131.386 35.9977 131.852 36.5652 131.852 37.1978C131.852 37.8303 131.386 38.4004 130.541 38.8004C129.763 39.1704 128.744 39.3555 127.725 39.3555H127.723ZM127.723 35.7902C126.813 35.7902 125.903 35.9502 125.229 36.2727C124.671 36.5402 124.349 36.8778 124.349 37.1978C124.349 37.5178 124.669 37.8553 125.229 38.1229C126.578 38.7679 128.865 38.7679 130.221 38.1229C130.784 37.8553 131.106 37.5178 131.106 37.1978C131.106 36.8778 130.784 36.5402 130.221 36.2727C129.542 35.9502 128.632 35.7902 127.72 35.7902H127.723Z" fill="#231F20"/>
<path d="M174.971 84.6979V85.863C174.971 86.1155 175.105 86.3506 175.323 86.4756L189.341 94.6237C189.849 94.9212 190.682 94.9212 191.192 94.6237L212.998 81.9652C213.278 81.8027 213.449 81.5027 213.449 81.1777V80.3051L199.107 72.647C198.599 72.3494 197.766 72.3494 197.258 72.647L174.971 84.7004V84.6979Z" fill="#231F20"/>
<path d="M190.265 95.2189C189.864 95.2189 189.465 95.1289 189.152 94.9464L175.135 86.8007C174.803 86.6082 174.597 86.2482 174.597 85.8631V84.4755L174.793 84.3705L197.08 72.3171C197.692 71.9595 198.668 71.962 199.291 72.3246L213.819 80.0802V81.1778C213.819 81.6353 213.573 82.0628 213.179 82.2904L191.373 94.9489C191.061 95.1289 190.662 95.2189 190.263 95.2189H190.265ZM175.34 84.9231V85.8631C175.34 85.9806 175.402 86.0907 175.507 86.1507L189.524 94.2963C189.918 94.5263 190.61 94.5263 191.004 94.2963L212.81 81.6378C212.974 81.5428 213.075 81.3653 213.075 81.1753V80.5302L198.931 72.9771C198.525 72.7396 197.836 72.7396 197.441 72.9671L175.34 84.9206V84.9231Z" fill="#231F20"/>
<path d="M175.353 83.9454C174.845 84.2429 174.845 84.7255 175.353 85.023L189.338 93.1686C189.846 93.4662 190.679 93.4662 191.19 93.1686L213.093 80.4601C213.601 80.1651 213.603 79.6801 213.093 79.3825L199.105 71.1919C198.597 70.8944 197.764 70.8944 197.255 71.1919L175.35 83.9479L175.353 83.9454Z" fill="#FFF8E9"/>
<path d="M190.265 91.5618C190.295 91.5618 190.317 91.5593 190.332 91.5568L210.22 80.0184C210.299 79.9734 210.299 79.8584 210.22 79.8134L198.245 72.8029C198.23 72.8029 198.207 72.7979 198.18 72.7979C198.153 72.7979 198.131 72.7979 198.116 72.8029L178.231 84.3838C178.151 84.4288 178.151 84.5438 178.231 84.5888L190.198 91.5593C190.213 91.5618 190.238 91.5643 190.265 91.5643V91.5618Z" fill="#A9C6FB"/>
<path d="M197.493 87.4012L190.954 91.1965V76.9728L197.493 73.165V87.4012Z" fill="#CBDDFD"/>
<path d="M190.265 91.9369C190.208 91.9369 190.164 91.9319 190.134 91.9269L190.069 91.9144L190.012 91.8819L178.045 84.9113C177.894 84.8238 177.799 84.6588 177.799 84.4838C177.799 84.3088 177.894 84.1438 178.042 84.0563L197.989 72.4404L198.059 72.4304C198.113 72.4204 198.245 72.4204 198.302 72.4304L198.369 72.4404L210.403 79.4859C210.554 79.5734 210.648 79.7384 210.646 79.9135C210.646 80.0885 210.552 80.2535 210.401 80.341L190.454 91.9144L190.387 91.9244C190.357 91.9294 190.315 91.9344 190.26 91.9344L190.265 91.9369ZM178.796 84.4838L190.265 91.1618L209.652 79.9135L198.178 73.1954L178.796 84.4813V84.4838Z" fill="#231F20"/>
<path d="M190.266 93.7666C189.864 93.7666 189.465 93.6766 189.153 93.4941L175.167 85.3484C174.805 85.1384 174.6 84.8234 174.6 84.4859C174.6 84.1483 174.805 83.8333 175.167 83.6233L197.072 70.8673C197.695 70.5048 198.671 70.5048 199.293 70.8698L213.281 79.0604C213.641 79.2705 213.849 79.588 213.846 79.9255C213.846 80.263 213.638 80.5781 213.276 80.7881L191.374 93.4966C191.061 93.6766 190.662 93.7666 190.263 93.7666H190.266ZM198.178 71.3448C197.908 71.3448 197.638 71.4023 197.442 71.5173L175.537 84.2734C175.4 84.3534 175.341 84.4384 175.341 84.4884C175.341 84.5384 175.4 84.6234 175.537 84.7034L189.522 92.849C189.916 93.0791 190.608 93.0791 191.002 92.849L212.905 80.1405C213.041 80.063 213.1 79.9755 213.1 79.9255C213.1 79.8755 213.041 79.7905 212.905 79.7105L198.917 71.5198C198.721 71.4048 198.448 71.3473 198.175 71.3473L198.178 71.3448Z" fill="#231F20"/>
<path d="M206.226 58.4112L169.545 79.9379L140.949 63.9491L177.953 41.9424L206.226 58.4112Z" fill="#D9D3AA"/>
<path d="M155.954 36.142L149.541 53.1359C149.013 54.5385 149.571 56.1186 150.857 56.8687L175.095 70.9823C176.989 72.0849 179.413 71.2173 180.192 69.1546L186.604 52.1608C187.132 50.7582 186.574 49.178 185.288 48.428L161.05 34.3144C159.156 33.2118 156.732 34.0793 155.954 36.142Z" fill="#231F20"/>
<path d="M176.87 71.8403C176.188 71.8403 175.512 71.6603 174.909 71.3103L150.672 57.1967C149.216 56.3491 148.597 54.5865 149.194 53.0038L155.609 36.01C156.018 34.9249 156.876 34.0773 157.962 33.6898C159.047 33.2998 160.242 33.4098 161.239 33.9923L185.476 48.1059C186.931 48.951 187.551 50.7161 186.954 52.2988L180.539 69.2926C180.13 70.3777 179.272 71.2253 178.186 71.6153C177.757 71.7678 177.314 71.8453 176.87 71.8453V71.8403ZM156.301 36.275L149.888 53.2688C149.422 54.5064 149.908 55.8841 151.043 56.5441L175.281 70.6577C176.089 71.1278 177.058 71.2178 177.938 70.9028C178.818 70.5877 179.512 69.9002 179.847 69.0201L186.26 52.0262C186.726 50.7887 186.24 49.411 185.105 48.751L160.867 34.6374C160.059 34.1673 159.09 34.0773 158.21 34.3923C157.33 34.7074 156.636 35.3949 156.303 36.275H156.301Z" fill="#231F20"/>
<path d="M174.208 72.4877L149.573 58.1416C148.602 57.5765 147.407 57.5765 146.435 58.1416L131.431 66.8798L129.753 67.0898V68.7974C129.748 69.3649 130.021 69.9325 130.576 70.2575L156.385 85.2862C157.357 85.8513 158.552 85.8513 159.523 85.2862L175.227 76.173C175.777 75.853 176.05 75.2929 176.05 74.7329L176.022 72.9527L174.205 72.4852L174.208 72.4877Z" fill="#231F20"/>
<path d="M157.954 86.084C157.347 86.084 156.74 85.9264 156.199 85.6114L130.39 70.5827C129.86 70.2752 129.51 69.7627 129.411 69.1726H129.381V66.2349L131.354 66.4949L146.249 57.8192C147.333 57.1892 148.676 57.1892 149.759 57.8192L174.342 72.1329L176.568 72.5754L176.58 74.6105C176.58 75.3506 176.203 76.0082 175.569 76.3782L159.709 85.6139C159.169 85.929 158.562 86.0865 157.954 86.0865V86.084ZM130.125 68.4226H130.13L130.125 68.8026C130.12 69.2751 130.358 69.6977 130.762 69.9327L156.571 84.9614C157.424 85.4589 158.485 85.4589 159.337 84.9614L175.197 75.7256C175.596 75.4931 175.836 75.0756 175.836 74.6105L175.829 73.1904L174.076 72.8429L174.022 72.8129L149.387 58.4668C148.535 57.9692 147.474 57.9692 146.621 58.4668L131.508 67.2675L130.125 67.0875V68.4226Z" fill="#231F20"/>
<path d="M130.405 65.4396L146.324 56.1688C147.298 55.6013 148.498 55.6013 149.474 56.1688L175.38 71.255C176.483 71.8976 176.483 73.5027 175.38 74.1453L159.461 83.416C158.487 83.9835 157.288 83.9835 156.311 83.416L130.405 68.3298C129.302 67.6872 129.302 66.0821 130.405 65.4396Z" fill="#FFF8E9"/>
<path d="M157.885 84.2139C157.275 84.2139 156.668 84.0563 156.125 83.7388L130.219 68.6526C129.584 68.2826 129.205 67.6225 129.205 66.8825C129.205 66.1424 129.584 65.4824 130.219 65.1123L146.138 55.8416C147.223 55.209 148.574 55.209 149.66 55.8416L175.566 70.9278C176.201 71.2978 176.58 71.9579 176.58 72.6979C176.58 73.438 176.201 74.098 175.566 74.4681L159.647 83.7388C159.104 84.0538 158.495 84.2139 157.887 84.2139H157.885ZM147.898 56.1191C147.417 56.1191 146.938 56.2441 146.51 56.4942L130.591 65.7649C130.189 65.9999 129.949 66.4174 129.949 66.885C129.949 67.3525 130.189 67.7726 130.591 68.0051L156.497 83.0913C157.354 83.5888 158.418 83.5888 159.275 83.0913L175.194 73.8205C175.596 73.5855 175.836 73.168 175.836 72.7004C175.836 72.2329 175.596 71.8129 175.194 71.5804L149.288 56.4942C148.859 56.2441 148.379 56.1191 147.9 56.1191H147.898Z" fill="#231F20"/>
<path d="M139.408 65.6471C138.496 65.1146 138.498 63.7845 139.415 63.2595L146.636 59.1116C147.427 58.6516 148.401 58.6516 149.192 59.1116L170.212 71.3526C171.107 71.8726 171.107 73.1777 170.212 73.6978L163.271 77.6781C162.272 78.2507 161.048 78.2456 160.054 77.6681L139.408 65.6446V65.6471Z" fill="#F19CD9"/>
<path d="M141.257 72.3678C140.982 72.2078 140.982 71.8053 141.257 71.6453L143.441 70.3902C143.681 70.2502 143.974 70.2502 144.214 70.3902L150.575 74.093C150.845 74.2505 150.845 74.6455 150.575 74.803L148.475 76.0081C148.173 76.1806 147.803 76.1806 147.501 76.0056L141.254 72.3678H141.257Z" fill="#E8E5CC"/>
<path d="M147.994 76.5129C147.761 76.5129 147.526 76.4529 147.318 76.3304L141.071 72.6926C140.823 72.5501 140.677 72.2926 140.679 72.0051C140.679 71.7175 140.828 71.4625 141.076 71.32L143.262 70.0649C143.614 69.8599 144.051 69.8599 144.405 70.0649L150.766 73.7677C151.009 73.9102 151.155 74.1627 151.155 74.4477C151.155 74.7328 151.009 74.9853 150.766 75.1278L148.664 76.3329C148.458 76.4504 148.227 76.5104 147.997 76.5104L147.994 76.5129ZM141.443 72.0426L147.69 75.6803C147.875 75.7878 148.108 75.7903 148.294 75.6803L150.394 74.4752C150.394 74.4752 150.409 74.4652 150.409 74.4452C150.409 74.4252 150.396 74.4177 150.391 74.4152L144.031 70.7124C143.907 70.6399 143.753 70.6399 143.629 70.7124L141.443 71.9675C141.443 71.9675 141.423 71.98 141.423 72.0025C141.423 72.0251 141.438 72.0351 141.443 72.0376V72.0426Z" fill="#231F20"/>
<path d="M161.67 78.4804C161.045 78.4804 160.421 78.3179 159.865 77.9954L139.219 65.9719C138.674 65.6544 138.349 65.0869 138.352 64.4518C138.352 63.8168 138.681 63.2492 139.229 62.9342L146.45 58.7864C147.352 58.2613 148.473 58.2613 149.375 58.7864L170.395 71.0273C170.931 71.3399 171.253 71.8999 171.253 72.525C171.253 73.15 170.933 73.71 170.395 74.0226L163.452 78.0054C162.902 78.3204 162.285 78.4779 161.667 78.4779L161.67 78.4804ZM147.913 59.1439C147.536 59.1439 147.157 59.2414 146.819 59.4389L139.596 63.5867C139.284 63.7668 139.095 64.0893 139.095 64.4543C139.095 64.8168 139.279 65.1419 139.591 65.3244L160.237 77.3478C161.115 77.8579 162.205 77.8604 163.085 77.3578L170.026 73.3775C170.328 73.2025 170.509 72.885 170.509 72.53C170.509 72.1749 170.328 71.8599 170.023 71.6824L149.003 59.4414C148.666 59.2464 148.289 59.1464 147.91 59.1464L147.913 59.1439Z" fill="#231F20"/>
<path d="M154.843 35.5824L148.431 52.5763C147.903 53.9789 148.46 55.559 149.747 56.3091L173.985 70.4227C175.878 71.5253 178.303 70.6577 179.081 68.5951L185.494 51.6012C186.022 50.1986 185.464 48.6185 184.177 47.8684L159.94 33.7548C158.046 32.6522 155.622 33.5198 154.843 35.5824Z" fill="#FFF8E9"/>
<path d="M175.754 68.4773C175.556 68.4773 175.363 68.4248 175.187 68.3222L150.949 54.2086C150.684 54.0536 150.57 53.7311 150.679 53.4411L157.092 36.4472C157.3 35.8972 157.801 35.7021 158.167 35.7021C158.366 35.7021 158.557 35.7547 158.735 35.8572L182.973 49.9708C183.238 50.1258 183.352 50.4483 183.243 50.7383L176.83 67.7322C176.622 68.2822 176.121 68.4773 175.754 68.4773Z" fill="#F3C500"/>
<path d="M175.757 71.2774C175.075 71.2774 174.399 71.0974 173.796 70.7474L149.558 56.6337C148.103 55.7862 147.484 54.0235 148.081 52.4409L154.494 35.447C154.903 34.362 155.76 33.5144 156.846 33.1244C157.932 32.7343 159.127 32.8443 160.123 33.4269L184.361 47.5405C185.816 48.3881 186.436 50.1507 185.838 51.7333L179.426 68.7272C179.017 69.8123 178.159 70.6598 177.073 71.0499C176.644 71.2024 176.201 71.2799 175.757 71.2799V71.2774ZM155.188 35.7121L148.775 52.7059C148.309 53.9435 148.795 55.3211 149.93 55.9812L174.168 70.0948C174.976 70.5648 175.945 70.6549 176.825 70.3398C177.705 70.0248 178.399 69.3372 178.731 68.4572L185.147 51.4633C185.613 50.2257 185.127 48.8481 183.992 48.1881L159.754 34.0744C158.946 33.6044 157.977 33.5144 157.097 33.8294C156.217 34.1444 155.522 34.832 155.19 35.7121H155.188Z" fill="#231F20"/>
<path d="M164.498 62.0971L173.774 67.4975L169.468 42.1055L160.193 36.7051L164.498 62.0971Z" fill="#FAE899"/>
<path d="M175.754 68.8519C175.489 68.8519 175.234 68.7819 175.001 68.6444L150.763 54.5307C150.339 54.2832 150.156 53.7682 150.332 53.3056L156.745 36.3118C157.02 35.5817 157.684 35.3242 158.167 35.3242C158.433 35.3242 158.685 35.3942 158.921 35.5317L183.159 49.6454C183.585 49.8929 183.766 50.4079 183.59 50.8705L177.177 67.8643C176.902 68.5944 176.238 68.8519 175.754 68.8519ZM158.167 36.0743C157.919 36.0743 157.58 36.2068 157.439 36.5793L151.026 53.5732C150.981 53.6907 151.026 53.8207 151.135 53.8832L175.373 67.9968C175.494 68.0668 175.623 68.1018 175.754 68.1018C176.002 68.1018 176.342 67.9693 176.483 67.5968L182.896 50.6029C182.94 50.4854 182.896 50.3554 182.787 50.2929L158.549 36.1793C158.428 36.1093 158.299 36.0743 158.167 36.0743Z" fill="#231F20"/>
<g opacity="0.5">
<path d="M138.85 136.565L117.27 123.999C114.409 122.334 110.884 122.334 108.021 123.999L86.4408 136.565C85.1444 137.32 85.1444 139.208 86.4408 139.963L108.021 152.529C110.882 154.194 114.407 154.194 117.27 152.529L138.85 139.963C140.146 139.208 140.146 137.32 138.85 136.565Z" fill="#759BF0"/>
</g>
<path d="M102.09 97.8799L121.677 91.0618C126.451 89.3992 131.354 93.212 130.975 98.2924L128.865 122.049C128.794 123.019 127.99 123.772 127.026 123.772H121.704C120.73 123.772 119.924 123.007 119.862 122.027L119.082 108.736C119.052 108.216 118.487 107.916 118.043 108.181L103.113 117.146C99.4942 119.429 94.7969 116.806 94.7969 112.499V99.7175L102.087 97.8799H102.09Z" fill="#36760A"/>
<path d="M102.09 97.8799L121.677 91.0618C126.451 89.3992 131.354 93.212 130.975 98.2924L128.865 122.049C128.794 123.019 127.99 123.772 127.026 123.772H121.704C120.73 123.772 119.924 123.007 119.862 122.027L119.015 107.598L103.113 117.146C99.4942 119.429 94.7969 116.806 94.7969 112.499V99.7175L102.087 97.8799H102.09Z" fill="#A9C6FB"/>
<path d="M127.026 124.147H121.704C120.537 124.147 119.565 123.227 119.491 122.049L119.404 107.873L103.302 117.469C101.492 118.609 99.2909 118.669 97.417 117.621C95.543 116.574 94.425 114.659 94.425 112.498V99.4249L101.983 97.5198L121.556 90.7092C123.915 89.8867 126.508 90.3167 128.486 91.8543C130.464 93.392 131.533 95.8096 131.347 98.3223L129.237 122.087C129.151 123.242 128.179 124.149 127.026 124.149V124.147ZM120.143 106.565L120.234 122.024C120.281 122.784 120.928 123.397 121.704 123.397H127.026C127.792 123.397 128.439 122.792 128.496 122.022L130.606 98.2573C130.774 96.0022 129.812 93.827 128.033 92.4444C126.253 91.0618 123.923 90.6767 121.798 91.4143L102.179 98.2398L95.1687 100.007V112.496C95.1687 114.381 96.1453 116.049 97.7789 116.964C99.4124 117.876 101.333 117.826 102.917 116.826L120.14 106.563L120.143 106.565Z" fill="#231F20"/>
<path d="M129.193 127.705C129.193 127.705 134.748 125.195 136.426 126.655C138.104 128.115 138.686 132.14 131.914 135.118L122.225 138.561C121.283 138.896 120.244 138.806 119.372 138.318L118.888 138.048C118.427 137.791 118.14 137.298 118.14 136.765V132.248C118.14 131.528 118.608 130.892 119.292 130.687L129.193 127.707V127.705Z" fill="#759BF0"/>
<path d="M121.067 139.136C120.418 139.136 119.771 138.971 119.191 138.646L118.707 138.376C118.127 138.051 117.768 137.433 117.768 136.766V132.248C117.768 131.368 118.35 130.578 119.186 130.328L129.061 127.355C129.75 127.045 134.881 124.82 136.666 126.372C137.388 127 138.077 128.222 137.846 129.768C137.616 131.308 136.423 133.548 132.061 135.466L132.036 135.476L122.346 138.918C121.93 139.066 121.496 139.138 121.065 139.138L121.067 139.136ZM134.819 126.567C133.072 126.567 130.464 127.545 129.346 128.047L129.302 128.065L119.401 131.045C118.878 131.203 118.514 131.698 118.514 132.248V136.766C118.514 137.161 118.727 137.528 119.072 137.721L119.555 137.991C120.333 138.428 121.263 138.506 122.103 138.208L131.78 134.771C134.934 133.383 136.83 131.565 137.115 129.655C137.301 128.413 136.758 127.437 136.185 126.94C135.88 126.675 135.397 126.567 134.819 126.567Z" fill="#231F20"/>
<path d="M118.888 136.216L119.372 136.486C120.244 136.976 121.283 137.063 122.225 136.728L131.914 133.285C135.469 131.723 136.996 129.873 137.402 128.255C137.906 130.143 136.922 132.915 131.914 135.115L122.225 138.558C121.283 138.893 120.244 138.803 119.372 138.316L118.888 138.046C118.427 137.788 118.14 137.296 118.14 136.763V134.933C118.14 135.465 118.425 135.956 118.888 136.216Z" fill="white"/>
<path d="M121.067 139.136C120.418 139.136 119.771 138.971 119.193 138.645L118.71 138.375C118.13 138.05 117.77 137.433 117.77 136.765V134.935H118.514C118.514 135.33 118.727 135.698 119.072 135.89L119.555 136.16C120.333 136.598 121.263 136.675 122.103 136.378L131.78 132.94C135.496 131.305 136.684 129.482 137.023 128.245C137.07 128.072 137.226 127.952 137.405 127.952C137.405 127.952 137.41 127.952 137.412 127.952C137.593 127.955 137.747 128.08 137.789 128.257C138.027 129.252 138.317 132.715 132.066 135.463L132.041 135.473L122.351 138.916C121.935 139.063 121.501 139.136 121.07 139.136H121.067ZM118.511 136.418V136.765C118.511 137.16 118.725 137.528 119.069 137.72L119.553 137.99C120.331 138.428 121.26 138.505 122.101 138.208L131.778 134.77C135.548 133.11 136.733 131.25 137.043 129.932C136.262 131.102 134.792 132.433 132.063 133.633L132.038 133.643L122.349 137.085C121.308 137.455 120.155 137.358 119.191 136.815L118.707 136.545C118.638 136.508 118.573 136.465 118.511 136.418ZM137.739 128.442C137.739 128.442 137.739 128.442 137.739 128.445C137.739 128.445 137.739 128.445 137.739 128.442Z" fill="#231F20"/>
<path d="M125.021 123.191V128.322L126.201 128.444C126.682 128.494 126.863 129.107 126.486 129.414L123.132 132.142C122.118 132.967 120.715 133.107 119.563 132.497L118.184 131.875C118.184 131.255 118.621 130.722 119.223 130.605L120.17 130.419L120.073 123.191H125.023H125.021Z" fill="#EBC192"/>
<path d="M121.077 133.25C120.5 133.25 119.922 133.112 119.389 132.83L117.81 132.117V131.875C117.81 131.077 118.373 130.387 119.151 130.237L119.793 130.112L119.694 122.816H125.393V127.982L126.238 128.069C126.607 128.107 126.915 128.364 127.021 128.724C127.128 129.084 127.009 129.467 126.719 129.704L123.365 132.432C122.703 132.97 121.893 133.247 121.077 133.247V133.25ZM118.583 131.645L119.714 132.155C120.757 132.705 121.999 132.582 122.899 131.85L126.253 129.122C126.33 129.059 126.322 128.979 126.31 128.939C126.3 128.907 126.265 128.827 126.164 128.817L124.652 128.659V123.566H120.45L120.547 130.73L119.295 130.975C118.945 131.042 118.673 131.31 118.586 131.647L118.583 131.645Z" fill="#231F20"/>
<path d="M121.067 139.136C120.418 139.136 119.771 138.971 119.191 138.646L118.707 138.376C118.127 138.051 117.768 137.433 117.768 136.766V132.248C117.768 131.368 118.35 130.578 119.186 130.328L129.061 127.355C129.75 127.045 134.881 124.82 136.666 126.372C137.388 127 138.077 128.222 137.846 129.768C137.616 131.308 136.423 133.548 132.061 135.466L132.036 135.476L122.346 138.918C121.93 139.066 121.496 139.138 121.065 139.138L121.067 139.136ZM134.819 126.567C133.072 126.567 130.464 127.545 129.346 128.047L129.302 128.065L119.401 131.045C118.878 131.203 118.514 131.698 118.514 132.248V136.766C118.514 137.161 118.727 137.528 119.072 137.721L119.555 137.991C120.333 138.428 121.263 138.506 122.103 138.208L131.78 134.771C134.934 133.383 136.83 131.565 137.115 129.655C137.301 128.413 136.758 127.437 136.185 126.94C135.88 126.675 135.397 126.567 134.819 126.567Z" fill="#231F20"/>
<path d="M118.888 136.216L119.372 136.486C120.244 136.976 121.283 137.063 122.225 136.728L131.914 133.285C135.469 131.723 136.996 129.873 137.402 128.255C137.906 130.143 136.922 132.915 131.914 135.115L122.225 138.558C121.283 138.893 120.244 138.803 119.372 138.316L118.888 138.046C118.427 137.788 118.14 137.296 118.14 136.763V134.933C118.14 135.465 118.425 135.956 118.888 136.216Z" fill="white"/>
<path d="M121.067 139.136C120.418 139.136 119.771 138.971 119.193 138.645L118.71 138.375C118.13 138.05 117.77 137.433 117.77 136.765V134.935H118.514C118.514 135.33 118.727 135.698 119.072 135.89L119.555 136.16C120.333 136.598 121.263 136.675 122.103 136.378L131.78 132.94C135.496 131.305 136.684 129.482 137.023 128.245C137.07 128.072 137.226 127.952 137.405 127.952C137.405 127.952 137.41 127.952 137.412 127.952C137.593 127.955 137.747 128.08 137.789 128.257C138.027 129.252 138.317 132.715 132.066 135.463L132.041 135.473L122.351 138.916C121.935 139.063 121.501 139.136 121.07 139.136H121.067ZM118.511 136.418V136.765C118.511 137.16 118.725 137.528 119.069 137.72L119.553 137.99C120.331 138.428 121.26 138.505 122.101 138.208L131.778 134.77C135.548 133.11 136.733 131.25 137.043 129.932C136.262 131.102 134.792 132.433 132.063 133.633L132.038 133.643L122.349 137.085C121.308 137.455 120.155 137.358 119.191 136.815L118.707 136.545C118.638 136.508 118.573 136.465 118.511 136.418ZM137.739 128.442C137.739 128.442 137.739 128.442 137.739 128.445C137.739 128.445 137.739 128.445 137.739 128.442Z" fill="#231F20"/>
<path d="M125.021 123.191V128.322L126.201 128.444C126.682 128.494 126.863 129.107 126.486 129.414L123.132 132.142C122.118 132.967 120.715 133.107 119.563 132.497L118.184 131.875C118.184 131.255 118.621 130.722 119.223 130.605L120.17 130.419L120.073 123.191H125.023H125.021Z" fill="#EBC192"/>
<path d="M121.077 133.25C120.5 133.25 119.922 133.112 119.389 132.83L117.81 132.117V131.875C117.81 131.077 118.373 130.387 119.151 130.237L119.793 130.112L119.694 122.816H125.393V127.982L126.238 128.069C126.607 128.107 126.915 128.364 127.021 128.724C127.128 129.084 127.009 129.467 126.719 129.704L123.365 132.432C122.703 132.97 121.893 133.247 121.077 133.247V133.25ZM118.583 131.645L119.714 132.155C120.757 132.705 121.999 132.582 122.899 131.85L126.253 129.122C126.33 129.059 126.322 128.979 126.31 128.939C126.3 128.907 126.265 128.827 126.164 128.817L124.652 128.659V123.566H120.45L120.547 130.73L119.295 130.975C118.945 131.042 118.673 131.31 118.586 131.647L118.583 131.645Z" fill="#231F20"/>
<path d="M82.4128 154.654C83.1316 154.654 83.7835 154.156 83.9571 153.419L91.5967 103.632C91.8223 102.662 92.4346 101.81 93.2798 101.295L98.2449 98.2569C99.2091 97.6668 100.369 97.5518 101.428 97.9394C102.486 98.3269 103.302 99.167 103.666 100.242L114.275 134.162C114.558 135 115.46 135.445 116.288 135.16C117.118 134.875 117.56 133.965 117.277 133.13L106.668 99.2095C105.991 97.2118 104.477 95.6517 102.508 94.9316C100.54 94.2116 98.3862 94.4241 96.5965 95.5192L91.6314 98.5569C90.0623 99.517 88.9246 101.1 88.5032 102.9L80.8635 152.686C80.6627 153.546 81.1932 154.409 82.0459 154.609C82.1674 154.639 82.2888 154.651 82.4103 154.651L82.4128 154.654Z" fill="#231F20"/>
<path d="M142.167 135.145C142.167 135.145 147.722 132.635 149.4 134.095C151.078 135.555 151.661 139.581 144.888 142.558L135.199 146.001C134.257 146.336 133.218 146.246 132.346 145.759L131.862 145.488C131.401 145.231 131.114 144.738 131.114 144.206V139.688C131.114 138.968 131.582 138.333 132.266 138.128L142.167 135.148V135.145Z" fill="#759BF0"/>
<path d="M134.041 146.576C133.392 146.576 132.745 146.411 132.167 146.086L131.684 145.816C131.104 145.491 130.744 144.876 130.744 144.206V139.688C130.744 138.808 131.327 138.018 132.162 137.768L142.038 134.795C142.727 134.485 147.86 132.263 149.643 133.813C150.364 134.44 151.053 135.663 150.823 137.208C150.592 138.748 149.4 140.986 145.037 142.903L145.012 142.913L135.323 146.356C134.906 146.504 134.472 146.576 134.041 146.576ZM147.794 134.008C146.046 134.008 143.438 134.985 142.32 135.488L142.276 135.505L132.375 138.486C131.852 138.643 131.488 139.138 131.488 139.688V144.206C131.488 144.601 131.701 144.969 132.046 145.161L132.529 145.431C133.307 145.869 134.237 145.946 135.077 145.649L144.755 142.211C147.908 140.823 149.804 139.006 150.089 137.095C150.275 135.853 149.732 134.878 149.159 134.38C148.854 134.115 148.371 134.008 147.794 134.008Z" fill="#231F20"/>
<path d="M131.862 143.658L132.346 143.928C133.218 144.418 134.257 144.505 135.199 144.17L144.888 140.728C148.443 139.165 149.97 137.315 150.377 135.697C150.88 137.585 149.896 140.358 144.888 142.558L135.199 146.001C134.257 146.336 133.218 146.246 132.346 145.758L131.862 145.488C131.401 145.231 131.114 144.738 131.114 144.205V142.375C131.114 142.908 131.401 143.398 131.862 143.658Z" fill="white"/>
<path d="M134.041 146.576C133.392 146.576 132.745 146.411 132.167 146.086L131.684 145.816C131.104 145.491 130.744 144.873 130.744 144.206V142.376H131.488C131.488 142.773 131.701 143.138 132.046 143.331L132.529 143.601C133.31 144.038 134.237 144.116 135.077 143.818L144.755 140.38C148.47 138.745 149.658 136.923 149.997 135.685C150.044 135.51 150.203 135.393 150.384 135.393C150.565 135.395 150.719 135.52 150.761 135.698C150.999 136.693 151.289 140.155 145.037 142.903L145.012 142.913L135.323 146.356C134.906 146.503 134.472 146.576 134.041 146.576ZM131.488 143.858V144.206C131.488 144.601 131.701 144.968 132.046 145.161L132.529 145.433C133.307 145.871 134.237 145.948 135.077 145.651L144.755 142.213C148.525 140.553 149.71 138.693 150.02 137.375C149.241 138.545 147.769 139.875 145.04 141.076L145.015 141.086L135.325 144.528C134.284 144.898 133.134 144.801 132.167 144.258L131.684 143.988C131.614 143.951 131.55 143.908 131.488 143.861V143.858ZM150.716 135.883C150.716 135.883 150.716 135.883 150.716 135.885C150.716 135.885 150.716 135.885 150.716 135.883Z" fill="#231F20"/>
<path d="M137.995 130.635V135.765L139.175 135.888C139.656 135.938 139.836 136.55 139.46 136.858L136.106 139.585C135.092 140.411 133.689 140.551 132.536 139.94L131.158 139.318C131.158 138.698 131.594 138.165 132.197 138.048L133.144 137.863L133.047 130.635H137.997H137.995Z" fill="#EBC192"/>
<path d="M134.051 140.69C133.473 140.69 132.893 140.553 132.363 140.27L130.784 139.558V139.315C130.784 138.517 131.347 137.827 132.122 137.677L132.764 137.552L132.665 130.257H138.364V135.422L139.209 135.51C139.579 135.547 139.886 135.805 139.993 136.165C140.099 136.525 139.98 136.91 139.69 137.145L136.336 139.873C135.675 140.41 134.864 140.688 134.049 140.688L134.051 140.69ZM131.557 139.085L132.688 139.595C133.731 140.145 134.973 140.023 135.873 139.29L139.227 136.562C139.306 136.497 139.294 136.412 139.284 136.38C139.271 136.34 139.237 136.267 139.137 136.257L137.623 136.1V131.007H133.421L133.518 138.17L132.266 138.415C131.917 138.482 131.644 138.75 131.557 139.088V139.085Z" fill="#231F20"/>
<path d="M134.041 146.576C133.392 146.576 132.745 146.411 132.167 146.086L131.684 145.816C131.104 145.491 130.744 144.876 130.744 144.206V139.688C130.744 138.808 131.327 138.018 132.162 137.768L142.038 134.795C142.727 134.485 147.86 132.263 149.643 133.813C150.364 134.44 151.053 135.663 150.823 137.208C150.592 138.748 149.4 140.986 145.037 142.903L145.012 142.913L135.323 146.356C134.906 146.504 134.472 146.576 134.041 146.576ZM147.794 134.008C146.046 134.008 143.438 134.985 142.32 135.488L142.276 135.505L132.375 138.486C131.852 138.643 131.488 139.138 131.488 139.688V144.206C131.488 144.601 131.701 144.969 132.046 145.161L132.529 145.431C133.307 145.869 134.237 145.946 135.077 145.649L144.755 142.211C147.908 140.823 149.804 139.006 150.089 137.095C150.275 135.853 149.732 134.878 149.159 134.38C148.854 134.115 148.371 134.008 147.794 134.008Z" fill="#231F20"/>
<path d="M131.862 143.658L132.346 143.928C133.218 144.418 134.257 144.505 135.199 144.17L144.888 140.728C148.443 139.165 149.97 137.315 150.377 135.697C150.88 137.585 149.896 140.358 144.888 142.558L135.199 146.001C134.257 146.336 133.218 146.246 132.346 145.758L131.862 145.488C131.401 145.231 131.114 144.738 131.114 144.205V142.375C131.114 142.908 131.401 143.398 131.862 143.658Z" fill="white"/>
<path d="M134.041 146.576C133.392 146.576 132.745 146.411 132.167 146.086L131.684 145.816C131.104 145.491 130.744 144.873 130.744 144.206V142.376H131.488C131.488 142.773 131.701 143.138 132.046 143.331L132.529 143.601C133.31 144.038 134.237 144.116 135.077 143.818L144.755 140.38C148.47 138.745 149.658 136.923 149.997 135.685C150.044 135.51 150.203 135.393 150.384 135.393C150.565 135.395 150.719 135.52 150.761 135.698C150.999 136.693 151.289 140.155 145.037 142.903L145.012 142.913L135.323 146.356C134.906 146.503 134.472 146.576 134.041 146.576ZM131.488 143.858V144.206C131.488 144.601 131.701 144.968 132.046 145.161L132.529 145.433C133.307 145.871 134.237 145.948 135.077 145.651L144.755 142.213C148.525 140.553 149.71 138.693 150.02 137.375C149.241 138.545 147.769 139.875 145.04 141.076L145.015 141.086L135.325 144.528C134.284 144.898 133.134 144.801 132.167 144.258L131.684 143.988C131.614 143.951 131.55 143.908 131.488 143.861V143.858ZM150.716 135.883C150.716 135.883 150.716 135.883 150.716 135.885C150.716 135.885 150.716 135.885 150.716 135.883Z" fill="#231F20"/>
<path d="M137.995 130.635V135.765L139.175 135.888C139.656 135.938 139.836 136.55 139.46 136.858L136.106 139.585C135.092 140.411 133.689 140.551 132.536 139.94L131.158 139.318C131.158 138.698 131.594 138.165 132.197 138.048L133.144 137.863L133.047 130.635H137.997H137.995Z" fill="#EBC192"/>
<path d="M134.051 140.69C133.473 140.69 132.893 140.553 132.363 140.27L130.784 139.558V139.315C130.784 138.517 131.347 137.827 132.122 137.677L132.764 137.552L132.665 130.257H138.364V135.422L139.209 135.51C139.579 135.547 139.886 135.805 139.993 136.165C140.099 136.525 139.98 136.91 139.69 137.145L136.336 139.873C135.675 140.41 134.864 140.688 134.049 140.688L134.051 140.69ZM131.557 139.085L132.688 139.595C133.731 140.145 134.973 140.023 135.873 139.29L139.227 136.562C139.306 136.497 139.294 136.412 139.284 136.38C139.271 136.34 139.237 136.267 139.137 136.257L137.623 136.1V131.007H133.421L133.518 138.17L132.266 138.415C131.917 138.482 131.644 138.75 131.557 139.088V139.085Z" fill="#231F20"/>
<path d="M85.5062 118.776L85.469 116.071H88.8253L108.021 104.892C110.882 103.227 114.407 103.227 117.27 104.892L137.839 116.871H139.822V119.159C139.822 119.819 139.497 120.479 138.85 120.856L117.27 133.422C114.409 135.087 110.884 135.087 108.021 133.422L86.4407 120.856C85.6673 120.406 85.3574 119.551 85.5087 118.776H85.5062Z" fill="#231F20"/>
<path d="M112.647 135.043C110.983 135.043 109.32 134.61 107.838 133.748L86.2573 121.179C85.4071 120.684 84.9708 119.739 85.1369 118.761L85.0947 115.694H88.7286L107.838 104.565C110.805 102.838 114.491 102.838 117.458 104.565L137.94 116.494H140.196V119.156C140.196 120.001 139.762 120.757 139.038 121.179L117.458 133.748C115.976 134.613 114.312 135.043 112.649 135.043H112.647ZM85.8731 118.424L85.9549 118.429L85.8731 118.846C85.7417 119.526 86.0367 120.187 86.6266 120.529L108.207 133.098C110.944 134.693 114.345 134.693 117.084 133.098L138.664 120.529C139.157 120.242 139.45 119.729 139.45 119.154V117.241H137.739L137.653 117.191L117.084 105.213C114.347 103.618 110.946 103.62 108.207 105.213L88.9245 116.441H85.8458L85.8731 118.421V118.424Z" fill="#231F20"/>
<path d="M138.85 115.171L117.27 102.605C114.409 100.94 110.884 100.94 108.021 102.605L86.4408 115.171C85.1444 115.926 85.1444 117.814 86.4408 118.569L108.021 131.135C110.882 132.8 114.407 132.8 117.27 131.135L138.85 118.569C140.146 117.814 140.146 115.926 138.85 115.171Z" fill="#F3C500"/>
<path d="M112.647 132.757C110.983 132.757 109.32 132.324 107.838 131.462L86.2572 118.893C85.5309 118.471 85.0996 117.716 85.0996 116.871C85.0996 116.026 85.5334 115.271 86.2572 114.848L107.838 102.282C110.805 100.554 114.491 100.554 117.458 102.282L139.038 114.851C139.765 115.273 140.196 116.028 140.196 116.873C140.196 117.718 139.762 118.473 139.038 118.896L117.458 131.462C115.976 132.327 114.312 132.757 112.649 132.757H112.647ZM112.647 101.735C111.112 101.735 109.578 102.132 108.209 102.93L86.629 115.496C86.1358 115.783 85.8432 116.296 85.8432 116.871C85.8432 117.446 86.1382 117.958 86.629 118.246L108.209 130.814C110.946 132.409 114.347 132.409 117.086 130.814L138.666 118.248C139.16 117.961 139.452 117.448 139.452 116.873C139.452 116.298 139.157 115.786 138.666 115.498L117.086 102.93C115.718 102.132 114.183 101.735 112.649 101.735H112.647Z" fill="#231F20"/>
<path d="M113.43 104.74L133.017 97.9222C137.791 96.2595 142.695 100.072 142.315 105.153L140.206 128.91C140.134 129.88 139.331 130.632 138.367 130.632H133.045C132.07 130.632 131.265 129.867 131.203 128.887L130.422 115.596C130.392 115.076 129.827 114.776 129.383 115.041L114.454 124.007C110.835 126.289 106.137 123.667 106.137 119.359V106.578L113.427 104.74H113.43Z" fill="#36760A"/>
<path d="M113.43 104.74L133.017 97.9222C137.791 96.2595 142.695 100.072 142.315 105.153L140.206 128.91C140.134 129.88 139.331 130.632 138.367 130.632H133.045C132.07 130.632 131.265 129.867 131.203 128.887L130.355 114.458L114.454 124.007C110.835 126.289 106.137 123.667 106.137 119.359V106.578L113.427 104.74H113.43Z" fill="#A9C6FB"/>
<path d="M138.367 131.01H133.045C131.877 131.01 130.905 130.09 130.831 128.912L130.744 114.736L114.642 124.332C112.835 125.472 110.631 125.532 108.757 124.484C106.883 123.437 105.765 121.522 105.765 119.361V106.288L113.323 104.383L132.896 97.5721C135.258 96.7495 137.848 97.1771 139.827 98.7172C141.805 100.255 142.873 102.673 142.687 105.185L140.578 128.95C140.491 130.105 139.522 131.012 138.367 131.012V131.01ZM131.483 113.428L131.575 128.887C131.622 129.647 132.269 130.26 133.045 130.26H138.367C139.133 130.26 139.779 129.655 139.836 128.885L141.946 105.12C142.115 102.865 141.153 100.692 139.373 99.3072C137.593 97.9246 135.263 97.5396 133.139 98.2772L113.519 105.103L106.509 106.87V119.359C106.509 121.244 107.486 122.912 109.119 123.827C110.753 124.739 112.674 124.689 114.258 123.689L131.48 113.426L131.483 113.428Z" fill="#231F20"/>
<path d="M108.634 123.972L96.2321 116.706C93.85 115.311 92.385 112.743 92.385 109.968V101.585L111.482 107.843L108.634 123.972Z" fill="#A9C6FB"/>
<path d="M108.448 124.296L96.0462 117.033C93.5599 115.576 92.0156 112.87 92.0156 109.97V101.587H92.7593V109.97C92.7593 112.605 94.1623 115.063 96.4205 116.386L108.822 123.649L108.448 124.296Z" fill="#231F20"/>
<path d="M117.076 70.9446L135.652 68.2293L139.442 66.4817C140.27 66.0992 141.215 66.0567 142.072 66.3667C144.174 67.1243 147.945 68.6069 147.63 69.3669C147.283 70.207 144.385 69.5919 143.235 69.3119C142.93 69.2369 142.608 69.2844 142.333 69.4394L141.837 69.722C141.606 69.852 141.564 70.167 141.75 70.3545L142.335 70.9446H143.287C143.617 70.9446 143.875 71.2271 143.85 71.5571C143.827 71.8546 143.582 72.0821 143.287 72.0821H139.286L137.298 70.8571L119.347 78.1051L117.074 70.9446H117.076Z" fill="#EBC192"/>
<path d="M119.116 78.6052L116.588 70.6395L135.546 67.8693L139.286 66.1442C140.211 65.7167 141.245 65.6716 142.196 66.0167C147.491 67.9268 147.843 68.7294 147.957 68.9919C148.056 69.2169 148.019 69.3994 147.972 69.5145C147.848 69.817 147.469 70.7345 143.148 69.6795C142.935 69.627 142.709 69.6595 142.516 69.7695L142.02 70.052L141.753 70.357L142.015 70.092L142.491 70.572H143.29C143.55 70.572 143.8 70.682 143.976 70.8746C144.152 71.0671 144.244 71.3271 144.222 71.5896C144.184 72.0772 143.775 72.4622 143.29 72.4622H139.185L137.266 71.2796L119.116 78.6077V78.6052ZM117.565 71.2546L119.582 77.6101L137.335 70.442L139.393 71.7096H143.287C143.386 71.7096 143.47 71.6321 143.478 71.5296C143.483 71.4546 143.448 71.4046 143.428 71.3821C143.406 71.3596 143.361 71.3196 143.287 71.3196H142.182L141.487 70.622C141.316 70.4495 141.235 70.2095 141.269 69.967C141.302 69.7245 141.443 69.5169 141.654 69.3969L142.149 69.1144C142.509 68.9119 142.923 68.8519 143.322 68.9494C145.957 69.592 147.07 69.4494 147.261 69.2594C147.082 68.9494 145.796 68.1093 141.946 66.7217C141.178 66.4442 140.342 66.4817 139.596 66.8242L135.759 68.5944L135.707 68.6019L117.567 71.2521L117.565 71.2546Z" fill="#231F20"/>
<path d="M119.087 104.737L120.257 79.2977C120.787 75.0423 119.01 70.8395 115.73 68.5968L108.529 63.6739C103.207 60.0361 96.3635 64.249 96.2693 71.2195L95.9272 99.9243C95.9272 99.9243 102.893 112.683 119.089 104.735L119.087 104.737Z" fill="#F3C500"/>
<path d="M109.087 107.705C105.751 107.705 103.14 106.74 101.247 105.638C97.4341 103.415 95.6717 100.242 95.5998 100.107L95.5527 100.02L95.8973 71.2149C95.9469 67.6096 97.7985 64.4143 100.731 62.8692C103.309 61.5141 106.303 61.6966 108.737 63.3617L115.938 68.2846C119.332 70.6048 121.171 74.9377 120.626 79.328L119.446 104.975L119.248 105.073C115.324 106.998 111.938 107.703 109.085 107.703L109.087 107.705ZM96.2988 99.8271C96.6013 100.335 98.3364 103.082 101.648 105.005C106.477 107.805 112.223 107.635 118.725 104.498L119.887 79.253C120.403 75.1352 118.687 71.0749 115.522 68.9097L108.321 63.9868C106.083 62.4567 103.44 62.2942 101.075 63.5368C98.386 64.9519 96.6855 67.8996 96.6409 71.2249L96.2988 99.8271Z" fill="#231F20"/>
<path d="M115.512 72.873L116.752 70.9453L128.806 83.5313C129.659 84.2364 129.83 85.484 129.203 86.399L124.924 92.627C124.275 93.5721 122.998 93.8296 122.039 93.2071L110.317 85.0539L115.515 72.873H115.512Z" fill="#F3C500"/>
<path d="M123.186 93.9241C122.725 93.9241 122.257 93.7941 121.838 93.5215L114.473 88.1461L114.91 87.5386L122.257 92.9015C123.035 93.4065 124.081 93.1965 124.619 92.4114L128.898 86.1809C129.411 85.4334 129.267 84.3958 128.57 83.8183L128.533 83.7833L118.992 73.3249L119.54 72.8174L129.064 83.2582C130.038 84.0858 130.236 85.5509 129.51 86.611L125.231 92.839C124.748 93.544 123.977 93.9241 123.189 93.9241H123.186Z" fill="#231F20"/>
<path d="M129.579 85.8485L133.808 88.1462L144.593 81.3657V75.9803C144.593 75.5227 144.963 75.1502 145.416 75.1502C145.798 75.1502 146.13 75.4152 146.217 75.7927L146.371 76.4603C146.529 77.1453 147.265 77.5204 147.905 77.2404L148.525 76.9703C149.053 76.7403 149.434 76.2653 149.556 75.6977C149.638 75.3177 149.695 74.8752 149.653 74.4676C149.61 74.0726 150.009 73.7826 150.376 73.9276C151.983 74.5626 154.647 76.1453 153.274 79.353C152.082 82.1432 150.446 82.9533 149.387 83.1683C148.584 83.3308 147.878 83.8109 147.384 84.4709L136.349 95.3568C135.186 96.9094 133.116 97.447 131.357 96.6519L124.927 92.6291L129.582 85.851L129.579 85.8485Z" fill="#EBC192"/>
<path d="M132.846 97.5642C132.224 97.5642 131.595 97.4342 130.995 97.1641L130.94 97.1341L124.401 92.7288L129.478 85.3357L133.05 87.7059L144.217 81.1529V75.9824C144.217 75.3174 144.752 74.7773 145.411 74.7773C145.969 74.7773 146.448 75.1599 146.574 75.7074L146.728 76.375C146.777 76.5925 146.921 76.775 147.119 76.8775C147.318 76.9775 147.548 76.985 147.751 76.895L148.371 76.625C148.785 76.445 149.09 76.0674 149.187 75.6199C149.278 75.1899 149.308 74.8173 149.276 74.5073C149.244 74.1948 149.373 73.8948 149.62 73.7023C149.876 73.5072 150.205 73.4597 150.505 73.5772C151.658 74.0323 153.158 74.8824 153.758 76.3375C154.149 77.2875 154.1 78.3501 153.606 79.5002C152.372 82.3879 150.666 83.288 149.452 83.533C148.758 83.6731 148.126 84.0856 147.672 84.6931L147.635 84.7356L136.413 95.7715C135.536 96.9291 134.21 97.5617 132.841 97.5617L132.846 97.5642ZM131.327 96.4916C132.933 97.2016 134.785 96.7116 135.843 95.299L135.88 95.2565L147.102 84.2206C147.665 83.478 148.448 82.9755 149.311 82.8005C150.349 82.5905 151.822 81.7954 152.927 79.2052C153.336 78.2476 153.386 77.3826 153.073 76.6275C152.573 75.4149 151.254 74.6798 150.235 74.2773C150.156 74.2448 150.096 74.2823 150.074 74.2998C150.044 74.3223 150.01 74.3623 150.017 74.4298C150.057 74.8173 150.022 75.2724 149.915 75.7774C149.769 76.4625 149.303 77.0375 148.669 77.315L148.049 77.5851C147.642 77.7626 147.181 77.7501 146.785 77.5476C146.388 77.3475 146.103 76.9825 146.004 76.545L145.85 75.8774C145.803 75.6699 145.622 75.5249 145.411 75.5249C145.164 75.5249 144.96 75.7299 144.96 75.9799V81.5829L133.025 88.5884L129.674 86.3658L125.44 92.5288L131.322 96.4941L131.327 96.4916Z" fill="#231F20"/>
<path d="M114.479 65.5348L113.366 67.4399C112.838 68.345 111.871 68.9001 110.827 68.8926C109.236 68.8826 106.983 68.3275 105.716 65.6198C105.317 64.7672 105.411 63.7621 105.922 62.9721L108.574 58.8643L114.479 65.5348Z" fill="#EBC192"/>
<path d="M110.849 69.2674H110.827C109.082 69.2549 106.722 68.6398 105.381 65.7796C104.937 64.8295 105.024 63.6745 105.612 62.7669L108.529 58.249L114.939 65.4896L113.69 67.6298C113.1 68.6424 112.014 69.2674 110.852 69.2674H110.849ZM108.621 59.4791L106.234 63.1769C105.788 63.8695 105.718 64.7445 106.053 65.4596C107.228 67.9673 109.3 68.5073 110.83 68.5173H110.847C111.747 68.5173 112.587 68.0323 113.043 67.2497L114.017 65.5821L108.616 59.4816L108.621 59.4791Z" fill="#231F20"/>
<path d="M108.574 64.4897L114.478 65.5348C117.78 66.1198 120.807 63.5571 120.807 60.1744V53.4763C120.807 51.7612 119.429 50.3711 117.728 50.3711H111.653C109.952 50.3711 108.574 51.7612 108.574 53.4763V64.4897Z" fill="#EBC192"/>
<path d="M115.418 65.9924C115.086 65.9924 114.749 65.9624 114.416 65.9049L113.931 65.8199L114.06 65.0798L114.545 65.1648C116.01 65.4248 117.505 65.0198 118.645 64.0547C119.786 63.0896 120.437 61.6745 120.437 60.1744V53.4764C120.437 51.9713 119.223 50.7462 117.731 50.7462H111.655C110.163 50.7462 108.948 51.9713 108.948 53.4764H108.205C108.205 51.5562 109.751 49.9961 111.655 49.9961H117.731C119.634 49.9961 121.181 51.5587 121.181 53.4764V60.1744C121.181 61.897 120.43 63.5222 119.121 64.6298C118.073 65.5173 116.761 65.9924 115.418 65.9924Z" fill="#231F20"/>
<path d="M109.563 64.6641L114.055 65.1216L114.481 65.5341L113.368 67.4393C113.103 67.8943 112.723 68.2618 112.282 68.5144L109.563 64.6641Z" fill="#231F20"/>
<path d="M118.95 104.737C118.546 104.915 116.117 105.83 115.725 105.985L114.506 88.1436L119.525 91.4863L118.948 104.735L118.95 104.737Z" fill="#231F20"/>
<path d="M80.9749 76.1706L82.9455 75.123C84.0635 74.303 85.6177 74.1054 86.986 74.898L106.841 86.3939C110.535 88.5316 112.813 92.5019 112.813 96.7973V113.759C112.813 115.406 111.801 116.701 110.47 117.241L108.576 118.314L107.944 117.324C107.719 117.249 107.493 117.149 107.272 117.024L87.4718 105.768C83.7313 103.643 81.4186 99.6475 81.4186 95.3171V78.1483C81.4186 77.9233 81.4384 77.7057 81.4756 77.4932L80.9724 76.1706H80.9749Z" fill="#231F20"/>
<path d="M108.455 118.812L107.701 117.634C107.491 117.556 107.285 117.461 107.092 117.349L87.291 106.093C83.4414 103.905 81.0494 99.7751 81.0494 95.3172V78.1483C81.0494 77.9483 81.0643 77.7433 81.094 77.5358L80.509 75.9957L82.7499 74.8056C84.0711 73.848 85.7641 73.7605 87.172 74.5756L107.027 86.0715C110.827 88.2717 113.187 92.382 113.187 96.7998V113.761C113.187 115.446 112.186 116.944 110.634 117.581L108.455 118.814V118.812ZM81.4411 76.3482L81.8625 77.4583L81.8451 77.5608C81.8104 77.7633 81.793 77.9583 81.793 78.1509V95.3197C81.793 99.5076 84.0388 103.385 87.6579 105.443L107.459 116.699C107.649 116.806 107.853 116.899 108.063 116.969L108.187 117.011L108.703 117.817L110.336 116.896C111.618 116.379 112.446 115.149 112.446 113.764V96.8023C112.446 92.652 110.23 88.7917 106.66 86.724L86.8052 75.2281C85.6476 74.5581 84.2545 74.6356 83.1688 75.4306L83.1242 75.4581L81.4435 76.3507L81.4411 76.3482Z" fill="#231F20"/>
<path d="M110.498 98.0754V115.037C110.498 117.904 107.434 119.71 104.957 118.302L85.1567 107.046C81.4162 104.921 79.1035 100.926 79.1035 96.5953V79.4264C79.1035 76.5462 82.1921 74.741 84.6684 76.1762L104.524 87.6721C108.217 89.8097 110.495 93.7801 110.495 98.0754H110.498Z" fill="#F19CD9"/>
<path d="M106.782 119.164C106.093 119.164 105.404 118.984 104.774 118.627L84.9733 107.371C81.1237 105.181 78.7317 101.053 78.7317 96.5951V79.4263C78.7317 77.9387 79.4952 76.6036 80.7717 75.8585C82.0483 75.1134 83.5753 75.1084 84.8543 75.851L104.71 87.3469C108.51 89.5471 110.869 93.6574 110.869 98.0753V115.037C110.869 116.519 110.113 117.849 108.844 118.597C108.2 118.977 107.491 119.167 106.782 119.167V119.164ZM82.8192 76.0485C82.2441 76.0485 81.6666 76.201 81.1436 76.5085C80.1 77.1186 79.4753 78.2087 79.4753 79.4263V96.5951C79.4753 100.783 81.7211 104.661 85.3402 106.718L105.141 117.974C106.187 118.569 107.431 118.559 108.47 117.949C109.508 117.337 110.128 116.249 110.128 115.037V98.0753C110.128 93.9249 107.912 90.0646 104.343 87.997L84.4875 76.501C83.9669 76.1985 83.3943 76.0485 82.8217 76.0485H82.8192Z" fill="#231F20"/>
<path d="M101.601 133.08C102.417 133.08 103.235 132.875 103.986 132.465L105.223 131.79C105.939 131.4 106.204 130.497 105.818 129.775C105.431 129.052 104.534 128.785 103.82 129.175L102.583 129.85C101.928 130.207 101.187 130.19 100.55 129.807C99.9106 129.425 99.5462 128.775 99.5462 128.025V98.5023C99.5462 97.6797 98.8868 97.0146 98.0713 97.0146C97.2558 97.0146 96.5964 97.6797 96.5964 98.5023V128.025C96.5964 129.822 97.5111 131.445 99.0405 132.362C99.8362 132.84 100.719 133.08 101.601 133.08Z" fill="#231F20"/>
<path d="M91.5298 127.442C92.3454 127.442 93.1634 127.237 93.9144 126.827L95.1514 126.152C95.8677 125.762 96.133 124.86 95.7463 124.137C95.3596 123.415 94.4623 123.147 93.7484 123.537L92.5114 124.212C91.857 124.57 91.1184 124.555 90.4788 124.17C89.8393 123.787 89.4749 123.137 89.4749 122.387V92.8646C89.4749 92.042 88.8156 91.377 88 91.377C87.1845 91.377 86.5251 92.042 86.5251 92.8646V122.387C86.5251 124.185 87.4398 125.807 88.9692 126.725C89.7649 127.202 90.6474 127.442 91.5298 127.442Z" fill="#231F20"/>
<mask id="mask0_635_204" style="mask-type:luminance" maskUnits="userSpaceOnUse" x="129" y="105" width="14" height="26">
<path d="M142.001 105.388L139.891 129.145C139.819 130.115 139.016 130.867 138.052 130.867H132.73C131.756 130.867 130.95 130.102 130.888 129.122L129.721 114.848L134.46 112.446C137.296 110.946 141.983 105.578 142.001 105.388Z" fill="white"/>
</mask>
<g mask="url(#mask0_635_204)">
<path d="M138.535 115.406L116.955 102.84C114.094 101.175 110.57 101.175 107.707 102.84L86.1261 115.406C84.8297 116.161 84.8297 118.048 86.1261 118.803L107.707 131.369C110.567 133.035 114.092 133.035 116.955 131.369L138.535 118.803C139.832 118.048 139.832 116.161 138.535 115.406Z" fill="#F3C500"/>
<path d="M85.1915 118.946L85.1543 116.241H88.5106L107.706 105.062C110.567 103.397 114.092 103.397 116.955 105.062L137.524 117.041H139.507V119.328C139.507 119.989 139.182 120.649 138.535 121.026L116.955 133.592C114.094 135.257 110.569 135.257 107.706 133.592L86.126 121.026C85.3526 120.576 85.0428 119.721 85.194 118.946H85.1915Z" fill="#231F20"/>
<path d="M112.332 135.215C110.669 135.215 109.005 134.782 107.523 133.92L85.9426 121.354C85.0924 120.859 84.6561 119.914 84.8222 118.936L84.78 115.868H88.414L107.523 104.74C110.49 103.012 114.176 103.012 117.143 104.74L137.626 116.669H139.881V119.331C139.881 120.176 139.447 120.931 138.724 121.354L117.143 133.92C115.661 134.785 113.998 135.215 112.334 135.215H112.332ZM85.5584 118.571H85.6476L85.5609 119.019C85.4295 119.699 85.7245 120.359 86.3144 120.701L107.895 133.267C110.631 134.862 114.032 134.862 116.771 133.267L138.352 120.701C138.845 120.414 139.138 119.901 139.138 119.326V117.414H137.425L137.338 117.364L116.769 105.385C114.032 103.79 110.631 103.792 107.892 105.385L88.6098 116.614H85.5311L85.5584 118.569V118.571Z" fill="#231F20"/>
<path d="M138.535 115.341L116.955 102.775C114.094 101.11 110.57 101.11 107.707 102.775L86.1261 115.341C84.8297 116.096 84.8297 117.984 86.1261 118.739L107.707 131.305C110.567 132.97 114.092 132.97 116.955 131.305L138.535 118.739C139.832 117.984 139.832 116.096 138.535 115.341Z" fill="#F3C500"/>
<path d="M112.332 132.927C110.669 132.927 109.006 132.495 107.523 131.632L85.9428 119.066C85.2165 118.644 84.7852 117.889 84.7852 117.044C84.7852 116.199 85.2189 115.443 85.9428 115.021L107.523 102.455C110.49 100.727 114.176 100.727 117.143 102.455L138.724 115.021C139.45 115.443 139.881 116.199 139.881 117.044C139.881 117.889 139.448 118.644 138.724 119.066L117.143 131.635C115.661 132.5 113.998 132.93 112.335 132.93L112.332 132.927ZM112.332 101.905C110.798 101.905 109.263 102.302 107.895 103.1L86.3146 115.666C85.8213 115.953 85.5288 116.466 85.5288 117.041C85.5288 117.616 85.8238 118.129 86.3146 118.416L107.895 130.982C110.632 132.577 114.033 132.577 116.772 130.982L138.352 118.414C138.845 118.126 139.138 117.614 139.138 117.039C139.138 116.464 138.843 115.951 138.352 115.663L116.772 103.097C115.403 102.3 113.869 101.902 112.335 101.902L112.332 101.905Z" fill="#231F20"/>
</g>
<path d="M109.563 169.741C110.282 169.741 110.934 169.243 111.107 168.506L118.747 118.719C118.972 117.749 119.585 116.897 120.43 116.382L125.395 113.344C126.359 112.754 127.519 112.639 128.578 113.026C129.636 113.414 130.452 114.254 130.816 115.329L141.425 149.249C141.708 150.087 142.61 150.532 143.438 150.247C144.269 149.962 144.71 149.052 144.427 148.217L133.818 114.296C133.141 112.299 131.627 110.739 129.659 110.019C127.69 109.298 125.536 109.511 123.747 110.606L118.782 113.644C117.212 114.604 116.075 116.187 115.653 117.987L108.014 167.773C107.813 168.633 108.343 169.496 109.196 169.696C109.318 169.726 109.439 169.738 109.56 169.738L109.563 169.741Z" fill="#231F20"/>
<path d="M135.687 111.472L126.26 116.538L126.61 117.2L136.036 112.134L135.687 111.472Z" fill="#231F20"/>
<path d="M115.309 57.1017C114.897 57.1842 114.434 57.2742 114.203 57.6268C114.047 57.8668 114.042 58.1743 114.042 58.4643C114.047 62.1721 114.052 65.8799 114.057 69.5877C114.057 70.2478 114.01 71.0128 113.479 71.4004C113.068 71.7004 112.508 71.6579 112.002 71.5954C109.699 71.3129 107.411 70.8978 105.156 70.3528C104.566 70.2103 103.951 70.0453 103.507 69.6277C102.838 68.9977 102.739 67.9801 102.694 67.0575C102.503 63.1322 102.513 59.1944 102.721 55.2691C102.863 52.6489 103.237 49.7361 105.245 48.066C106.422 47.0859 107.972 46.7134 109.476 46.4534C110.745 46.2334 112.024 46.0734 113.308 45.9758C115.391 45.8158 117.555 45.8308 119.471 46.6659C121.843 47.701 123.774 50.0687 122.118 52.3989C120.445 54.754 118.177 56.5242 115.311 57.1017H115.309Z" fill="#FF5722"/>
<path d="M112.592 72.0126C112.376 72.0126 112.161 71.99 111.955 71.965C109.647 71.68 107.33 71.26 105.066 70.7149C104.395 70.5524 103.748 70.3674 103.249 69.8974C102.484 69.1748 102.367 68.0597 102.32 67.0722C102.129 63.1468 102.139 59.1665 102.347 55.2437C102.501 52.3835 102.927 49.5008 105.004 47.7706C106.246 46.738 107.855 46.3455 109.409 46.078C110.686 45.858 111.987 45.6955 113.276 45.5954C115.247 45.4454 117.542 45.4104 119.615 46.3155C121.322 47.0606 122.614 48.3657 122.986 49.7233C123.256 50.7084 123.06 51.7059 122.416 52.6135C120.554 55.2337 118.12 56.9138 115.378 57.4664L115.358 57.4714C115.011 57.5414 114.652 57.6139 114.511 57.8314C114.416 57.9739 114.409 58.2014 114.412 58.4615L114.426 69.5849C114.426 70.4049 114.34 71.23 113.695 71.7C113.363 71.9425 112.976 72.0126 112.592 72.0126ZM115.18 46.268C114.548 46.268 113.926 46.303 113.336 46.348C112.069 46.4455 110.79 46.603 109.538 46.8205C108.086 47.0731 106.588 47.4306 105.48 48.3532C103.626 49.8983 103.237 52.5985 103.093 55.2862C102.885 59.184 102.875 63.1368 103.066 67.0372C103.108 67.9172 103.197 68.8223 103.76 69.3523C104.127 69.6974 104.648 69.8449 105.242 69.9874C107.478 70.5249 109.766 70.94 112.047 71.2225C112.495 71.2775 112.961 71.315 113.261 71.095C113.636 70.8225 113.688 70.2099 113.685 69.5874L113.67 58.464C113.67 58.1689 113.67 57.7639 113.893 57.4214C114.206 56.9438 114.766 56.8288 115.217 56.7388L115.237 56.7338C117.79 56.2188 120.066 54.6437 121.816 52.181C122.331 51.4559 122.485 50.6984 122.274 49.9283C121.959 48.7832 120.829 47.6656 119.325 47.0106C118.006 46.4355 116.563 46.2705 115.182 46.2705L115.18 46.268Z" fill="#231F20"/>
<path d="M151.415 54.7165L174.731 68.5351C175.67 69.0926 176.855 68.4101 176.855 67.31L176.892 19.1986C176.892 16.1309 175.271 13.2957 172.634 11.7656L153.693 0.76718C151.747 -0.36291 149.321 1.0672 149.34 3.33238L149.881 52.0488C149.893 53.1489 150.476 54.1614 151.415 54.7165Z" fill="white"/>
<path d="M176.892 19.1986C176.892 16.1309 175.271 13.2957 172.634 11.7656L153.693 0.76718C151.747 -0.36291 149.321 1.0672 149.34 3.33238L149.36 5.23254L176.887 21.5463V19.1986H176.892Z" fill="#F19CD9"/>
<path d="M175.37 69.0524C175.048 69.0524 174.723 68.9649 174.431 68.7924L151.398 55.1438C150.248 54.4612 149.521 53.2011 149.506 51.8535L148.969 3.33966C148.959 2.13956 149.563 1.06198 150.592 0.456929C151.621 -0.148119 152.848 -0.15312 153.879 0.446928L172.82 11.4428C175.564 13.0354 177.266 16.0082 177.264 19.2034L177.227 67.1822C177.227 67.8623 176.877 68.4698 176.292 68.8074C176.002 68.9749 175.685 69.0574 175.37 69.0574V69.0524ZM151.775 54.4962L174.805 68.1448C175.155 68.3523 175.571 68.3548 175.923 68.1523C176.272 67.9498 176.483 67.5848 176.483 67.1772L176.52 19.1984C176.52 16.2732 174.961 13.548 172.448 12.0904L153.507 1.09448C152.712 0.631943 151.762 0.634443 150.966 1.10198C150.173 1.56952 149.705 2.40208 149.712 3.32966L150.25 51.8435C150.262 52.9286 150.845 53.9437 151.775 54.4937V54.4962Z" fill="#231F20"/>
<path d="M149.527 5.12875L149.155 5.77832L176.794 21.8734L177.166 21.2238L149.527 5.12875Z" fill="#231F20"/>
<path d="M174.361 15.374L172.452 16.4854L172.824 17.1349L174.733 16.0236L174.361 15.374Z" fill="#0B132B"/>
<path d="M172.955 14.3896L172.311 14.7646L174.219 18.0969L174.863 17.7219L172.955 14.3896Z" fill="#0B132B"/>
<path d="M152.724 28.0439L173.176 39.9548V25.9012L152.724 13.9902V28.0439Z" fill="#FFF8E9"/>
<path d="M152.724 46.9052L173.176 58.8161V44.7625L152.724 32.8516V46.9052Z" fill="#FFF8E9"/>
<path d="M173.548 40.6049L152.352 28.2615V13.3428L173.548 25.6863V40.6049ZM153.096 27.8289L172.805 39.3073V26.1213L153.096 14.6429V27.8289Z" fill="#0B132B"/>
<path d="M173.548 59.4663L152.352 47.1228V32.2041L173.548 44.5476V59.4663ZM153.096 46.6903L172.805 58.1687V44.9826L153.096 33.5042V46.6903Z" fill="#0B132B"/>
<path d="M165.941 40.3033L147.625 29.6125C146.019 28.6749 144.204 28.8424 142.838 29.7275L139.083 31.7802L163.978 58.4873L167.802 56.3746C169.297 55.6596 170.41 54.1544 170.437 52.2543L170.494 48.414C170.544 45.0787 168.801 41.976 165.941 40.3058V40.3033Z" fill="#231F20"/>
<path d="M163.903 58.9544L138.481 31.6823L142.65 29.4046C144.224 28.392 146.2 28.347 147.813 29.2871L166.129 39.9779C169.106 41.7156 170.921 44.9483 170.869 48.4161L170.812 52.2564C170.782 54.169 169.704 55.8667 167.993 56.6967L167.983 56.7017L163.906 58.9544H163.903ZM139.683 31.8773L164.05 58.0168L167.384 56.1767V56.1592L167.641 56.0317C169.111 55.3291 170.038 53.879 170.063 52.2439L170.12 48.4036C170.17 45.2083 168.494 42.2281 165.752 40.6255L147.437 29.9346C146.061 29.1321 144.375 29.1746 143.037 30.0396L143.012 30.0546L139.68 31.8748L139.683 31.8773Z" fill="#231F20"/>
<path d="M143.567 31.8446L161.883 42.5355C164.746 44.2056 166.489 47.3083 166.437 50.6436L166.38 54.4839C166.325 58.0142 162.537 60.1894 159.501 58.4342L141.259 47.8934C138.421 46.2533 136.671 43.2055 136.671 39.9078V35.8574C136.671 32.2871 140.503 30.057 143.567 31.8471V31.8446Z" fill="#759BF0"/>
<path d="M161.784 59.4318C160.936 59.4318 160.088 59.2093 159.315 58.7618L141.074 48.2209C138.129 46.5183 136.297 43.333 136.297 39.9078V35.8574C136.297 34.0448 137.226 32.4222 138.783 31.5171C140.34 30.612 142.196 30.6145 143.751 31.5221L162.066 42.2129C165.044 43.9506 166.858 47.1833 166.806 50.6511L166.746 54.4939C166.719 56.2866 165.782 57.8842 164.238 58.7718C163.467 59.2143 162.624 59.4343 161.781 59.4343L161.784 59.4318ZM141.264 31.5921C140.541 31.5921 139.817 31.7846 139.155 32.1696C137.831 32.9397 137.041 34.3198 137.041 35.8599V39.9103C137.041 43.0655 138.729 46.0032 141.443 47.5709L159.684 58.1117C160.996 58.8693 162.56 58.8718 163.874 58.1167C165.187 57.3641 165.983 56.004 166.008 54.4814L166.067 50.6386C166.117 47.4434 164.441 44.4631 161.7 42.8605L143.384 32.1696C142.722 31.7846 141.996 31.5896 141.269 31.5896L141.264 31.5921Z" fill="#231F20"/>
<path d="M142.937 41.6759L142.516 42.911L141.661 42.4484L143.52 37.0205L144.375 37.483L146.693 45.1787L145.838 44.7161L145.312 42.966L142.937 41.6784V41.6759ZM144.95 41.7634L143.996 38.5931L143.23 40.8283L144.953 41.7634H144.95Z" fill="white"/>
<path d="M148.998 41.453C149.481 41.7156 149.903 42.1706 150.262 42.8207C150.622 43.4707 150.815 44.1808 150.842 44.9508C150.87 45.7209 150.721 46.2534 150.396 46.551C150.071 46.8485 149.682 46.8735 149.229 46.626C148.775 46.3784 148.356 45.8834 147.977 45.1358L148.066 47.7085L147.308 47.296L147.07 40.4805L147.828 40.893L147.858 41.7656C148.133 41.2955 148.515 41.1905 148.998 41.453ZM147.902 43.3907C147.92 43.8657 148.036 44.3133 148.254 44.7283C148.473 45.1458 148.73 45.4334 149.03 45.5959C149.328 45.7584 149.583 45.7484 149.794 45.5684C150.004 45.3884 150.101 45.0583 150.086 44.5808C150.069 44.1033 149.947 43.6457 149.719 43.2107C149.491 42.7782 149.226 42.4781 148.924 42.3131C148.621 42.1481 148.371 42.1681 148.175 42.3706C147.977 42.5731 147.888 42.9132 147.905 43.3882L147.902 43.3907Z" fill="white"/>
<path d="M153.554 43.9262C154.037 44.1888 154.459 44.6438 154.818 45.2939C155.178 45.9439 155.371 46.654 155.398 47.4215C155.426 48.1916 155.277 48.7241 154.952 49.0217C154.627 49.3192 154.238 49.3442 153.785 49.0967C153.331 48.8491 152.912 48.3541 152.533 47.6065L152.622 50.1792L151.864 49.7667L151.626 42.9512L152.384 43.3637L152.414 44.2363C152.689 43.7662 153.071 43.6612 153.554 43.9237V43.9262ZM152.458 45.8639C152.476 46.3389 152.592 46.7865 152.81 47.2015C153.029 47.6165 153.286 47.9066 153.586 48.0691C153.884 48.2316 154.139 48.2216 154.35 48.0416C154.561 47.8616 154.657 47.5315 154.642 47.054C154.625 46.574 154.503 46.1189 154.275 45.6839C154.047 45.2514 153.782 44.9513 153.48 44.7863C153.177 44.6213 152.927 44.6413 152.731 44.8438C152.533 45.0463 152.444 45.3864 152.461 45.8614L152.458 45.8639Z" fill="white"/>
<path d="M157.114 50.8312L156.355 50.4187L156.112 43.4531L156.871 43.8657L157.114 50.8312Z" fill="white"/>
<path d="M158.737 53.6645C158.408 53.4845 158.103 53.157 157.825 52.682L158.14 52.0144C158.306 52.3069 158.472 52.4994 158.643 52.592C158.812 52.6845 158.948 52.6745 159.047 52.562C159.149 52.4494 159.193 52.2944 159.189 52.0944C159.186 52.0069 158.641 50.0318 157.552 46.1689L158.366 46.6115L159.573 50.8768L160.522 47.7816L161.335 48.2241L159.793 53.207C159.702 53.477 159.56 53.652 159.372 53.7345C159.184 53.8171 158.973 53.7946 158.737 53.667V53.6645Z" fill="white"/>
</svg>
