<svg width="252" height="197" viewBox="0 0 252 197" fill="none" xmlns="http://www.w3.org/2000/svg">
<path d="M47.1904 28.3765L82.5337 45.916C77.9859 53.0753 74.934 59.7682 73.1354 65.9146C71.3067 72.1641 69.9707 78.348 69.3995 84.5489L69.3496 85.09L69.893 85.0948C76.0343 85.1483 81.8593 86.3772 87.5987 88.6265C93.3275 90.8716 98.1942 94.0015 102.692 97.9483C107.065 101.913 110.78 106.481 113.855 111.777C116.923 117.06 118.969 123.007 119.952 129.376C121.029 136.354 120.683 143.043 118.937 149.573C117.187 156.112 114.346 162.065 110.412 167.435C106.48 172.802 101.539 177.325 95.8284 180.966C90.0025 184.622 83.851 186.948 76.9998 188.005C69.7718 189.121 62.8342 188.812 56.1821 187.084C49.5168 185.353 43.4446 182.53 38.205 178.583L38.1996 178.579C32.8339 174.648 28.4523 169.811 24.8099 164.099L24.8054 164.092L24.8008 164.085C20.9278 158.432 18.5826 152.164 17.5058 145.186C16.1376 136.321 15.5544 126.824 15.7012 116.323C15.867 105.954 17.0184 95.4331 19.1935 85.0061L19.1939 85.0041C21.3475 74.4659 24.8275 64.3484 29.3529 54.4421C33.9593 44.7701 39.9328 35.9968 47.1904 28.3765ZM142.895 65.9157L142.895 65.9137C145.05 55.372 148.407 45.2733 152.931 35.37C157.417 25.7141 163.269 16.9595 170.643 9.32204L206.234 26.8272C201.685 33.981 198.514 40.6906 196.714 46.8393C194.761 53.1123 193.426 59.2934 192.731 65.506L192.67 66.0568L193.224 66.0616C199.364 66.1151 205.188 67.3436 210.927 69.5923C216.544 71.8607 221.658 74.9568 226.149 78.8984C230.643 82.8422 234.357 87.4085 237.433 92.7052C240.501 97.9887 242.547 103.936 243.53 110.305C244.607 117.283 244.261 123.972 242.515 130.501C240.765 137.041 237.924 142.994 233.99 148.364C230.058 153.73 225.117 158.254 219.406 161.895C213.58 165.55 207.429 167.877 200.578 168.934C193.35 170.049 186.412 169.741 179.76 168.013C173.095 166.282 167.021 163.459 161.654 159.527C156.284 155.593 151.782 150.775 148.269 145.054L148.264 145.047C144.63 139.348 142.284 133.074 141.207 126.096C139.839 117.231 139.256 107.734 139.403 97.2323C139.549 86.7413 140.72 76.3438 142.895 65.9157Z" stroke="#FE372F"/>
<path d="M0 127.534C0 118.532 0.875294 109.028 2.62587 98.65C4.37644 88.3967 7.12732 78.1433 10.8785 68.1401C14.6298 58.0118 19.6314 48.5087 25.6334 39.3807C31.7604 30.3777 39.1378 22.5002 47.6406 15.998L80.6513 39.2556C74.8995 45.7578 70.7731 52.0098 68.0222 57.8867C65.2713 63.7636 63.0206 69.6406 61.5201 75.6425C67.6471 76.6429 73.2739 78.7685 78.6507 81.8946C84.0275 85.0206 88.4039 88.8969 92.2801 93.5234C96.0314 98.1499 99.0323 103.277 101.283 109.028C103.534 114.78 104.659 121.032 104.659 127.534C104.659 134.662 103.284 141.289 100.533 147.541C97.782 153.793 94.0307 159.295 89.2792 164.046C84.5276 168.798 78.9008 172.549 72.6487 175.3C66.2717 178.051 59.7695 179.426 52.7672 179.426C45.3898 179.426 38.5126 178.051 32.1355 175.3C25.7584 172.549 20.1316 168.798 15.5051 164.046C10.7535 159.295 7.12733 153.793 4.37643 147.541C1.37545 141.289 0 134.662 0 127.534ZM125.166 127.534C125.166 118.532 126.041 109.028 127.792 98.65C129.542 88.2717 132.293 78.1433 136.044 68.1401C139.796 58.0118 144.672 48.5087 150.674 39.3807C156.676 30.3777 163.929 22.5002 172.556 15.998L205.817 39.2556C200.065 45.7578 195.814 52.0098 193.063 57.8867C190.187 63.7636 187.936 69.6406 186.311 75.6425C192.438 76.6429 198.065 78.7685 203.441 81.8946C208.693 85.0206 213.32 88.8969 217.196 93.5234C221.072 98.1499 224.073 103.277 226.324 109.028C228.575 114.78 229.7 121.032 229.7 127.534C229.7 134.662 228.325 141.289 225.574 147.541C222.823 153.793 219.072 159.295 214.32 164.046C209.568 168.798 203.942 172.549 197.69 175.3C191.312 178.051 184.81 179.426 177.808 179.426C170.431 179.426 163.553 178.051 157.176 175.3C150.799 172.549 145.172 168.798 140.421 164.046C135.669 159.295 131.918 153.793 129.292 147.541C126.541 141.289 125.166 134.662 125.166 127.534Z" fill="#2D2D2D"/>
</svg>
