<svg width="200" height="199" viewBox="0 0 200 199" fill="none" xmlns="http://www.w3.org/2000/svg">
<path d="M198.845 69.619L167.752 29.1971C167.461 28.8226 167.089 28.5195 166.663 28.311C166.237 28.1025 165.769 27.9941 165.295 27.9941C164.821 27.9941 164.353 28.1025 163.928 28.311C163.502 28.5195 163.13 28.8226 162.839 29.1971L131.745 69.619C131.391 70.0787 131.173 70.6282 131.115 71.2055C131.057 71.7827 131.162 72.3646 131.418 72.8855C131.673 73.4063 132.069 73.8452 132.561 74.1526C133.053 74.46 133.621 74.6237 134.202 74.6251H146.639V152.359C146.639 153.184 146.967 153.975 147.55 154.558C148.133 155.141 148.924 155.469 149.748 155.469H180.842C181.667 155.469 182.458 155.141 183.041 154.558C183.624 153.975 183.952 153.184 183.952 152.359V74.6251H196.389C196.969 74.6237 197.537 74.46 198.029 74.1526C198.521 73.8452 198.917 73.4063 199.173 72.8855C199.429 72.3646 199.533 71.7827 199.475 71.2055C199.418 70.6282 199.199 70.0787 198.845 69.619Z" fill="#FFDCDB"/>
<path d="M133.549 41.6346L102.455 1.21276C102.164 0.838256 101.792 0.535166 101.366 0.326663C100.94 0.11816 100.472 0.00976563 99.9984 0.00976562C99.5243 0.00976563 99.0566 0.11816 98.6308 0.326663C98.2051 0.535166 97.8326 0.838256 97.542 1.21276L66.4482 41.6346C66.0944 42.0943 65.8761 42.6439 65.8183 43.2211C65.7604 43.7983 65.8651 44.3803 66.1207 44.9011C66.3762 45.4219 66.7724 45.8608 67.2644 46.1682C67.7563 46.4757 68.3245 46.6393 68.9047 46.6407H81.3422V115.047C81.3422 115.872 81.6697 116.663 82.2529 117.246C82.836 117.829 83.6269 118.156 84.4515 118.156H115.545C116.37 118.156 117.161 117.829 117.744 117.246C118.327 116.663 118.655 115.872 118.655 115.047V46.6407H131.092C131.672 46.6393 132.24 46.4757 132.732 46.1682C133.224 45.8608 133.621 45.4219 133.876 44.9011C134.132 44.3803 134.236 43.7983 134.179 43.2211C134.121 42.6439 133.902 42.0943 133.549 41.6346Z" fill="#FFDCDB"/>
<path d="M50.2484 199H19.1547C18.33 199 17.5391 198.673 16.956 198.089C16.3729 197.506 16.0453 196.715 16.0453 195.891V105.719H3.60778C3.02764 105.717 2.45947 105.554 1.96749 105.246C1.47552 104.939 1.07936 104.5 0.823801 103.979C0.568247 103.458 0.463492 102.876 0.521379 102.299C0.579266 101.722 0.797487 101.172 1.15137 100.713L32.2451 60.2909C32.5358 59.9164 32.9082 59.6133 33.3339 59.4048C33.7597 59.1963 34.2275 59.0879 34.7015 59.0879C35.1756 59.0879 35.6434 59.1963 36.0691 59.4048C36.4949 59.6133 36.8673 59.9164 37.1579 60.2909L68.2517 100.713C68.6056 101.172 68.8238 101.722 68.8817 102.299C68.9396 102.876 68.8348 103.458 68.5793 103.979C68.3237 104.5 67.9275 104.939 67.4356 105.246C66.9436 105.554 66.3754 105.717 65.7953 105.719H53.3578V195.891C53.3578 196.715 53.0302 197.506 52.4471 198.089C51.8639 198.673 51.0731 199 50.2484 199Z" fill="#2D2D2D"/>
<path d="M165.295 127.484V139.922C165.295 141.571 164.64 143.153 163.473 144.319C162.307 145.485 160.725 146.141 159.076 146.141H155.967C154.677 146.148 153.422 146.556 152.375 147.308C151.328 148.06 150.54 149.119 150.121 150.338C149.327 152.752 148.35 155.101 147.198 157.365C146.63 158.528 146.439 159.838 146.65 161.115C146.862 162.391 147.467 163.569 148.38 164.486L150.556 166.694C151.135 167.271 151.593 167.957 151.906 168.712C152.219 169.467 152.38 170.276 152.38 171.093C152.38 171.911 152.219 172.72 151.906 173.475C151.593 174.23 151.135 174.916 150.556 175.493L141.788 184.262C141.21 184.84 140.525 185.298 139.77 185.611C139.015 185.924 138.206 186.085 137.388 186.085C136.571 186.085 135.762 185.924 135.007 185.611C134.252 185.298 133.566 184.84 132.989 184.262L130.781 182.085C129.864 181.172 128.686 180.567 127.41 180.355C126.133 180.144 124.823 180.335 123.66 180.903C121.396 182.055 119.047 183.032 116.633 183.826C115.414 184.245 114.355 185.033 113.603 186.08C112.851 187.127 112.443 188.383 112.436 189.672V192.781C112.436 194.431 111.78 196.012 110.614 197.179C109.448 198.345 107.866 199 106.217 199H93.7793C92.13 199 90.5482 198.345 89.382 197.179C88.2157 196.012 87.5605 194.431 87.5605 192.781V189.672C87.5532 188.383 87.1452 187.127 86.3932 186.08C85.6412 185.033 84.5822 184.245 83.3629 183.826C80.9495 183.032 78.6003 182.055 76.3357 180.903C75.1734 180.335 73.8628 180.144 72.5865 180.355C71.3102 180.567 70.1317 181.172 69.2152 182.085L67.0076 184.262C66.0458 185.213 64.7998 185.825 63.4587 186.005C62.1176 186.185 60.7545 185.922 59.5762 185.257C58.519 184.728 58.8299 184.883 49.4396 175.493C48.8614 174.916 48.4027 174.23 48.0898 173.475C47.7768 172.72 47.6157 171.911 47.6157 171.093C47.6157 170.276 47.7768 169.467 48.0898 168.712C48.4027 167.957 48.8614 167.271 49.4396 166.694L51.6162 164.486C52.5293 163.569 53.1339 162.391 53.3457 161.115C53.5575 159.838 53.3659 158.528 52.7977 157.365C51.646 155.101 50.6689 152.752 49.8749 150.338C49.4559 149.119 48.6683 148.06 47.621 147.308C46.5737 146.556 45.3186 146.148 44.0293 146.141H40.9199C39.2706 146.141 37.6888 145.485 36.5226 144.319C35.3564 143.153 34.7012 141.571 34.7012 139.922V127.484C34.7012 125.835 35.3564 124.253 36.5226 123.087C37.6888 121.921 39.2706 121.266 40.9199 121.266H44.0293C45.3186 121.258 46.5737 120.85 47.621 120.098C48.6683 119.346 49.4559 118.287 49.8749 117.068C50.6689 114.655 51.646 112.305 52.7977 110.041C53.3659 108.878 53.5575 107.568 53.3457 106.292C53.1339 105.015 52.5293 103.837 51.6162 102.92L49.4396 100.713C48.8614 100.135 48.4027 99.4492 48.0898 98.6943C47.7768 97.9394 47.6157 97.1301 47.6157 96.3129C47.6157 95.4957 47.7768 94.6864 48.0898 93.9315C48.4027 93.1765 48.8614 92.4907 49.4396 91.9131L58.208 83.1447C58.7856 82.5665 59.4715 82.1078 60.2264 81.7949C60.9813 81.4819 61.7906 81.3208 62.6078 81.3208C63.4251 81.3208 64.2343 81.4819 64.9892 81.7949C65.7442 82.1078 66.43 82.5665 67.0076 83.1447L69.2152 85.3213C70.1317 86.2344 71.3102 86.839 72.5865 87.0508C73.8628 87.2626 75.1734 87.071 76.3357 86.5028C78.6003 85.3511 80.9495 84.374 83.3629 83.58C84.5822 83.161 85.6412 82.3734 86.3932 81.3261C87.1452 80.2788 87.5532 79.0237 87.5605 77.7344V74.625C87.5605 72.9757 88.2157 71.3939 89.382 70.2277C90.5482 69.0614 92.13 68.4062 93.7793 68.4062H106.217C107.866 68.4062 109.448 69.0614 110.614 70.2277C111.78 71.3939 112.436 72.9757 112.436 74.625V77.7344C112.443 79.0237 112.851 80.2788 113.603 81.3261C114.355 82.3734 115.414 83.161 116.633 83.58C119.047 84.374 121.396 85.3511 123.66 86.5028C124.823 87.071 126.133 87.2626 127.41 87.0508C128.686 86.839 129.864 86.2344 130.781 85.3213L132.989 83.1447C133.566 82.5665 134.252 82.1078 135.007 81.7949C135.762 81.4819 136.571 81.3208 137.388 81.3208C138.206 81.3208 139.015 81.4819 139.77 81.7949C140.525 82.1078 141.21 82.5665 141.788 83.1447L150.556 91.9131C151.135 92.4907 151.593 93.1765 151.906 93.9315C152.219 94.6864 152.38 95.4957 152.38 96.3129C152.38 97.1301 152.219 97.9394 151.906 98.6943C151.593 99.4492 151.135 100.135 150.556 100.713L148.38 102.92C147.467 103.837 146.862 105.015 146.65 106.292C146.439 107.568 146.63 108.878 147.198 110.041C148.35 112.305 149.327 114.655 150.121 117.068C150.54 118.287 151.328 119.346 152.375 120.098C153.422 120.85 154.677 121.258 155.967 121.266H159.076C160.725 121.266 162.307 121.921 163.473 123.087C164.64 124.253 165.295 125.835 165.295 127.484Z" fill="#ED3327"/>
<path d="M137.311 133.703C137.309 139.87 135.78 145.939 132.859 151.37C129.938 156.8 125.717 161.422 120.573 164.822C115.429 168.223 109.522 170.295 103.382 170.854C97.2408 171.413 91.0571 170.442 85.3836 168.027C79.7101 165.612 74.7235 161.828 70.8699 157.014C67.0162 152.201 64.4156 146.507 63.3006 140.442C62.1856 134.378 62.591 128.131 64.4805 122.262C66.3699 116.392 69.6846 111.083 74.1281 106.807C79.4023 101.733 86.0526 98.3214 93.251 96.9979C100.449 95.6744 107.878 96.4973 114.613 99.364C121.347 102.231 127.089 107.015 131.125 113.121C135.161 119.226 137.312 126.384 137.311 133.703Z" fill="white"/>
<path d="M74.128 106.807C73.3835 108.29 72.2427 109.539 70.832 110.414C71.8483 109.138 72.9495 107.933 74.128 106.807Z" fill="#F3F3F3"/>
<path d="M99.998 164.797C117.171 164.797 131.092 150.876 131.092 133.703C131.092 116.531 117.171 102.609 99.998 102.609C82.8254 102.609 68.9043 116.531 68.9043 133.703C68.9043 150.876 82.8254 164.797 99.998 164.797Z" fill="#FFDCDB"/>
<path d="M87.5611 149.25C86.9435 149.254 86.3388 149.073 85.8241 148.732C85.3095 148.39 84.9081 147.903 84.6713 147.333C84.4345 146.763 84.3729 146.135 84.4943 145.529C84.6158 144.924 84.9149 144.368 85.3534 143.933L96.8892 132.428V111.938C96.8892 111.113 97.2168 110.322 97.7999 109.739C98.383 109.156 99.1739 108.828 99.9986 108.828C100.823 108.828 101.614 109.156 102.197 109.739C102.78 110.322 103.108 111.113 103.108 111.938V133.703C103.11 134.112 103.032 134.518 102.877 134.897C102.722 135.276 102.494 135.62 102.206 135.911L89.7687 148.348C89.4782 148.636 89.1336 148.864 88.7548 149.019C88.3759 149.174 87.9703 149.252 87.5611 149.25Z" fill="#ED3327"/>
</svg>
