<svg width="200" height="200" viewBox="0 0 200 200" fill="none" xmlns="http://www.w3.org/2000/svg">
<path d="M165.393 149.243L197.228 181.077C200.925 184.774 200.925 190.768 197.228 194.464L194.68 197.013C190.983 200.71 184.99 200.71 181.293 197.013L149.643 165.363L126.857 142.23L144.774 127.127L165.393 149.243Z" fill="#2D2D2D"/>
<path d="M93.2999 186.6C144.828 186.6 186.6 144.828 186.6 93.2999C186.6 41.7718 144.828 0 93.2999 0C41.7718 0 0 41.7718 0 93.2999C0 144.828 41.7718 186.6 93.2999 186.6Z" fill="#ED3327"/>
<path d="M33.5571 85.3339C33.5571 66.2882 39.2655 48.5769 49.063 33.8145H21.4242C8.04377 49.9617 0 70.6909 0 93.3006C0 144.829 41.772 186.6 93.2999 186.6C106.84 186.6 119.708 183.713 131.32 178.526C129.842 178.595 128.352 178.634 126.857 178.634C75.329 178.634 33.5571 136.862 33.5571 85.3339Z" fill="#ED3327"/>
<path d="M159.637 92.4446L55.349 91.4492L31.541 125.624L33.2721 138.971C35.3387 141.627 37.5828 144.137 39.9803 146.482L66.1479 153.172H125.988L144.026 146.482C156.433 134.345 164.615 117.894 166.136 99.5531L159.637 92.4446Z" fill="#FFDCDB"/>
<path d="M38.5619 115.547L31.543 125.622L33.2741 138.969C35.3406 141.625 37.5848 144.135 39.9823 146.48L61.6027 152.008C51.3039 141.927 43.3291 129.482 38.5619 115.547Z" fill="#FFDCDB"/>
<path d="M40.2749 120.148C36.2831 110.229 33.9453 99.4672 33.6051 88.2025L28.8516 87.2754L17.8711 99.5515C18.5694 107.995 20.6843 116.039 23.9698 123.446H23.9738L39.8624 120.906L40.2749 120.148Z" fill="#FFDCDB"/>
<path d="M13.418 45.0721C14.7019 48.7616 16.5424 52.2598 18.9226 55.4694L32.8947 74.7363C34.5451 77.0115 35.6825 79.5583 36.2763 82.305L37.3241 87.1537C38.6346 93.2197 44.0908 97.6228 50.2973 97.6228C56.5029 97.6228 61.9591 93.2205 63.2708 87.1537L64.3186 82.3054C64.9124 79.5575 66.0498 77.0111 67.6998 74.7363L81.6732 55.469C86.8201 48.5259 89.4683 40.2767 89.3307 31.6114C89.1712 21.5233 85.1403 11.993 77.9808 4.77539C76.9459 3.73244 75.8574 2.76213 74.7301 1.85156C48.757 7.09743 26.6947 23.1289 13.418 45.0721Z" fill="#ED3327"/>
<path d="M142.487 48.3113L138.946 35.5819C126.143 25.1524 109.805 18.9043 92.0049 18.9043C54.456 18.9043 23.4014 46.7259 18.3359 82.8783H18.34L33.5085 91.4484H121.448L149.062 70.2397L142.487 48.3113Z" fill="#FFDCDB"/>
<path d="M33.7623 91.4475C33.6316 89.4258 33.5577 87.3887 33.5577 85.3339C33.5577 66.2882 39.2661 48.5769 49.0636 33.8145H47.3272C31.9069 45.4149 21.1395 62.8683 18.3359 82.8774H18.34L33.5085 91.4475H33.7623Z" fill="#FFDCDB"/>
<path d="M150.759 47.666L140.717 49.1421L115.992 86.3382L143.922 92.4434L165.672 82.8779C163.832 69.7239 158.548 57.6758 150.759 47.666Z" fill="#FFDCDB"/>
<path d="M166.398 93.2979C166.398 95.4048 166.31 97.4875 166.136 99.55H166.132H64.0037C62.8138 99.55 61.6954 100.118 60.9927 101.078L33.272 138.967C29.5748 134.221 26.4387 129.014 23.9685 123.444H23.9725L40.4031 100.985C40.8395 100.389 40.4136 99.5496 39.6746 99.5496H17.8698C17.6962 97.4871 17.6074 95.4044 17.6074 93.2975C17.6074 89.7618 17.8536 86.2826 18.3339 82.876H18.338H104.021C104.22 82.876 104.407 82.7812 104.524 82.6205L138.94 35.5841L138.944 35.5801C143.323 39.1441 147.291 43.2004 150.758 47.6645L125.721 81.8847C125.419 82.2968 125.713 82.8764 126.224 82.8764H165.668H165.672C166.152 86.2789 166.398 89.7622 166.398 93.2979Z" fill="#FDF6EC"/>
<path d="M51.0454 1.28225C33.6017 0.871359 19.332 14.8891 19.332 32.2392C19.332 39.1548 21.6008 45.5397 25.432 50.6936L39.4304 69.9959C41.7278 73.1636 43.3406 76.7744 44.1673 80.5991L45.2151 85.4478C45.7321 87.8413 47.8491 89.5494 50.2979 89.5494C52.7466 89.5494 54.8636 87.8413 55.3807 85.4478L56.4285 80.5991C57.2551 76.7744 58.8679 73.1636 61.1654 69.9963L75.1637 50.694C79.0873 45.4158 81.3723 38.8465 81.2596 31.7383C80.9985 15.2136 67.5668 1.67134 51.0454 1.28225Z" fill="#2D2D2D"/>
<path d="M37.6026 21.2525C40.6806 17.6966 45.2257 15.4492 50.2968 15.4492C59.5696 15.4492 67.0859 22.9679 67.0859 32.2407C67.0859 36.4424 65.5436 40.2824 62.9911 43.2264C59.9131 46.7823 55.3679 49.0297 50.2968 49.0297C41.024 49.0297 33.5078 41.5135 33.5078 32.2407C33.5078 28.0386 35.0501 24.1985 37.6026 21.2525Z" fill="#F9F7F8"/>
<path d="M144.026 146.48C130.61 159.606 112.253 167.695 92.0032 167.695C71.7535 167.695 53.3968 159.606 39.9805 146.48H144.026Z" fill="#FDF6EC"/>
<path d="M93.2986 152.969C91.6264 152.969 90.2715 151.614 90.2715 149.942V126.26C90.2715 124.588 91.6264 123.232 93.2986 123.232C94.9708 123.232 96.3258 124.588 96.3258 126.26V149.942C96.3258 151.614 94.9708 152.969 93.2986 152.969Z" fill="#FDDEB0"/>
<path d="M93.3003 135.36C98.6795 135.36 103.04 131 103.04 125.621C103.04 120.242 98.6795 115.881 93.3003 115.881C87.9212 115.881 83.5605 120.242 83.5605 125.621C83.5605 131 87.9212 135.36 93.3003 135.36Z" fill="#ED3327"/>
</svg>
