<svg width="151" height="144" viewBox="0 0 151 144" fill="none" xmlns="http://www.w3.org/2000/svg">
<g clip-path="url(#clip0_935_1311)">
<path fill-rule="evenodd" clip-rule="evenodd" d="M0.416016 95.666L0.438011 100.515L75.2644 144L75.9741 138.511L47.2468 121.571L0.416016 95.666Z" fill="#D2E9FF"/>
<path fill-rule="evenodd" clip-rule="evenodd" d="M150.559 95.6641L150.581 100.513L75.2608 143.999L75.2402 139.15L87.6808 130.603L150.559 95.6641Z" fill="#D2E9FF"/>
<path fill-rule="evenodd" clip-rule="evenodd" d="M75.7366 52.1777L150.563 95.6624L75.2439 139.148L0.416016 95.6638L75.7366 52.1777Z" fill="#E6F0FC"/>
<path fill-rule="evenodd" clip-rule="evenodd" d="M147.69 45.0006L146.879 66.6366L147.872 97.4021L150.58 95.839L150.398 43.4375L147.69 45.0006Z" fill="#E4EAF5"/>
<path fill-rule="evenodd" clip-rule="evenodd" d="M75.6341 2.69922L73.9023 30.0906L75.8159 55.5289L147.869 97.402L147.688 44.5723L75.6341 2.69922Z" fill="#DCE4F2"/>
<path fill-rule="evenodd" clip-rule="evenodd" d="M3.11175 44.5709L1.75391 64.4619L3.29504 97.4005L75.8178 55.5289L75.636 2.69922L3.11175 44.5709Z" fill="#E4EAF5"/>
<path fill-rule="evenodd" clip-rule="evenodd" d="M0.419922 43.4348L3.11067 44.9994L75.6349 3.12773L147.688 45.0008L150.397 43.4362L75.6525 0L0.419922 43.4348Z" fill="#F0F4FA"/>
<path fill-rule="evenodd" clip-rule="evenodd" d="M0.419922 43.4336L0.603216 95.8351L3.29397 97.3997L3.11067 44.9982L0.419922 43.4336Z" fill="#DCE4F2"/>
<path fill-rule="evenodd" clip-rule="evenodd" d="M73.227 52.7141L7.53009 90.6457L7.23242 45.7534L72.985 7.79102L73.227 52.7141Z" fill="white"/>
<path fill-rule="evenodd" clip-rule="evenodd" d="M7.58354 90.6114L7.54102 87.686L70.6601 51.2443V51.1035L73.2057 52.6857L43.7511 69.7452L7.58354 90.6114Z" fill="#F0F4FA"/>
<path fill-rule="evenodd" clip-rule="evenodd" d="M73.2094 52.7278L70.6609 51.2468L70.4453 9.25639L72.9777 7.79297L73.2094 52.7278Z" fill="#DCE4F2"/>
<path fill-rule="evenodd" clip-rule="evenodd" d="M77.7734 52.7141L143.472 90.6457L143.768 45.7534L78.0169 7.79102L77.7734 52.7141Z" fill="white"/>
<path fill-rule="evenodd" clip-rule="evenodd" d="M143.417 90.6114L143.459 87.686L80.34 51.2443V51.1035L77.793 52.6857L109.981 71.3054L143.417 90.6114Z" fill="#F0F4FA"/>
<path fill-rule="evenodd" clip-rule="evenodd" d="M77.791 52.7278L80.3395 51.2468L80.5551 9.25639L78.0212 7.79297L77.791 52.7278Z" fill="#E4EAF5"/>
<path fill-rule="evenodd" clip-rule="evenodd" d="M15.9199 89.377L17.376 97.2205C17.549 97.9375 18.1048 98.6296 19.0564 99.181C21.3718 100.517 25.1081 100.517 27.4058 99.181C28.4587 98.568 29.0276 97.7835 29.1112 96.9829L30.5174 89.418C30.3444 94.2115 15.9141 91.5046 15.9199 89.377Z" fill="#798DA3"/>
<path fill-rule="evenodd" clip-rule="evenodd" d="M28.3655 86.4109C25.5076 84.7612 20.8871 84.7612 18.0438 86.4123C15.205 88.0635 15.2182 90.7395 18.0776 92.3892C19.5087 93.2147 21.3783 93.6283 23.245 93.6283C25.1131 93.6283 26.9783 93.2162 28.3992 92.3907C31.2425 90.7395 31.2263 88.062 28.3655 86.4109Z" fill="#9FAEC1"/>
<path fill-rule="evenodd" clip-rule="evenodd" d="M27.1936 87.0885C24.9853 85.8142 21.4162 85.8142 19.2196 87.0885C17.0259 88.3628 17.0377 90.4303 19.246 91.706C21.4558 92.9818 25.0249 92.9818 27.22 91.706C29.4166 90.4303 29.4049 88.3628 27.1936 87.0856V87.0885Z" fill="#798DA3"/>
<path fill-rule="evenodd" clip-rule="evenodd" d="M23.9654 69.1114C23.9654 69.1187 23.9654 69.1275 23.9625 69.1348C23.9625 69.1407 23.9595 69.148 23.9581 69.1539C23.9566 69.1612 23.9537 69.1685 23.9522 69.1759C23.9493 69.1817 23.9478 69.1876 23.9449 69.1935C23.9419 69.2008 23.9375 69.2096 23.9346 69.2169C23.9317 69.2228 23.9288 69.2272 23.9244 69.2331C23.9185 69.2419 23.9141 69.2507 23.9068 69.2595C23.9009 69.2683 23.8936 69.2756 23.8877 69.2844C23.8862 69.2859 23.8848 69.2888 23.8833 69.2903C23.873 69.3005 23.8628 69.3108 23.8525 69.321C23.8452 69.3269 23.8378 69.3342 23.829 69.3401C23.8217 69.346 23.8158 69.3518 23.8085 69.3562C23.7997 69.3621 23.7909 69.368 23.7821 69.3738C23.7733 69.3797 23.7631 69.3856 23.7543 69.3914C23.7323 69.4046 23.7088 69.4164 23.6839 69.4266C23.6765 69.4296 23.6692 69.4325 23.6633 69.4354C23.6443 69.4428 23.6252 69.4501 23.6047 69.4574C23.5974 69.4603 23.59 69.4618 23.5827 69.4648C23.571 69.4692 23.5578 69.4721 23.5446 69.475C23.5343 69.4779 23.5255 69.4809 23.5152 69.4823C23.502 69.4853 23.4888 69.4882 23.4742 69.4911C23.4654 69.4926 23.4551 69.4955 23.4463 69.497C23.4185 69.5014 23.3906 69.5058 23.3613 69.5087C23.3525 69.5087 23.3437 69.5102 23.3349 69.5102C23.3188 69.5117 23.3012 69.5131 23.285 69.5131C23.2748 69.5131 23.263 69.5131 23.2528 69.5131C23.2396 69.5131 23.2249 69.5131 23.2117 69.5131C23.2 69.5131 23.1882 69.5131 23.178 69.5131C23.1662 69.5131 23.1531 69.5131 23.1399 69.5117C23.1281 69.5117 23.1164 69.5102 23.1061 69.5087C23.0944 69.5087 23.0812 69.5058 23.0695 69.5043C23.0577 69.5029 23.0475 69.5014 23.0357 69.4999C23.0225 69.4985 23.0094 69.4955 22.9962 69.4926C22.9859 69.4911 22.9756 69.4882 22.9654 69.4867C22.9492 69.4838 22.9346 69.4794 22.9184 69.475C22.9096 69.4735 22.9008 69.4706 22.8935 69.4677C22.8656 69.4604 22.8393 69.4516 22.8143 69.4413C22.8011 69.4369 22.7894 69.431 22.7777 69.4252C22.7718 69.4222 22.7645 69.4193 22.7586 69.4164C22.7395 69.4076 22.7219 69.3988 22.7043 69.3885C22.5577 69.3034 22.4844 69.192 22.4844 69.082V89.3045C22.4829 89.4159 22.5562 89.5259 22.7029 89.6109C22.7205 89.6212 22.7381 89.63 22.7571 89.6388C22.763 89.6417 22.7703 89.6447 22.7762 89.6476C22.7879 89.652 22.7982 89.6579 22.8099 89.6623C22.8099 89.6623 22.8129 89.6623 22.8143 89.6623C22.8407 89.6725 22.8671 89.6813 22.8935 89.6887C22.8964 89.6887 22.8979 89.6887 22.8994 89.6901C22.9052 89.6916 22.9126 89.6931 22.9184 89.6945C22.9331 89.6989 22.9492 89.7033 22.9639 89.7063C22.9683 89.7063 22.9727 89.7077 22.9771 89.7092C22.983 89.7092 22.9888 89.7107 22.9962 89.7121C23.0094 89.7151 23.0225 89.7165 23.0357 89.7194C23.0416 89.7194 23.046 89.7209 23.0519 89.7224C23.0577 89.7224 23.0636 89.7224 23.0695 89.7239C23.0827 89.7239 23.0944 89.7268 23.1076 89.7282C23.1135 89.7282 23.1193 89.7282 23.1252 89.7297C23.1311 89.7297 23.1355 89.7297 23.1413 89.7297C23.1545 89.7297 23.1663 89.7297 23.1794 89.7312C23.1853 89.7312 23.1926 89.7312 23.1985 89.7312C23.2029 89.7312 23.2088 89.7312 23.2132 89.7312C23.2264 89.7312 23.241 89.7312 23.2542 89.7312C23.2616 89.7312 23.2674 89.7312 23.2748 89.7312C23.2792 89.7312 23.2821 89.7312 23.2865 89.7312C23.3026 89.7312 23.3202 89.7297 23.3363 89.7282C23.3437 89.7282 23.3495 89.7282 23.3569 89.7282C23.3583 89.7282 23.3613 89.7282 23.3627 89.7282C23.3906 89.7253 23.4199 89.7209 23.4478 89.7165C23.4493 89.7165 23.4507 89.7165 23.4522 89.7165C23.461 89.7165 23.4683 89.7136 23.4756 89.7121C23.4888 89.7092 23.5035 89.7063 23.5167 89.7033C23.527 89.7004 23.5358 89.6975 23.546 89.696C23.5592 89.6916 23.571 89.6887 23.5842 89.6843C23.5871 89.6843 23.59 89.6843 23.593 89.6813C23.5974 89.6813 23.6018 89.6784 23.6062 89.6769C23.6267 89.6696 23.6457 89.6623 23.6648 89.6549C23.6721 89.652 23.6795 89.6491 23.6853 89.6461C23.7103 89.6359 23.7337 89.6241 23.7557 89.6109C23.7587 89.6095 23.7616 89.608 23.7645 89.6051C23.7719 89.6007 23.7777 89.5963 23.7836 89.5933C23.7924 89.5875 23.8026 89.5816 23.81 89.5757C23.8173 89.5699 23.8246 89.5655 23.8305 89.5596C23.8378 89.5538 23.8466 89.5479 23.854 89.5406C23.8554 89.5406 23.8569 89.5376 23.8584 89.5362C23.8686 89.5274 23.8774 89.5186 23.8848 89.5098C23.8862 89.5083 23.8877 89.5054 23.8892 89.5039C23.8936 89.498 23.8994 89.4922 23.9038 89.4878C23.9053 89.4848 23.9068 89.4834 23.9082 89.4804C23.9141 89.4716 23.92 89.4628 23.9258 89.454C23.9288 89.4496 23.9317 89.4467 23.9332 89.4438C23.9332 89.4423 23.9346 89.4394 23.9361 89.4379C23.9405 89.4306 23.9434 89.4218 23.9463 89.4145C23.9478 89.4101 23.9507 89.4057 23.9522 89.4013C23.9522 89.4013 23.9522 89.3983 23.9522 89.3968C23.9551 89.3895 23.9566 89.3822 23.9581 89.3749C23.9581 89.369 23.961 89.3646 23.9625 89.3602C23.9625 89.3602 23.9625 89.3573 23.9625 89.3558C23.9625 89.3485 23.9639 89.3397 23.9654 89.3323C23.9654 89.3279 23.9669 89.3221 23.9669 89.3177V69.0879C23.9669 69.0879 23.9669 69.1026 23.9669 69.1099L23.9654 69.1114Z" fill="#798DA3"/>
<path fill-rule="evenodd" clip-rule="evenodd" d="M23.7451 68.7847C23.4533 68.616 22.9826 68.616 22.6923 68.7847C22.4034 68.9533 22.4049 69.226 22.6952 69.3947C22.987 69.5633 23.4577 69.5633 23.7481 69.3947C24.0384 69.226 24.0369 68.9533 23.7451 68.7847Z" fill="#9C9EA2"/>
<path fill-rule="evenodd" clip-rule="evenodd" d="M23.2229 59.6836C28.3375 59.6836 32.4829 63.4565 32.4829 68.1107C32.4829 72.7649 28.3361 76.5378 23.2229 76.5378C18.1097 76.5378 13.9629 72.7649 13.9629 68.1107C13.9629 63.4565 18.1097 59.6836 23.2229 59.6836Z" fill="#5FA101"/>
<path fill-rule="evenodd" clip-rule="evenodd" d="M32.4374 67.2793C32.4668 67.552 32.4829 67.8292 32.4829 68.1093C32.4829 72.7634 28.3361 76.5364 23.2229 76.5364C18.1097 76.5364 13.9629 72.7634 13.9629 68.1093C13.9629 67.8292 13.979 67.552 14.0083 67.2793C15.8545 69.7882 19.2901 71.4745 23.2244 71.4745C27.1586 71.4745 30.5942 69.7882 32.4404 67.2793H32.4374Z" fill="#467800"/>
<path fill-rule="evenodd" clip-rule="evenodd" d="M109.861 71.2283L112.41 69.7473L112.625 27.7583L110.093 26.2949L109.861 71.2283Z" fill="#E4EAF5"/>
<path fill-rule="evenodd" clip-rule="evenodd" d="M109.861 71.2287L109.863 71.7977L106.84 70.2052L107.215 24.4492L110.092 26.2954L109.861 71.2287Z" fill="#DCE4F2"/>
<path fill-rule="evenodd" clip-rule="evenodd" d="M41.8935 70.7967L39.3464 69.3171L39.1309 27.3267L41.6632 25.8633L41.8935 70.7967Z" fill="#DCE4F2"/>
<path fill-rule="evenodd" clip-rule="evenodd" d="M41.8884 70.7951L41.887 71.3641L44.9091 69.7716L44.5337 24.0156L41.6582 25.8618L41.8884 70.7951Z" fill="#E4EAF5"/>
<path fill-rule="evenodd" clip-rule="evenodd" d="M93.2806 89.8374C93.2806 89.8609 93.2762 89.8843 93.2689 89.9078C93.2689 89.9107 93.2689 89.9122 93.266 89.9151C93.2587 89.9371 93.2469 89.9576 93.2337 89.9782C93.2308 89.9826 93.2293 89.9855 93.2264 89.9899C93.2117 90.0104 93.1941 90.031 93.1721 90.0486C93.1589 90.0603 93.1413 90.072 93.1252 90.0838C93.1106 90.094 93.0988 90.1043 93.0827 90.1131L87.6924 93.2467L87.6895 94.1089L93.0798 90.9768C93.0798 90.9768 93.0856 90.9738 93.0886 90.9724C93.1018 90.9636 93.1105 90.9548 93.1237 90.9474C93.1399 90.9357 93.1575 90.9254 93.1707 90.9122C93.1707 90.9122 93.1736 90.9108 93.1751 90.9093C93.1912 90.8946 93.2059 90.88 93.2176 90.8638C93.2205 90.8594 93.222 90.8565 93.2249 90.8521C93.2279 90.8492 93.2293 90.8448 93.2323 90.8404C93.2367 90.8345 93.2411 90.8287 93.244 90.8213C93.2513 90.8081 93.2572 90.7949 93.2616 90.7817C93.2616 90.7803 93.2616 90.7773 93.2631 90.7759C93.2631 90.7729 93.2631 90.7715 93.266 90.7685C93.2689 90.7597 93.2719 90.7524 93.2733 90.7436C93.2763 90.7304 93.2777 90.7172 93.2777 90.704V90.6982L93.2806 89.8359V89.8374Z" fill="#F92323"/>
<path fill-rule="evenodd" clip-rule="evenodd" d="M87.4869 93.3249C87.4766 93.3278 87.4649 93.3307 87.4546 93.3337C87.3784 93.3498 87.2992 93.3601 87.2186 93.3601H87.2098C87.1262 93.3601 87.0411 93.3498 86.962 93.3322C86.959 93.3322 86.9561 93.3322 86.9532 93.3307C86.8725 93.3117 86.7963 93.2838 86.7303 93.2457L80.4792 89.637C80.3458 89.5593 80.2783 89.4581 80.2783 89.3555L80.2754 90.2192C80.2754 90.3218 80.3414 90.423 80.4748 90.5007L86.7259 94.1094C86.7567 94.127 86.7889 94.1431 86.8241 94.1563C86.8505 94.1666 86.8784 94.1754 86.9062 94.1842C86.9194 94.1886 86.9341 94.1915 86.9473 94.1944C86.9502 94.1944 86.9531 94.1944 86.9561 94.1959C86.9634 94.1959 86.9693 94.1988 86.9766 94.2003C86.9986 94.2047 87.0221 94.2091 87.0441 94.212C87.0661 94.215 87.0881 94.2179 87.1101 94.2194C87.1321 94.2208 87.1555 94.2223 87.1775 94.2238C87.1863 94.2238 87.1951 94.2238 87.2039 94.2238H87.2127C87.2244 94.2238 87.2362 94.2238 87.2479 94.2238C87.2728 94.2238 87.2992 94.2208 87.3241 94.2179C87.3535 94.215 87.3828 94.2105 87.4121 94.2061C87.4253 94.2032 87.4371 94.1988 87.4488 94.1974C87.4605 94.1944 87.4708 94.193 87.4825 94.1886C87.5016 94.1827 87.5236 94.1798 87.5412 94.1739C87.594 94.1563 87.6453 94.1343 87.6907 94.1079L87.6937 93.2457C87.6321 93.2809 87.5602 93.3073 87.4854 93.3263L87.4869 93.3249Z" fill="#F92323"/>
<path fill-rule="evenodd" clip-rule="evenodd" d="M93.0807 89.5547C93.349 89.7102 93.3475 89.9609 93.0836 90.1134L87.6933 93.247C87.4294 93.401 86.9953 93.401 86.727 93.247L80.4759 89.6383C80.209 89.4843 80.209 89.2321 80.473 89.0796L85.8633 85.9475C86.1272 85.7935 86.5627 85.7935 86.8296 85.9475L93.0807 89.5562V89.5547Z" fill="#FE372F"/>
<path fill-rule="evenodd" clip-rule="evenodd" d="M86.7936 75.029L86.9916 79.2418L86.7804 90.4814L85.666 89.8391L85.6792 74.3867L86.7936 75.029Z" fill="black"/>
<path fill-rule="evenodd" clip-rule="evenodd" d="M86.7964 75.0299L87.8874 74.3965L87.8727 89.8474L86.7832 90.4824L86.7964 75.0299Z" fill="#2D2D2D"/>
<path fill-rule="evenodd" clip-rule="evenodd" d="M91.8296 76.3686L91.8018 66.4766L90.8516 65.9238L90.8794 75.8158C90.8794 76.288 90.9865 76.6736 91.1698 76.9567C91.2812 77.1267 91.419 77.2602 91.5803 77.354L92.5305 77.9068C92.0994 77.6561 91.8311 77.1238 91.8296 76.3672V76.3686Z" fill="black"/>
<path fill-rule="evenodd" clip-rule="evenodd" d="M91.8018 66.4756L90.8516 65.9227L91.488 65.5547L92.4382 66.1075L91.8018 66.4756Z" fill="#232323"/>
<path fill-rule="evenodd" clip-rule="evenodd" d="M94.2388 77.0102C93.2666 77.5718 92.4719 77.1187 92.4689 76.0014L92.4411 66.1094L91.8047 66.4774L91.8325 76.3694C91.8369 77.893 92.9191 78.5074 94.2418 77.7434L94.2388 77.0117V77.0102Z" fill="#2D2D2D"/>
<path fill-rule="evenodd" clip-rule="evenodd" d="M97.0613 76.2852C97.0613 76.3218 97.0539 76.357 97.0436 76.3937C97.0436 76.3981 97.0407 76.401 97.0407 76.4054C97.029 76.4391 97.0114 76.4714 96.9909 76.5036C96.9865 76.5095 96.9835 76.5154 96.9791 76.5212C96.9557 76.552 96.9278 76.5843 96.8956 76.6136C96.875 76.6327 96.8472 76.6503 96.8222 76.6679C96.8002 76.6825 96.7812 76.7001 96.7563 76.7133L88.464 81.5332L88.2969 82.0978L88.4596 82.8603L96.7518 78.0418C96.7518 78.0418 96.7606 78.0374 96.7636 78.0345C96.7841 78.0228 96.7988 78.0081 96.8164 77.9949C96.8413 77.9773 96.8677 77.9597 96.8882 77.9407C96.8897 77.9392 96.8926 77.9377 96.8956 77.9348C96.9205 77.9128 96.941 77.8893 96.9601 77.8644C96.9645 77.8586 96.9674 77.8542 96.9718 77.8483C96.9762 77.8424 96.9791 77.8366 96.9835 77.8307C96.9894 77.8219 96.9967 77.8116 97.0026 77.8028C97.0129 77.7823 97.0231 77.7632 97.0305 77.7427C97.0305 77.7398 97.0319 77.7368 97.0334 77.7339C97.0349 77.7295 97.0363 77.7266 97.0363 77.7222C97.0407 77.709 97.0451 77.6973 97.0481 77.6841C97.0525 77.6635 97.0539 77.643 97.0554 77.6225V77.6137L97.0598 76.2866L97.0613 76.2852Z" fill="#F92323"/>
<path fill-rule="evenodd" clip-rule="evenodd" d="M88.1457 81.6562C88.1295 81.6606 88.1119 81.665 88.0958 81.6679C87.9785 81.6928 87.8568 81.709 87.7336 81.709H87.7204C87.5899 81.709 87.4609 81.6943 87.3377 81.6664C87.3333 81.6664 87.3289 81.6635 87.323 81.6635C87.1984 81.6342 87.0826 81.5902 86.9814 81.533L77.3651 75.9814C77.1598 75.8626 77.0571 75.7057 77.0571 75.5488L77.0527 76.8773C77.0527 77.0342 77.1554 77.1911 77.3607 77.3099L86.977 82.8615C87.0239 82.8894 87.0752 82.9128 87.128 82.9348C87.1691 82.951 87.2116 82.9656 87.2556 82.9774C87.2761 82.9832 87.2981 82.9876 87.3187 82.9935C87.3231 82.9935 87.3274 82.9964 87.3333 82.9964C87.3436 82.9979 87.3538 83.0023 87.3656 83.0037C87.3993 83.0111 87.4345 83.0169 87.4697 83.0213C87.5034 83.0257 87.5371 83.0301 87.5723 83.0331C87.6061 83.036 87.6413 83.0375 87.6764 83.0389C87.6896 83.0389 87.7028 83.0389 87.7175 83.0389H87.7322C87.7498 83.0389 87.7674 83.0389 87.785 83.0389C87.8245 83.0375 87.8641 83.0345 87.9023 83.0301C87.9477 83.0257 87.9932 83.0199 88.0372 83.0111C88.0577 83.0067 88.0753 83.0008 88.0944 82.9964C88.1119 82.9935 88.1281 82.9891 88.1442 82.9847C88.175 82.9759 88.2073 82.9715 88.2351 82.9627C88.3172 82.9363 88.395 82.9026 88.4639 82.8615L88.4683 81.5345C88.3744 81.5887 88.2644 81.6283 88.1471 81.6576L88.1457 81.6562Z" fill="#F92323"/>
<path fill-rule="evenodd" clip-rule="evenodd" d="M96.7541 75.8541C97.1662 76.0932 97.1647 76.4788 96.7585 76.7149L88.4663 81.5348C88.0601 81.7709 87.393 81.7723 86.9809 81.5348L77.3646 75.9832C76.9555 75.7471 76.954 75.3585 77.3602 75.1224L85.6524 70.304C86.0586 70.0679 86.7287 70.0679 87.1378 70.304L96.7541 75.8556V75.8541Z" fill="#FF4A4A"/>
<path fill-rule="evenodd" clip-rule="evenodd" d="M97.2961 64.8615L97.2815 71.5657C97.2815 71.6229 97.2756 71.6757 97.2668 71.7255C97.2668 71.7255 97.2668 71.7284 97.2668 71.7299C97.2565 71.7798 97.2434 71.8223 97.2243 71.8619C97.2243 71.8619 97.2243 71.8619 97.2243 71.8634C97.2126 71.8897 97.1964 71.9088 97.1803 71.9308C97.148 71.9763 97.1099 72.0173 97.0645 72.0437L98.2126 71.3765C98.2581 71.3501 98.2947 71.3105 98.3284 71.2636C98.3328 71.2578 98.3387 71.2548 98.3431 71.249C98.3534 71.2328 98.3622 71.2152 98.371 71.1976C98.371 71.1976 98.371 71.1962 98.371 71.1947C98.371 71.1947 98.371 71.1947 98.371 71.1932C98.3768 71.1815 98.3827 71.1683 98.3871 71.1551C98.3915 71.1419 98.3959 71.1302 98.4003 71.1155C98.4047 71.1023 98.4076 71.0906 98.4106 71.0774C98.4106 71.073 98.412 71.0671 98.4135 71.0613C98.4135 71.0598 98.4135 71.0583 98.4135 71.0569C98.4135 71.051 98.4164 71.0466 98.4164 71.0407C98.4179 71.029 98.4208 71.0173 98.4208 71.0055C98.4223 70.9938 98.4238 70.9821 98.4252 70.9703C98.4252 70.9586 98.4267 70.9469 98.4282 70.9352C98.4282 70.9234 98.4282 70.9117 98.4282 70.8985L98.4428 64.1914L97.2947 64.8586L97.2961 64.8615Z" fill="#F92323"/>
<path fill-rule="evenodd" clip-rule="evenodd" d="M96.8398 63.8104C96.8398 63.8104 96.8413 63.8119 96.8427 63.8134C96.8867 63.8603 96.9278 63.9102 96.9674 63.9644V63.9659C97.0055 64.0187 97.0422 64.0729 97.0744 64.1286C97.0759 64.1316 97.0788 64.1345 97.0788 64.1374C97.1111 64.1946 97.1404 64.2518 97.1668 64.3105V64.3119C97.1932 64.3721 97.2152 64.4336 97.2343 64.4952V64.4982C97.2533 64.5597 97.2665 64.6213 97.2768 64.6815C97.2871 64.743 97.2914 64.8046 97.2914 64.8633L98.4396 64.1961C98.4396 64.1844 98.4396 64.1741 98.4396 64.1624C98.4396 64.1506 98.4396 64.1389 98.4381 64.1272C98.4381 64.1154 98.4367 64.1022 98.4352 64.0905C98.4352 64.0788 98.4323 64.0671 98.4308 64.0539C98.4293 64.0421 98.4279 64.0289 98.4249 64.0172V64.0143C98.4235 64.0025 98.4205 63.9908 98.4191 63.9791C98.4161 63.9659 98.4147 63.9541 98.4117 63.941C98.4088 63.9278 98.4059 63.9146 98.4029 63.9014C98.4 63.8882 98.3956 63.875 98.3927 63.8618C98.3897 63.8515 98.3868 63.8412 98.3839 63.831C98.3839 63.831 98.3839 63.831 98.3839 63.828C98.3839 63.8266 98.3839 63.8236 98.3824 63.8222C98.378 63.8104 98.3736 63.7972 98.3707 63.784C98.3663 63.7709 98.3619 63.7591 98.3575 63.7459C98.3531 63.7342 98.3487 63.721 98.3428 63.7093C98.3384 63.6961 98.334 63.6843 98.3282 63.6726C98.3238 63.6638 98.3208 63.655 98.3164 63.6447C98.3164 63.6447 98.3164 63.6447 98.3164 63.6433C98.3164 63.6418 98.315 63.6389 98.3135 63.636C98.3076 63.6242 98.3018 63.611 98.2959 63.5993C98.29 63.5861 98.2842 63.5729 98.2768 63.5597C98.2695 63.5436 98.2622 63.5304 98.2534 63.5142C98.2446 63.4996 98.2358 63.4834 98.2284 63.4688C98.227 63.4659 98.2241 63.4629 98.2226 63.46C98.2211 63.4556 98.2182 63.4527 98.2167 63.4497C98.1991 63.4204 98.1801 63.3896 98.161 63.3617C98.1463 63.3397 98.1317 63.3192 98.1155 63.2972V63.2958C98.1053 63.2811 98.0935 63.2664 98.0818 63.2518C98.073 63.24 98.0627 63.2268 98.0525 63.2166C98.0437 63.2048 98.0334 63.1931 98.0232 63.1828C98.0144 63.1726 98.0041 63.1609 97.9938 63.1506C97.9924 63.1506 97.9909 63.1477 97.9894 63.1462C97.9894 63.1462 97.988 63.1447 97.9865 63.1433C97.9792 63.1345 97.9704 63.1257 97.963 63.1183C97.9528 63.1081 97.9425 63.0978 97.9323 63.0875C97.922 63.0758 97.9103 63.067 97.9 63.0567C97.8883 63.0465 97.878 63.0377 97.8663 63.0274C97.8619 63.023 97.856 63.0186 97.8501 63.0142C97.8501 63.0142 97.8472 63.0128 97.8457 63.0113C97.8413 63.0069 97.8369 63.004 97.8325 63.001C97.8223 62.9922 97.8105 62.9849 97.8003 62.9761C97.79 62.9673 97.7797 62.96 97.768 62.9526C97.7577 62.9453 97.7475 62.938 97.7372 62.9321C97.727 62.9262 97.7167 62.9189 97.7064 62.913C97.7035 62.9116 97.702 62.9101 97.6991 62.9086L88.0872 57.3585C88.0798 57.3541 88.071 57.3497 88.0637 57.3453C88.0534 57.3394 88.0432 57.335 88.0329 57.3292C88.0227 57.3248 88.0124 57.3189 88.0036 57.3145C87.9933 57.3101 87.9831 57.3057 87.9743 57.3013C87.964 57.2969 87.9537 57.294 87.9449 57.2911C87.942 57.2911 87.9405 57.2896 87.9376 57.2881C87.9376 57.2881 87.9376 57.2881 87.9361 57.2881C87.9288 57.2852 87.9215 57.2837 87.9141 57.2808C87.9039 57.2779 87.8936 57.2749 87.8833 57.272C87.8731 57.2691 87.8628 57.2676 87.8526 57.2661C87.8408 57.2632 87.8306 57.2617 87.8203 57.2603C87.813 57.2603 87.8056 57.2603 87.7983 57.2573H87.7954C87.7954 57.2573 87.791 57.2573 87.788 57.2573C87.7763 57.2573 87.7646 57.2559 87.7528 57.2559C87.7396 57.2559 87.7264 57.2559 87.7147 57.2573C87.7001 57.2573 87.6854 57.2603 87.6722 57.2632C87.6561 57.2661 87.6385 57.2705 87.6223 57.2764C87.6018 57.2837 87.5813 57.294 87.5622 57.3042L86.4141 57.9714C86.4478 57.9524 86.4844 57.9377 86.524 57.9304C86.524 57.9304 86.524 57.9304 86.5255 57.9304C86.5651 57.9216 86.6062 57.9201 86.6502 57.9245H86.6531C86.6971 57.9289 86.7425 57.9392 86.7909 57.9538C86.7909 57.9538 86.7924 57.9538 86.7939 57.9538C86.8422 57.97 86.8921 57.9934 86.9434 58.0228L96.5553 63.5729C96.6067 63.6022 96.6565 63.6374 96.7034 63.6755C96.7034 63.6755 96.7064 63.677 96.7078 63.6785C96.7548 63.7166 96.8002 63.7606 96.8442 63.806L96.8398 63.8104Z" fill="#F92323"/>
<path fill-rule="evenodd" clip-rule="evenodd" d="M96.5502 63.5776L86.9383 58.0274C86.5262 57.7899 86.1919 57.9834 86.1904 58.4541L86.1758 65.1583C86.1758 65.629 86.5057 66.2067 86.9192 66.4458L96.5311 71.9959C96.9432 72.2334 97.2775 72.0399 97.279 71.5692L97.2937 64.865C97.2937 64.3943 96.9637 63.8166 96.5502 63.5776Z" fill="#FE372F"/>
<path fill-rule="evenodd" clip-rule="evenodd" d="M104.651 76.3306C104.511 76.4112 104.397 76.6077 104.398 76.7675C104.398 76.9274 104.504 76.9758 104.652 76.9127C104.922 76.7969 104.94 76.6268 104.904 76.4757C104.868 76.3203 104.79 76.2499 104.651 76.3306Z" fill="#ECF3F6"/>
<path fill-rule="evenodd" clip-rule="evenodd" d="M58.9898 77.1089L59.0118 67.2169L59.7538 66.6641L59.7318 76.5561C59.7318 77.0282 59.6482 77.4139 59.5045 77.6969C59.418 77.867 59.3095 78.0004 59.1834 78.0943L58.4414 78.6471C58.7787 78.3963 58.9884 77.864 58.9898 77.1074V77.1089Z" fill="black"/>
<path fill-rule="evenodd" clip-rule="evenodd" d="M59.0127 67.2158L59.7562 66.663L59.2576 66.2949L58.5156 66.8477L59.0127 67.2158Z" fill="#232323"/>
<path fill-rule="evenodd" clip-rule="evenodd" d="M57.1084 77.7505C57.868 78.3121 58.4882 77.859 58.4912 76.7416L58.5132 66.8496L59.0103 67.2177L58.9883 77.1097C58.9853 78.6332 58.1392 79.2476 57.1055 78.4836V77.7519L57.1084 77.7505Z" fill="#2D2D2D"/>
<path fill-rule="evenodd" clip-rule="evenodd" d="M58.293 93.7441C58.293 93.7676 58.2974 93.7911 58.3047 93.8145C58.3047 93.8175 58.3047 93.8189 58.3062 93.8219C58.3135 93.8438 58.3252 93.8644 58.3384 93.8849C58.3414 93.8893 58.3428 93.8922 58.3458 93.8966C58.3604 93.9172 58.3795 93.9377 58.4 93.9568C58.4132 93.97 58.4308 93.9802 58.4469 93.992C58.4616 94.0022 58.4733 94.0125 58.4895 94.0213L63.8798 97.1549L63.8827 98.0171L58.4924 94.885C58.4924 94.885 58.4865 94.882 58.4836 94.8806C58.4704 94.8718 58.4616 94.863 58.4499 94.8556C58.4337 94.8439 58.4161 94.8336 58.4029 94.8204C58.4029 94.8204 58.4 94.819 58.3985 94.8175C58.3824 94.8028 58.3692 94.7882 58.356 94.7721C58.3531 94.7677 58.3516 94.7647 58.3487 94.7603C58.3458 94.7574 58.3443 94.753 58.3414 94.7486C58.337 94.7427 58.3326 94.7369 58.3282 94.7295C58.3208 94.7163 58.315 94.7031 58.3106 94.6899C58.3106 94.6885 58.3106 94.6855 58.3091 94.6841C58.3091 94.6811 58.3091 94.6797 58.3076 94.6767C58.3047 94.6679 58.3018 94.6606 58.3003 94.6518C58.2974 94.6386 58.2959 94.6254 58.2959 94.6122V94.6064L58.293 93.7441Z" fill="#F92323"/>
<path fill-rule="evenodd" clip-rule="evenodd" d="M64.091 97.237C64.1028 97.2399 64.113 97.2429 64.1248 97.2458C64.201 97.2619 64.2802 97.2722 64.3608 97.2722C64.3638 97.2722 64.3667 97.2722 64.3696 97.2722C64.4547 97.2722 64.5383 97.2619 64.6189 97.2443C64.6219 97.2443 64.6248 97.2443 64.6277 97.2429C64.7084 97.2238 64.7846 97.1959 64.8506 97.1578L71.1017 93.5491C71.2351 93.4714 71.3025 93.3702 71.3011 93.2676L71.304 94.1313C71.304 94.2339 71.238 94.3351 71.1031 94.4128L64.8521 98.0215C64.8213 98.0391 64.789 98.0552 64.7538 98.0684C64.7274 98.0787 64.6996 98.0875 64.6702 98.0963C64.657 98.1007 64.6424 98.1036 64.6292 98.1065C64.6263 98.1065 64.6233 98.1065 64.6204 98.108C64.6131 98.108 64.6072 98.1109 64.5999 98.1124C64.5779 98.1168 64.5544 98.1212 64.5324 98.1241C64.5104 98.1271 64.4884 98.13 64.4664 98.1315C64.4444 98.1329 64.421 98.1344 64.399 98.1359C64.3902 98.1359 64.3814 98.1359 64.3726 98.1359H64.3638C64.352 98.1359 64.3403 98.1359 64.3286 98.1359C64.3037 98.1359 64.2773 98.1329 64.2523 98.13C64.223 98.1271 64.1937 98.1227 64.1643 98.1183C64.1512 98.1153 64.1394 98.1109 64.1262 98.1095C64.1145 98.1065 64.1042 98.1051 64.094 98.1007C64.0734 98.0948 64.0529 98.0919 64.0353 98.086C63.9811 98.0684 63.9312 98.0464 63.8857 98.02L63.8828 97.1578C63.9444 97.193 64.0162 97.2194 64.091 97.2385V97.237Z" fill="#F92323"/>
<path fill-rule="evenodd" clip-rule="evenodd" d="M58.494 93.4649C58.2257 93.6203 58.2272 93.8711 58.4911 94.0236L63.8814 97.1572C64.1454 97.3111 64.5794 97.3111 64.8477 97.1572L71.0988 93.5485C71.3642 93.3945 71.3657 93.1423 71.1017 92.9898L65.7114 89.8577C65.4475 89.7037 65.012 89.7037 64.7451 89.8577L58.494 93.4663V93.4649Z" fill="#FE372F"/>
<path fill-rule="evenodd" clip-rule="evenodd" d="M64.778 78.9391L64.5801 83.152L64.7912 94.3915L65.9057 93.7493L65.8925 78.2969L64.778 78.9391Z" fill="black"/>
<path fill-rule="evenodd" clip-rule="evenodd" d="M64.7804 78.9382L63.6895 78.3047L63.7041 93.7571L64.7936 94.3905L64.7804 78.9382Z" fill="#2D2D2D"/>
<path fill-rule="evenodd" clip-rule="evenodd" d="M54.791 79.1772C54.791 79.2139 54.7984 79.2491 54.8086 79.2858C54.8086 79.2902 54.8101 79.2931 54.8115 79.2975C54.8233 79.3312 54.8409 79.3635 54.8614 79.3957C54.8658 79.4016 54.8687 79.4075 54.8731 79.4133C54.8966 79.4441 54.9245 79.4749 54.9567 79.5043C54.9772 79.5233 55.0051 79.5409 55.03 79.5585C55.052 79.5732 55.0711 79.5908 55.096 79.604L63.3882 84.4239L63.5554 84.9884L63.3926 85.7509L55.1004 80.9325C55.1004 80.9325 55.0916 80.9281 55.0872 80.9251C55.0667 80.9134 55.052 80.8987 55.0344 80.8856C55.0095 80.868 54.9831 80.8504 54.9626 80.8313C54.9596 80.8298 54.9582 80.8284 54.9553 80.8254C54.9303 80.8034 54.9098 80.78 54.8907 80.755C54.8863 80.7492 54.8834 80.7448 54.879 80.7374C54.8746 80.7316 54.8717 80.7257 54.8673 80.7199C54.8614 80.7111 54.8541 80.7008 54.8482 80.692C54.8365 80.6715 54.8277 80.6524 54.8203 80.6319C54.8203 80.6289 54.8189 80.626 54.8174 80.6231C54.8174 80.6187 54.8145 80.6157 54.8145 80.6113C54.8101 80.5981 54.8057 80.5864 54.8042 80.5732C54.7998 80.5527 54.7983 80.5322 54.7969 80.5116V80.5028L54.7925 79.1758L54.791 79.1772Z" fill="#F92323"/>
<path fill-rule="evenodd" clip-rule="evenodd" d="M63.7103 84.5502C63.7264 84.5546 63.744 84.559 63.7601 84.562C63.8775 84.5869 63.9992 84.603 64.1223 84.603H64.137C64.266 84.603 64.3965 84.5883 64.5197 84.5605C64.5241 84.5605 64.5285 84.5576 64.5344 84.5576C64.659 84.5282 64.7749 84.4842 64.876 84.427L74.4924 78.8754C74.6977 78.7567 74.8003 78.5998 74.8003 78.4414L74.8047 79.7699C74.8047 79.9268 74.7021 80.0837 74.4968 80.2025L64.8804 85.7541C64.8335 85.782 64.7822 85.8054 64.7294 85.8274C64.6883 85.8435 64.6458 85.8582 64.6018 85.8699C64.5813 85.8758 64.5593 85.8802 64.5388 85.8861C64.5344 85.8861 64.53 85.889 64.5256 85.889C64.5153 85.8905 64.505 85.8949 64.4933 85.8963C64.4596 85.9037 64.4244 85.9095 64.3892 85.9139C64.3555 85.9183 64.3218 85.9227 64.2866 85.9257C64.2528 85.9286 64.2176 85.9301 64.1825 85.9315C64.1693 85.9315 64.1561 85.9315 64.1414 85.9315H64.1282C64.1106 85.9315 64.0915 85.9315 64.0739 85.9315C64.0344 85.9301 63.9948 85.9271 63.9566 85.9227C63.9112 85.9183 63.8657 85.9125 63.8217 85.9037C63.8012 85.8993 63.7836 85.8934 63.7645 85.889C63.7469 85.8846 63.7308 85.8817 63.7147 85.8773C63.6839 85.8685 63.6531 85.8641 63.6238 85.8538C63.5417 85.8274 63.4639 85.7937 63.395 85.7526L63.3906 84.4256C63.4845 84.4798 63.5944 84.5194 63.7118 84.5488L63.7103 84.5502Z" fill="#F92323"/>
<path fill-rule="evenodd" clip-rule="evenodd" d="M55.1 78.7448C54.688 78.9838 54.6895 79.3694 55.0957 79.6055L63.3879 84.4254C63.794 84.6615 64.4612 84.663 64.8733 84.4254L74.4896 78.8738C74.8987 78.6377 74.9016 78.2492 74.494 78.0131L66.2018 73.1946C65.7956 72.9586 65.1255 72.9586 64.7164 73.1946L55.1 78.7462V78.7448Z" fill="#FF4A4A"/>
<path fill-rule="evenodd" clip-rule="evenodd" d="M53.3107 64.9006L53.3254 71.6047C53.3254 71.6619 53.3313 71.7147 53.3401 71.7646C53.3401 71.7646 53.3401 71.7675 53.3401 71.769C53.3503 71.8188 53.365 71.8614 53.3826 71.9009C53.3826 71.9009 53.3826 71.9009 53.3826 71.9024C53.3943 71.9288 53.4105 71.9479 53.4266 71.9699C53.4589 72.0153 53.497 72.0564 53.541 72.0828L52.3928 71.4156C52.3474 71.3892 52.3107 71.3496 52.2784 71.3027C52.274 71.2968 52.2682 71.2939 52.2638 71.288C52.2535 71.2719 52.2432 71.2543 52.2359 71.2367C52.2359 71.2367 52.2359 71.2352 52.2359 71.2338C52.2359 71.2338 52.2359 71.2338 52.2359 71.2323C52.2301 71.2206 52.2242 71.2074 52.2198 71.1942C52.2154 71.181 52.211 71.1692 52.2066 71.1546C52.2022 71.1428 52.1993 71.1296 52.1963 71.1164C52.1963 71.1121 52.1949 71.1062 52.1934 71.1003C52.1934 71.0989 52.1934 71.0974 52.1934 71.0959C52.1934 71.0901 52.1905 71.0857 52.1905 71.0798C52.189 71.0681 52.1861 71.0563 52.1846 71.0446C52.1846 71.0329 52.1817 71.0211 52.1817 71.0094C52.1817 70.9977 52.1802 70.9859 52.1787 70.9742C52.1787 70.9625 52.1787 70.9508 52.1787 70.9376L52.1641 64.2305L53.3122 64.8977L53.3107 64.9006Z" fill="#F92323"/>
<path fill-rule="evenodd" clip-rule="evenodd" d="M53.7639 63.8471C53.7639 63.8471 53.7624 63.8485 53.7609 63.85C53.7169 63.8969 53.6759 63.9468 53.6363 63.9996V64.001C53.5982 64.0538 53.563 64.1081 53.5292 64.1638C53.5278 64.1667 53.5248 64.1697 53.5234 64.1726C53.4911 64.2298 53.4618 64.287 53.4369 64.3456V64.3471C53.4105 64.4072 53.3885 64.4688 53.3694 64.5304C53.3694 64.5304 53.3694 64.5319 53.3694 64.5333C53.3503 64.5949 53.3357 64.6565 53.3269 64.7166C53.3166 64.7782 53.3122 64.8398 53.3122 64.8984L52.1641 64.2313C52.1641 64.2195 52.1641 64.2093 52.1641 64.1975C52.1641 64.1858 52.1641 64.1741 52.1655 64.1623C52.1655 64.1506 52.167 64.1374 52.1685 64.1257C52.1685 64.1139 52.1714 64.1022 52.1729 64.089C52.1743 64.0773 52.1758 64.0641 52.1787 64.0524C52.1787 64.0524 52.1787 64.0509 52.1787 64.0494C52.1802 64.0377 52.1831 64.026 52.1846 64.0142C52.1875 64.001 52.189 63.9893 52.1919 63.9761C52.1949 63.9629 52.1978 63.9497 52.2007 63.9365C52.2037 63.9233 52.2081 63.9101 52.211 63.8969C52.2139 63.8867 52.2169 63.8764 52.2198 63.8661C52.2198 63.8661 52.2198 63.8661 52.2198 63.8632C52.2198 63.8617 52.2198 63.8588 52.2213 63.8573C52.2257 63.8456 52.2286 63.8324 52.233 63.8192C52.2374 63.806 52.2418 63.7943 52.2462 63.7811C52.2506 63.7694 52.255 63.7562 52.2594 63.7444C52.2638 63.7312 52.2696 63.7195 52.274 63.7078C52.2784 63.699 52.2814 63.6902 52.2858 63.6814C52.2858 63.6814 52.2858 63.6814 52.2858 63.6799C52.2858 63.6784 52.2872 63.6755 52.2887 63.6726C52.2946 63.6608 52.3004 63.6476 52.3048 63.6359C52.3107 63.6227 52.318 63.6095 52.3239 63.5963C52.3312 63.5802 52.34 63.567 52.3474 63.5509C52.3562 63.5362 52.3635 63.5201 52.3723 63.5054C52.3738 63.5025 52.3752 63.4995 52.3781 63.4966C52.3796 63.4922 52.3825 63.4893 52.384 63.4863C52.4016 63.457 52.4207 63.4262 52.4397 63.3984C52.4544 63.3764 52.4691 63.3558 52.4852 63.3338V63.3324C52.4955 63.3177 52.5072 63.3031 52.5189 63.2884C52.5277 63.2767 52.538 63.2635 52.5482 63.2532C52.557 63.2415 52.5673 63.2297 52.5776 63.2195C52.5864 63.2092 52.5966 63.1975 52.6069 63.1872C52.6069 63.1872 52.6098 63.1843 52.6113 63.1828C52.6113 63.1828 52.6128 63.1813 52.6142 63.1799C52.6216 63.1711 52.6304 63.1638 52.6377 63.155C52.648 63.1447 52.6582 63.1344 52.6685 63.1242C52.6788 63.1124 52.6905 63.1036 52.7007 63.0934C52.7125 63.0831 52.7227 63.0743 52.7345 63.064L52.7506 63.0508C52.7506 63.0508 52.7535 63.0494 52.755 63.0479C52.7594 63.0435 52.7638 63.0406 52.7682 63.0376C52.7785 63.0288 52.7902 63.0215 52.8005 63.0127C52.8107 63.0039 52.8225 62.9966 52.8327 62.9893C52.843 62.9819 52.8532 62.9746 52.865 62.9687C52.8752 62.9629 52.8855 62.9555 52.8958 62.9497C52.8987 62.9482 52.9002 62.9467 52.9031 62.9453L62.515 57.3951C62.5238 57.3907 62.5312 57.3863 62.5385 57.3819C62.5488 57.3761 62.559 57.3717 62.5693 57.3658C62.5795 57.3614 62.5898 57.3555 62.5986 57.3511C62.6089 57.3467 62.6191 57.3423 62.6279 57.3379C62.6382 57.3335 62.6485 57.3306 62.6573 57.3277C62.6602 57.3277 62.6617 57.3262 62.6646 57.3247C62.6646 57.3247 62.6646 57.3247 62.6661 57.3247C62.6734 57.3218 62.6807 57.3203 62.6881 57.3174C62.6983 57.3145 62.7086 57.3115 62.7189 57.3086C62.7291 57.3057 62.7394 57.3042 62.7496 57.3013C62.7614 57.2998 62.7716 57.2969 62.7819 57.2954C62.7892 57.2954 62.7966 57.2954 62.8039 57.2925H62.8068C62.8068 57.2925 62.8112 57.2925 62.8142 57.2925C62.8259 57.2925 62.8376 57.291 62.8494 57.291C62.8626 57.291 62.8758 57.291 62.8875 57.2925C62.9021 57.2925 62.9168 57.2954 62.93 57.2984C62.9461 57.3013 62.9637 57.3057 62.9799 57.3115C63.0004 57.3189 63.0209 57.3291 63.04 57.3394L64.1881 58.0066C64.1544 57.9875 64.1177 57.9729 64.0782 57.9655C64.0782 57.9655 64.0782 57.9655 64.0767 57.9655C64.0371 57.9567 63.996 57.9553 63.9521 57.9597H63.9491C63.9051 57.9641 63.8597 57.9743 63.8113 57.989C63.8113 57.989 63.8098 57.989 63.8084 57.989C63.76 58.0051 63.7101 58.0286 63.6588 58.0579L54.0469 63.6081C53.9955 63.6374 53.9457 63.6726 53.8988 63.7107C53.8988 63.7107 53.8958 63.7122 53.8944 63.7136C53.8474 63.7518 53.802 63.7957 53.758 63.8412L53.7639 63.8471Z" fill="#F92323"/>
<path fill-rule="evenodd" clip-rule="evenodd" d="M54.054 63.6147L63.6659 58.0645C64.078 57.827 64.4123 58.0206 64.4138 58.4913L64.4284 65.1954C64.4284 65.6661 64.0985 66.2438 63.685 66.4829L54.0731 72.033C53.661 72.2705 53.3267 72.077 53.3252 71.6063L53.3105 64.9021C53.3105 64.4314 53.6405 63.8537 54.054 63.6147Z" fill="#FE372F"/>
<path d="M79.0104 107.941C77.3607 108.9 74.6773 108.9 73.0145 107.941C72.1787 107.459 71.7608 106.825 71.7637 106.193V106.635C71.7608 107.267 72.1772 107.9 73.013 108.383C74.6744 109.342 77.3578 109.342 79.0089 108.383C79.8286 107.906 80.2392 107.283 80.2421 106.658C80.2421 106.51 80.2421 106.363 80.2421 106.217C80.2407 106.841 79.8301 107.465 79.0089 107.941H79.0104Z" fill="black"/>
<path d="M78.9892 104.469C77.3293 103.51 74.6444 103.51 72.9933 104.469C71.3436 105.428 71.3524 106.984 73.0124 107.942C74.6752 108.901 77.3571 108.901 79.0083 107.942C80.6594 106.983 80.6506 105.428 78.9892 104.468V104.469Z" fill="#2D2D2D"/>
<path d="M76.7059 86.7919C76.3188 87.0163 75.6912 87.0163 75.3011 86.7919C75.1061 86.679 75.0079 86.5309 75.0093 86.3828C74.9917 92.7746 74.9727 99.951 74.9551 106.344C74.9551 106.492 75.0519 106.64 75.2483 106.753C75.6384 106.978 76.266 106.978 76.6531 106.753C76.8452 106.642 76.942 106.495 76.942 106.349L76.9962 86.3872C76.9962 86.5339 76.8995 86.679 76.7074 86.7919H76.7059Z" fill="#2D2D2D"/>
<path d="M76.7027 85.9808C76.3141 85.7564 75.685 85.7564 75.2979 85.9808C74.9123 86.2051 74.9137 86.5702 75.3023 86.7946C75.6924 87.0189 76.32 87.0189 76.7071 86.7946C77.0942 86.5702 77.0913 86.2051 76.7027 85.9808Z" fill="#397F87"/>
<path d="M86.6045 91.9131C80.7728 95.3018 71.2855 95.3048 65.4113 91.9131C62.4581 90.2077 60.9829 87.9686 60.9888 85.7324L60.9844 87.2941C60.9785 89.5303 62.4537 91.7694 65.4069 93.4748C71.2811 96.8664 80.7684 96.8635 86.6001 93.4748C89.499 91.7899 90.9507 89.586 90.9566 87.3791C90.9566 86.8586 90.9595 86.338 90.961 85.8175C90.9551 88.0243 89.5034 90.2268 86.6045 91.9116V91.9131Z" fill="#BAC2D1"/>
<path d="M86.5371 79.6359C80.6673 76.2471 71.18 76.2456 65.3439 79.6359C59.5122 83.0246 59.543 88.5219 65.4128 91.9107C71.287 95.3023 80.7743 95.2994 86.606 91.9107C92.4421 88.519 92.4113 83.0261 86.5371 79.6344V79.6359Z" fill="#F0F4FA"/>
<path fill-rule="evenodd" clip-rule="evenodd" d="M71.2363 124.033C71.2363 124.057 71.2407 124.08 71.2481 124.104C71.2481 124.107 71.2481 124.108 71.2495 124.111C71.2569 124.133 71.2686 124.153 71.2818 124.174C71.2847 124.178 71.2862 124.181 71.2891 124.186C71.3038 124.206 71.3228 124.227 71.3434 124.246C71.3566 124.259 71.3742 124.269 71.3903 124.281C71.405 124.291 71.4167 124.302 71.4328 124.31L76.8231 127.444L76.8261 128.306L71.4357 125.174C71.4357 125.174 71.4299 125.171 71.427 125.17C71.4138 125.161 71.405 125.152 71.3932 125.145C71.3771 125.133 71.3595 125.123 71.3463 125.11C71.3463 125.11 71.3434 125.108 71.3419 125.107C71.3258 125.092 71.3126 125.077 71.2994 125.061C71.2964 125.057 71.295 125.054 71.292 125.049C71.2891 125.046 71.2876 125.042 71.2847 125.038C71.2803 125.032 71.2759 125.026 71.2715 125.019C71.2642 125.005 71.2583 124.992 71.2539 124.979C71.2539 124.978 71.2539 124.975 71.2525 124.973C71.2525 124.97 71.2525 124.969 71.251 124.966C71.2481 124.957 71.2451 124.95 71.2437 124.941C71.2407 124.928 71.2393 124.914 71.2393 124.901V124.895L71.2363 124.033Z" fill="#F92323"/>
<path fill-rule="evenodd" clip-rule="evenodd" d="M77.0324 127.526C77.0442 127.529 77.0544 127.532 77.0662 127.535C77.1424 127.551 77.2216 127.561 77.3022 127.561C77.3052 127.561 77.3081 127.561 77.311 127.561C77.3961 127.561 77.4797 127.551 77.5603 127.533C77.5633 127.533 77.5662 127.533 77.5691 127.532C77.6498 127.513 77.726 127.485 77.792 127.447L84.0431 123.838C84.1765 123.76 84.2439 123.659 84.2425 123.557L84.2454 124.42C84.2454 124.523 84.1794 124.624 84.0445 124.702L77.7935 128.311C77.7627 128.328 77.7304 128.344 77.6952 128.357C77.6688 128.368 77.641 128.377 77.6116 128.385C77.5985 128.39 77.5838 128.393 77.5706 128.396C77.5677 128.396 77.5647 128.396 77.5618 128.397C77.5545 128.397 77.5486 128.4 77.5413 128.401C77.5193 128.406 77.4958 128.41 77.4738 128.413C77.4518 128.416 77.4298 128.419 77.4078 128.421C77.3858 128.422 77.3624 128.423 77.3404 128.425C77.3316 128.425 77.3228 128.425 77.314 128.425H77.3052C77.2934 128.425 77.2817 128.425 77.27 128.425C77.2451 128.425 77.2187 128.422 77.1937 128.419C77.1644 128.416 77.1351 128.412 77.1058 128.407C77.0926 128.404 77.0808 128.4 77.0676 128.399C77.0559 128.396 77.0456 128.394 77.0354 128.39C77.0148 128.384 76.9943 128.381 76.9767 128.375C76.9225 128.357 76.8726 128.335 76.8271 128.309L76.8242 127.447C76.8858 127.482 76.9577 127.508 77.0324 127.528V127.526Z" fill="#F92323"/>
<path fill-rule="evenodd" clip-rule="evenodd" d="M71.4374 123.752C71.1691 123.907 71.1705 124.158 71.4345 124.311L76.8248 127.444C77.0887 127.598 77.5228 127.598 77.7911 127.444L84.0421 123.836C84.3076 123.682 84.309 123.429 84.0451 123.277L78.6548 120.145C78.3908 119.991 77.9553 119.991 77.6885 120.145L71.4374 123.753V123.752Z" fill="#FE372F"/>
<path fill-rule="evenodd" clip-rule="evenodd" d="M77.7234 109.226L77.5254 113.439L77.738 124.679L78.851 124.036L78.8378 108.584L77.7234 109.226Z" fill="black"/>
<path fill-rule="evenodd" clip-rule="evenodd" d="M77.7218 109.227L76.6309 108.594L76.6455 124.046L77.7365 124.68L77.7218 109.227Z" fill="#2D2D2D"/>
<path fill-rule="evenodd" clip-rule="evenodd" d="M72.6445 108.521L81.8151 113.816C81.9265 113.881 82.035 113.927 82.1406 113.966C82.1611 113.973 82.1817 113.98 82.2022 113.986C82.3019 114.018 82.3987 114.04 82.4911 114.049C82.4999 114.049 82.5072 114.051 82.516 114.052C82.6157 114.059 82.711 114.055 82.799 114.037C82.8034 114.037 82.8093 114.034 82.8137 114.034C82.9046 114.015 82.9911 113.983 83.0674 113.938L82.1172 114.491C82.1172 114.491 82.1113 114.495 82.1084 114.496C82.079 114.513 82.0497 114.527 82.0189 114.54C81.9896 114.554 81.9573 114.564 81.9251 114.574C81.9045 114.58 81.884 114.584 81.862 114.589C81.8576 114.589 81.8532 114.592 81.8473 114.593C81.84 114.593 81.8327 114.598 81.8254 114.598C81.7916 114.603 81.755 114.608 81.7183 114.609C81.6802 114.612 81.6421 114.612 81.601 114.609C81.5893 114.609 81.5761 114.606 81.5629 114.605C81.5541 114.605 81.5467 114.603 81.5379 114.602C81.5159 114.6 81.4925 114.599 81.4705 114.595C81.4206 114.586 81.3679 114.576 81.3151 114.561C81.2931 114.555 81.2711 114.545 81.2491 114.537C81.2285 114.532 81.208 114.524 81.1875 114.517C81.1611 114.507 81.1347 114.501 81.1083 114.489C81.0277 114.455 80.9455 114.414 80.862 114.367L71.6914 109.072L72.6416 108.52L72.6445 108.521Z" fill="black"/>
<path fill-rule="evenodd" clip-rule="evenodd" d="M71.6948 109.077L80.8654 114.372C81.8376 114.933 82.6323 114.48 82.6367 113.363L82.6646 103.471L83.301 103.839L83.2731 113.731C83.2687 115.254 82.1866 115.869 80.8639 115.105L71.6934 109.81V109.078L71.6948 109.077Z" fill="#2D2D2D"/>
<path fill-rule="evenodd" clip-rule="evenodd" d="M67.7363 109.466C67.7363 109.503 67.7437 109.538 67.7539 109.575C67.7539 109.579 67.7554 109.582 67.7569 109.587C67.7686 109.62 67.7862 109.653 67.8067 109.685C67.8111 109.691 67.814 109.697 67.8184 109.702C67.8419 109.733 67.8698 109.764 67.902 109.793C67.9226 109.812 67.9504 109.83 67.9753 109.848C67.9973 109.862 68.0164 109.88 68.0413 109.893L76.3335 114.713L76.5007 115.277L76.3379 116.04L68.0457 111.222C68.0457 111.222 68.0369 111.217 68.0325 111.214C68.012 111.202 67.9973 111.188 67.9797 111.175C67.9548 111.157 67.9284 111.139 67.9079 111.12C67.905 111.119 67.9035 111.117 67.9006 111.114C67.8756 111.092 67.8551 111.069 67.836 111.044C67.8316 111.038 67.8287 111.034 67.8243 111.027C67.8199 111.021 67.817 111.015 67.8126 111.009C67.8067 111 67.7994 110.99 67.7935 110.981C67.7818 110.961 67.773 110.941 67.7657 110.921C67.7657 110.918 67.7642 110.915 67.7627 110.912C67.7627 110.908 67.7598 110.905 67.7598 110.9C67.7554 110.887 67.751 110.875 67.7495 110.862C67.7451 110.842 67.7437 110.821 67.7422 110.801V110.792L67.7378 109.465L67.7363 109.466Z" fill="#F92323"/>
<path fill-rule="evenodd" clip-rule="evenodd" d="M76.6536 114.837C76.6698 114.842 76.6874 114.846 76.7035 114.849C76.8208 114.874 76.9425 114.89 77.0657 114.89H77.0804C77.2094 114.89 77.3399 114.875 77.4631 114.848C77.4675 114.848 77.4719 114.845 77.4777 114.845C77.6024 114.815 77.7182 114.771 77.8194 114.714L87.4357 109.163C87.641 109.044 87.7437 108.887 87.7437 108.729L87.7481 110.057C87.7481 110.214 87.6454 110.371 87.4401 110.49L77.8238 116.041C77.7769 116.069 77.7256 116.093 77.6728 116.115C77.6317 116.131 77.5892 116.145 77.5452 116.157C77.5247 116.163 77.5027 116.167 77.4821 116.173C77.4777 116.173 77.4733 116.176 77.4689 116.176C77.4587 116.178 77.4484 116.182 77.4367 116.183C77.403 116.191 77.3678 116.197 77.3326 116.201C77.2988 116.205 77.2651 116.21 77.2299 116.213C77.1962 116.216 77.161 116.217 77.1258 116.219C77.1126 116.219 77.0994 116.219 77.0848 116.219H77.0716C77.054 116.219 77.0349 116.219 77.0173 116.219C76.9777 116.217 76.9381 116.214 76.9 116.21C76.8545 116.205 76.8091 116.2 76.7651 116.191C76.7446 116.186 76.727 116.181 76.7079 116.176C76.6903 116.172 76.6742 116.169 76.6581 116.164C76.6273 116.156 76.5965 116.151 76.5671 116.141C76.485 116.115 76.4073 116.081 76.3384 116.04L76.334 114.713C76.4278 114.767 76.5378 114.807 76.6551 114.836L76.6536 114.837Z" fill="#F92323"/>
<path fill-rule="evenodd" clip-rule="evenodd" d="M68.0454 109.032C67.6333 109.271 67.6348 109.657 68.041 109.893L76.3332 114.713C76.7394 114.949 77.4065 114.95 77.8186 114.713L87.4349 109.161C87.844 108.925 87.847 108.536 87.4393 108.3L79.1471 103.482C78.7409 103.246 78.0708 103.246 77.6617 103.482L68.0454 109.033V109.032Z" fill="#FF4A4A"/>
<path fill-rule="evenodd" clip-rule="evenodd" d="M77.8088 102.223L77.8235 108.927C77.8235 108.984 77.8293 109.037 77.8381 109.087C77.8381 109.087 77.8381 109.09 77.8381 109.091C77.8484 109.141 77.863 109.184 77.8806 109.223C77.8806 109.223 77.8806 109.223 77.8806 109.225C77.8924 109.251 77.9085 109.27 77.9246 109.292C77.9569 109.338 77.995 109.379 78.039 109.405L76.8909 108.738C76.8454 108.711 76.8087 108.672 76.7765 108.625C76.7721 108.619 76.7662 108.616 76.7618 108.61C76.7516 108.594 76.7413 108.577 76.734 108.559C76.734 108.559 76.734 108.557 76.734 108.556C76.734 108.556 76.734 108.556 76.734 108.555C76.7281 108.543 76.7222 108.53 76.7178 108.516C76.7134 108.503 76.709 108.492 76.7046 108.477C76.7002 108.465 76.6973 108.452 76.6944 108.439C76.6944 108.434 76.6929 108.428 76.6914 108.423C76.6914 108.421 76.6914 108.42 76.6914 108.418C76.6914 108.412 76.6885 108.408 76.6885 108.402C76.687 108.39 76.6841 108.379 76.6826 108.367C76.6826 108.355 76.6797 108.343 76.6797 108.332C76.6797 108.32 76.6782 108.308 76.6768 108.296C76.6768 108.285 76.6768 108.273 76.6768 108.26L76.6621 101.553L77.8103 102.22L77.8088 102.223Z" fill="#F92323"/>
<path fill-rule="evenodd" clip-rule="evenodd" d="M78.2619 101.169C78.2619 101.169 78.2604 101.171 78.259 101.172C78.215 101.219 78.1739 101.269 78.1343 101.322V101.323C78.0962 101.376 78.061 101.43 78.0273 101.486C78.0258 101.489 78.0229 101.492 78.0214 101.495C77.9892 101.552 77.9598 101.609 77.9349 101.668V101.669C77.9085 101.729 77.8865 101.791 77.8675 101.853C77.8675 101.853 77.8675 101.854 77.8675 101.856C77.8484 101.917 77.8337 101.979 77.8249 102.039C77.8147 102.1 77.8103 102.162 77.8103 102.221L76.6621 101.554C76.6621 101.542 76.6621 101.532 76.6621 101.52C76.6621 101.508 76.6621 101.496 76.6636 101.485C76.6636 101.473 76.665 101.46 76.6665 101.448C76.6665 101.436 76.6694 101.424 76.6709 101.411C76.6724 101.4 76.6738 101.386 76.6768 101.375C76.6768 101.375 76.6768 101.373 76.6768 101.372C76.6782 101.36 76.6812 101.348 76.6826 101.337C76.6856 101.323 76.687 101.312 76.69 101.298C76.6929 101.285 76.6958 101.272 76.6988 101.259C76.7017 101.246 76.7061 101.232 76.709 101.219C76.712 101.209 76.7149 101.199 76.7178 101.188C76.7178 101.188 76.7178 101.188 76.7178 101.185C76.7178 101.184 76.7178 101.181 76.7193 101.18C76.7237 101.168 76.7266 101.155 76.731 101.141C76.7354 101.128 76.7398 101.117 76.7442 101.103C76.7486 101.092 76.753 101.078 76.7574 101.067C76.7618 101.053 76.7677 101.042 76.7721 101.03C76.7765 101.021 76.7794 101.012 76.7838 101.004C76.7838 101.004 76.7838 101.004 76.7838 101.002C76.7838 101.001 76.7853 100.998 76.7868 100.995C76.7926 100.983 76.7985 100.97 76.8029 100.958C76.8087 100.945 76.8161 100.932 76.8219 100.919C76.8293 100.902 76.8381 100.889 76.8454 100.873C76.8542 100.858 76.8615 100.842 76.8703 100.828C76.8718 100.825 76.8733 100.822 76.8762 100.819C76.8777 100.814 76.8806 100.812 76.8821 100.809C76.8997 100.779 76.9187 100.748 76.9378 100.721C76.9524 100.699 76.9671 100.678 76.9832 100.656V100.655C76.9935 100.64 77.0052 100.625 77.017 100.611C77.0258 100.599 77.036 100.586 77.0463 100.575C77.0551 100.564 77.0654 100.552 77.0756 100.542C77.0844 100.531 77.0947 100.52 77.105 100.509C77.105 100.509 77.1079 100.507 77.1094 100.505C77.1094 100.505 77.1108 100.504 77.1123 100.502C77.1196 100.493 77.1284 100.486 77.1357 100.477C77.146 100.467 77.1563 100.457 77.1665 100.446C77.1768 100.435 77.1885 100.426 77.1988 100.416C77.2105 100.405 77.2208 100.397 77.2325 100.386L77.2486 100.373C77.2486 100.373 77.2516 100.372 77.2531 100.37C77.2575 100.366 77.2618 100.363 77.2662 100.36C77.2765 100.351 77.2882 100.344 77.2985 100.335C77.3088 100.326 77.3205 100.319 77.3308 100.312C77.341 100.304 77.3513 100.297 77.363 100.291C77.3733 100.285 77.3836 100.278 77.3938 100.272C77.3967 100.27 77.3982 100.269 77.4012 100.268L87.0131 94.7174C87.0219 94.713 87.0292 94.7086 87.0365 94.7042C87.0468 94.6983 87.0571 94.6939 87.0673 94.6881C87.0776 94.6837 87.0879 94.6778 87.0967 94.6734C87.1069 94.669 87.1172 94.6646 87.126 94.6602C87.1363 94.6558 87.1465 94.6529 87.1553 94.6499C87.1582 94.6499 87.1597 94.6485 87.1627 94.647C87.1627 94.647 87.1626 94.647 87.1641 94.647C87.1714 94.6441 87.1788 94.6426 87.1861 94.6397C87.1964 94.6367 87.2066 94.6338 87.2169 94.6309C87.2272 94.6279 87.2374 94.6265 87.2477 94.6235C87.2594 94.6221 87.2697 94.6192 87.28 94.6177C87.2873 94.6177 87.2946 94.6177 87.3019 94.6147H87.3049C87.3049 94.6147 87.3093 94.6147 87.3122 94.6147C87.3239 94.6147 87.3357 94.6133 87.3474 94.6133C87.3606 94.6133 87.3738 94.6133 87.3855 94.6147C87.4002 94.6147 87.4149 94.6177 87.4281 94.6206C87.4442 94.6235 87.4618 94.6279 87.4779 94.6338C87.4984 94.6411 87.519 94.6514 87.538 94.6617L88.6862 95.3289C88.6525 95.3098 88.6158 95.2951 88.5762 95.2878C88.5762 95.2878 88.5762 95.2878 88.5747 95.2878C88.5351 95.279 88.4941 95.2775 88.4501 95.2819H88.4472C88.4032 95.2863 88.3577 95.2966 88.3093 95.3113C88.3093 95.3113 88.3079 95.3113 88.3064 95.3113C88.258 95.3274 88.2082 95.3509 88.1568 95.3802L78.5449 100.93C78.4936 100.96 78.4437 100.995 78.3968 101.033C78.3968 101.033 78.3939 101.034 78.3924 101.036C78.3455 101.074 78.3 101.118 78.256 101.163L78.2619 101.169Z" fill="#F92323"/>
<path fill-rule="evenodd" clip-rule="evenodd" d="M78.552 100.939L88.164 95.3888C88.576 95.1512 88.9103 95.3448 88.9118 95.8155L88.9265 102.52C88.9265 102.99 88.5965 103.568 88.183 103.807L78.5711 109.357C78.1591 109.595 77.8247 109.401 77.8233 108.931L77.8086 102.226C77.8086 101.756 78.1385 101.178 78.552 100.939Z" fill="#FE372F"/>
<path fill-rule="evenodd" clip-rule="evenodd" d="M83.2732 113.728L83.301 103.836L84.2512 103.283L84.2234 113.175C84.2234 113.647 84.1163 114.033 83.933 114.316C83.8231 114.486 83.6838 114.62 83.5225 114.713L82.5723 115.266C83.0034 115.015 83.2717 114.483 83.2732 113.727V113.728Z" fill="black"/>
<path fill-rule="evenodd" clip-rule="evenodd" d="M83.3 103.835L84.2502 103.284L83.6123 102.916L82.6621 103.467L83.3 103.835Z" fill="#232323"/>
<path fill-rule="evenodd" clip-rule="evenodd" d="M80.8647 114.372C81.8369 114.933 82.6317 114.48 82.6361 113.363L82.664 103.471L83.3004 103.839L83.2725 113.731C83.2681 115.254 82.1859 115.869 80.8633 115.105V114.373L80.8647 114.372Z" fill="#2D2D2D"/>
<path fill-rule="evenodd" clip-rule="evenodd" d="M94.0312 107.128C94.0312 107.152 94.0357 107.175 94.043 107.199C94.043 107.202 94.043 107.203 94.0459 107.206C94.0533 107.228 94.065 107.249 94.0782 107.269C94.0811 107.274 94.0826 107.277 94.0855 107.281C94.1002 107.301 94.1178 107.322 94.1398 107.34C94.153 107.351 94.1706 107.363 94.1867 107.375C94.2013 107.385 94.2131 107.395 94.2292 107.404L99.6195 110.538L99.6224 111.4L94.2321 108.268C94.2321 108.268 94.2263 108.265 94.2233 108.263C94.2101 108.255 94.2013 108.246 94.1882 108.238C94.172 108.227 94.1544 108.216 94.1412 108.203C94.1412 108.203 94.1383 108.202 94.1368 108.2C94.1207 108.186 94.106 108.171 94.0943 108.155C94.0914 108.15 94.0899 108.148 94.087 108.143C94.084 108.14 94.0826 108.136 94.0796 108.131C94.0752 108.126 94.0708 108.12 94.0679 108.112C94.0606 108.099 94.0547 108.086 94.0503 108.073C94.0503 108.071 94.0503 108.068 94.0489 108.067C94.0489 108.064 94.0489 108.062 94.0459 108.06C94.043 108.051 94.0401 108.043 94.0386 108.035C94.0357 108.021 94.0342 108.008 94.0342 107.995V107.989L94.0312 107.127V107.128Z" fill="#F92323"/>
<path fill-rule="evenodd" clip-rule="evenodd" d="M99.8259 110.624C99.8362 110.627 99.8479 110.63 99.8582 110.632C99.9344 110.649 100.014 110.659 100.094 110.659H100.103C100.187 110.659 100.272 110.649 100.351 110.631C100.354 110.631 100.357 110.631 100.36 110.63C100.44 110.611 100.517 110.583 100.583 110.545L106.834 106.936C106.967 106.858 107.034 106.757 107.034 106.654L107.037 107.518C107.037 107.621 106.971 107.722 106.838 107.8L100.587 111.408C100.556 111.426 100.524 111.442 100.489 111.455C100.462 111.465 100.434 111.474 100.407 111.483C100.393 111.487 100.379 111.49 100.366 111.493C100.363 111.493 100.36 111.493 100.357 111.495C100.349 111.495 100.344 111.498 100.336 111.499C100.314 111.504 100.291 111.508 100.269 111.511C100.247 111.514 100.225 111.517 100.203 111.518C100.181 111.52 100.157 111.521 100.135 111.523C100.127 111.523 100.118 111.523 100.109 111.523H100.1C100.088 111.523 100.077 111.523 100.065 111.523C100.04 111.523 100.014 111.52 99.9887 111.517C99.9593 111.514 99.93 111.509 99.9007 111.505C99.8875 111.502 99.8758 111.498 99.864 111.496C99.8523 111.493 99.842 111.492 99.8303 111.487C99.8112 111.482 99.7892 111.479 99.7716 111.473C99.7189 111.455 99.6675 111.433 99.6221 111.407L99.6191 110.545C99.6807 110.58 99.7526 110.606 99.8274 110.625L99.8259 110.624Z" fill="#F92323"/>
<path fill-rule="evenodd" clip-rule="evenodd" d="M94.2323 106.85C93.964 107.005 93.9655 107.256 94.2294 107.408L99.6197 110.542C99.8836 110.696 100.318 110.696 100.586 110.542L106.837 106.933C107.104 106.779 107.104 106.527 106.84 106.375L101.45 103.242C101.186 103.088 100.75 103.088 100.483 103.242L94.2323 106.851V106.85Z" fill="#FE372F"/>
<path fill-rule="evenodd" clip-rule="evenodd" d="M100.514 92.3219L100.316 96.5348L100.528 107.774L101.641 107.132L101.627 91.6797L100.514 92.3219Z" fill="black"/>
<path fill-rule="evenodd" clip-rule="evenodd" d="M100.517 92.3229L99.4258 91.6895L99.439 107.142L100.53 107.775L100.517 92.3229Z" fill="#2D2D2D"/>
<path fill-rule="evenodd" clip-rule="evenodd" d="M95.4346 91.6187L104.605 96.9136C104.717 96.9782 104.825 97.0251 104.931 97.0632C104.951 97.0705 104.972 97.0779 104.992 97.0837C105.092 97.116 105.189 97.138 105.281 97.1468C105.29 97.1468 105.299 97.1483 105.306 97.1497C105.406 97.1571 105.501 97.1527 105.589 97.1351C105.593 97.1351 105.599 97.1321 105.604 97.1321C105.695 97.1116 105.781 97.0808 105.857 97.0354L104.907 97.5882C104.907 97.5882 104.901 97.5926 104.898 97.594C104.869 97.6102 104.84 97.6248 104.809 97.638C104.78 97.6512 104.747 97.6615 104.715 97.6717C104.695 97.6776 104.674 97.682 104.652 97.6864C104.648 97.6864 104.643 97.6893 104.637 97.6908C104.63 97.6908 104.623 97.6952 104.615 97.6952C104.58 97.7011 104.545 97.7055 104.508 97.7069C104.47 97.7099 104.432 97.7099 104.391 97.7069C104.378 97.7069 104.365 97.704 104.353 97.7025C104.344 97.7025 104.337 97.7011 104.327 97.6996C104.305 97.6981 104.283 97.6967 104.259 97.6923C104.209 97.6835 104.156 97.6732 104.104 97.6586C104.082 97.6527 104.06 97.6424 104.038 97.6351C104.017 97.6292 103.997 97.6219 103.975 97.6146C103.948 97.6043 103.923 97.5984 103.895 97.5867C103.815 97.553 103.733 97.5119 103.649 97.465L94.4785 92.17L95.4287 91.6172L95.4346 91.6187Z" fill="black"/>
<path fill-rule="evenodd" clip-rule="evenodd" d="M94.4858 92.1703L103.656 97.4653C104.629 98.0269 105.423 97.5738 105.428 96.4565L105.456 86.5645L106.093 86.9325L106.066 96.8245C106.061 98.348 104.979 98.9624 103.655 98.1985L94.4844 92.9035L94.4873 92.1718L94.4858 92.1703Z" fill="#2D2D2D"/>
<path fill-rule="evenodd" clip-rule="evenodd" d="M90.5293 92.5645C90.5293 92.6011 90.5366 92.6363 90.5469 92.673C90.5469 92.6774 90.5498 92.6803 90.5498 92.6847C90.5616 92.7184 90.5792 92.7507 90.5997 92.7829C90.6041 92.7888 90.607 92.7947 90.6114 92.8005C90.6349 92.8313 90.6627 92.8636 90.695 92.8929C90.7155 92.912 90.7434 92.9296 90.7683 92.9472C90.7903 92.9618 90.8094 92.9794 90.8343 92.9926L99.1265 97.8125L99.2937 98.3771L99.1309 99.1396L90.8387 94.3211C90.8387 94.3211 90.8299 94.3167 90.827 94.3138C90.8064 94.3021 90.7918 94.2874 90.7742 94.2742C90.7493 94.2566 90.7229 94.239 90.7023 94.22C90.7009 94.2185 90.6979 94.217 90.695 94.2141C90.6701 94.1921 90.6495 94.1686 90.6305 94.1437C90.6261 94.1378 90.6232 94.1334 90.6188 94.1276C90.6144 94.1217 90.6114 94.1158 90.607 94.11C90.6012 94.1012 90.5938 94.0909 90.588 94.0821C90.5777 94.0616 90.5674 94.0425 90.5601 94.022C90.5601 94.0191 90.5586 94.0161 90.5572 94.0132C90.5557 94.0088 90.5542 94.0059 90.5542 94.0015C90.5498 93.9883 90.5454 93.9765 90.5425 93.9633C90.5381 93.9428 90.5366 93.9223 90.5352 93.9018V93.893L90.5308 92.5659L90.5293 92.5645Z" fill="#F92323"/>
<path fill-rule="evenodd" clip-rule="evenodd" d="M99.4456 97.9355C99.4618 97.9399 99.4794 97.9443 99.4955 97.9472C99.6128 97.9721 99.7345 97.9883 99.8577 97.9883H99.8709C100.001 97.9883 100.13 97.9736 100.254 97.9457C100.258 97.9457 100.262 97.9428 100.268 97.9428C100.393 97.9135 100.509 97.8695 100.61 97.8123L110.226 92.2607C110.432 92.1419 110.534 91.985 110.534 91.8281L110.539 93.1566C110.539 93.3135 110.436 93.4704 110.231 93.5892L100.614 99.1408C100.567 99.1687 100.516 99.1921 100.463 99.2141C100.422 99.2303 100.38 99.2449 100.336 99.2567C100.315 99.2625 100.293 99.2669 100.273 99.2728C100.268 99.2728 100.264 99.2757 100.258 99.2757C100.248 99.2772 100.237 99.2816 100.226 99.2831C100.192 99.2904 100.157 99.2963 100.122 99.3006C100.088 99.305 100.054 99.3095 100.019 99.3124C99.9853 99.3153 99.9501 99.3168 99.9149 99.3182C99.9017 99.3182 99.8885 99.3182 99.8738 99.3182H99.8591C99.8416 99.3182 99.824 99.3182 99.8064 99.3182C99.7668 99.3168 99.7272 99.3138 99.6891 99.3094C99.6436 99.305 99.5981 99.2992 99.5542 99.2904C99.5336 99.286 99.516 99.2801 99.497 99.2757C99.4794 99.2728 99.4632 99.2684 99.4471 99.264C99.4163 99.2552 99.3841 99.2508 99.3562 99.242C99.2741 99.2156 99.1964 99.1819 99.1274 99.1408L99.123 97.8138C99.2169 97.868 99.3269 97.9076 99.4442 97.9369L99.4456 97.9355Z" fill="#F92323"/>
<path fill-rule="evenodd" clip-rule="evenodd" d="M90.8383 92.1295C90.4263 92.3686 90.4278 92.7542 90.8339 92.9903L99.1261 97.8102C99.5323 98.0463 100.2 98.0477 100.612 97.8102L110.228 92.2586C110.637 92.0225 110.638 91.6339 110.232 91.3978L101.94 86.5794C101.534 86.3433 100.864 86.3433 100.455 86.5794L90.8383 92.131V92.1295Z" fill="#FF4A4A"/>
<path fill-rule="evenodd" clip-rule="evenodd" d="M100.625 85.3205L100.64 92.0247C100.64 92.0819 100.646 92.1346 100.655 92.1845C100.655 92.1845 100.655 92.1874 100.655 92.1889C100.665 92.2388 100.678 92.2813 100.697 92.3209C100.697 92.3209 100.697 92.3209 100.697 92.3223C100.709 92.3487 100.725 92.3678 100.741 92.3898C100.773 92.4352 100.811 92.4763 100.857 92.5027L99.7087 91.8355C99.6633 91.8091 99.6266 91.7695 99.5929 91.7226C99.5885 91.7167 99.5826 91.7138 99.5782 91.7079C99.568 91.6918 99.5592 91.6742 99.5504 91.6566C99.5504 91.6566 99.5504 91.6551 99.5504 91.6537C99.5504 91.6537 99.5504 91.6537 99.5504 91.6522C99.5445 91.6405 99.5386 91.6273 99.5342 91.6141C99.5298 91.6009 99.5254 91.5892 99.521 91.5745C99.5166 91.5613 99.5137 91.5496 99.5108 91.5364C99.5108 91.532 99.5093 91.5261 99.5078 91.5202C99.5078 91.5188 99.5078 91.5173 99.5078 91.5158C99.5078 91.51 99.5049 91.5056 99.5049 91.4997C99.5034 91.488 99.5005 91.4763 99.5005 91.4645C99.499 91.4528 99.4976 91.4411 99.4961 91.4293C99.4961 91.4176 99.4946 91.4059 99.4932 91.3941C99.4932 91.3824 99.4932 91.3707 99.4932 91.3575L99.4785 84.6504L100.627 85.3176L100.625 85.3205Z" fill="#F92323"/>
<path fill-rule="evenodd" clip-rule="evenodd" d="M101.08 84.2694C101.08 84.2694 101.079 84.2709 101.077 84.2724C101.033 84.3193 100.992 84.3691 100.953 84.4234V84.4249C100.915 84.4777 100.878 84.5319 100.846 84.5876C100.844 84.5906 100.841 84.5935 100.841 84.5964C100.809 84.6536 100.78 84.7108 100.753 84.7695V84.7709C100.727 84.831 100.705 84.8926 100.686 84.9542V84.9572C100.667 85.0187 100.654 85.0803 100.643 85.1404C100.633 85.202 100.629 85.2636 100.629 85.3223L99.4805 84.6551C99.4805 84.6434 99.4805 84.6331 99.4805 84.6214C99.4805 84.6096 99.4805 84.5979 99.4819 84.5862C99.4819 84.5744 99.4834 84.5612 99.4849 84.5495C99.4849 84.5378 99.4878 84.526 99.4893 84.5129C99.4907 84.5011 99.4922 84.4879 99.4951 84.4762V84.4733C99.4966 84.4615 99.4995 84.4498 99.501 84.4381C99.5039 84.4249 99.5054 84.4131 99.5083 84.3999C99.5113 84.3867 99.5142 84.3735 99.5171 84.3603C99.5201 84.3471 99.5245 84.334 99.5274 84.3208C99.5303 84.3105 99.5332 84.3002 99.5362 84.29C99.5362 84.29 99.5362 84.29 99.5362 84.287C99.5362 84.2856 99.5362 84.2826 99.5376 84.2812C99.542 84.2694 99.5465 84.2562 99.5494 84.243C99.5538 84.2298 99.5582 84.2181 99.5626 84.2049C99.567 84.1932 99.5714 84.18 99.5772 84.1683C99.5816 84.1551 99.586 84.1433 99.5919 84.1316C99.5963 84.1228 99.5992 84.114 99.6036 84.1037C99.6036 84.1037 99.6036 84.1037 99.6036 84.1023C99.6036 84.1008 99.6051 84.0979 99.6066 84.0949C99.6124 84.0832 99.6183 84.07 99.6242 84.0583C99.63 84.0451 99.6359 84.0319 99.6432 84.0187C99.6506 84.0026 99.6579 83.9894 99.6667 83.9732C99.6755 83.9586 99.6843 83.9424 99.6916 83.9278C99.6931 83.9248 99.696 83.9219 99.6975 83.919C99.699 83.9146 99.7019 83.9116 99.7033 83.9087C99.7209 83.8794 99.74 83.8486 99.7591 83.8207C99.7737 83.7987 99.7884 83.7782 99.8045 83.7562V83.7547C99.8148 83.7401 99.8265 83.7254 99.8383 83.7108C99.8471 83.699 99.8573 83.6858 99.8676 83.6756C99.8764 83.6638 99.8866 83.6521 99.8969 83.6418C99.9057 83.6316 99.916 83.6198 99.9262 83.6096C99.9277 83.6096 99.9292 83.6066 99.9306 83.6052C99.9306 83.6052 99.9321 83.6037 99.9336 83.6022C99.9409 83.5934 99.9497 83.5847 99.957 83.5773C99.9673 83.5671 99.9776 83.5568 99.9878 83.5465C99.9981 83.5348 100.01 83.526 100.02 83.5157C100.032 83.5055 100.042 83.4967 100.054 83.4864C100.058 83.482 100.064 83.4776 100.07 83.4732C100.07 83.4732 100.073 83.4717 100.074 83.4703C100.079 83.4659 100.083 83.4629 100.088 83.46C100.098 83.4512 100.11 83.4439 100.12 83.4351C100.13 83.4263 100.14 83.419 100.152 83.4116C100.162 83.4043 100.173 83.397 100.183 83.3911C100.193 83.3852 100.203 83.3779 100.214 83.372C100.217 83.3706 100.218 83.3691 100.221 83.3676L109.833 77.8175C109.84 77.8131 109.849 77.8087 109.856 77.8043C109.867 77.7984 109.877 77.794 109.887 77.7882C109.897 77.7838 109.908 77.7779 109.916 77.7735C109.927 77.7691 109.937 77.7647 109.946 77.7603C109.956 77.7559 109.966 77.753 109.975 77.75C109.978 77.75 109.98 77.7486 109.982 77.7471C109.982 77.7471 109.982 77.7471 109.984 77.7471C109.991 77.7442 109.999 77.7427 110.006 77.7398C110.016 77.7368 110.026 77.7339 110.037 77.731C110.047 77.728 110.057 77.7266 110.068 77.7251C110.079 77.7222 110.09 77.7207 110.1 77.7192C110.107 77.7192 110.114 77.7192 110.122 77.7163H110.125C110.125 77.7163 110.129 77.7163 110.132 77.7163C110.144 77.7163 110.155 77.7148 110.167 77.7148C110.18 77.7148 110.194 77.7148 110.205 77.7163C110.22 77.7163 110.235 77.7192 110.248 77.7222C110.264 77.7251 110.282 77.7295 110.298 77.7354C110.318 77.7427 110.339 77.753 110.358 77.7632L111.506 78.4304C111.472 78.4114 111.436 78.3967 111.396 78.3894C111.396 78.3894 111.396 78.3894 111.395 78.3894C111.355 78.3806 111.314 78.3791 111.27 78.3835H111.267C111.223 78.3879 111.178 78.3982 111.129 78.4128C111.129 78.4128 111.128 78.4128 111.126 78.4128C111.078 78.429 111.028 78.4524 110.977 78.4818L101.365 84.0319C101.313 84.0612 101.264 84.0964 101.217 84.1345C101.217 84.1345 101.214 84.136 101.212 84.1375C101.165 84.1756 101.12 84.2196 101.076 84.265L101.08 84.2694Z" fill="#F92323"/>
<path fill-rule="evenodd" clip-rule="evenodd" d="M101.37 84.0346L110.982 78.4845C111.394 78.2469 111.729 78.4405 111.73 78.9112L111.745 85.6153C111.745 86.086 111.415 86.6638 111.001 86.9028L101.389 92.4529C100.977 92.6905 100.643 92.4969 100.642 92.0262L100.627 85.3221C100.627 84.8514 100.957 84.2736 101.37 84.0346Z" fill="#FE372F"/>
<path fill-rule="evenodd" clip-rule="evenodd" d="M106.088 96.8237L106.115 86.9317L107.066 86.3789L107.038 96.2709C107.038 96.7431 106.931 97.1287 106.747 97.4117C106.636 97.5818 106.498 97.7153 106.337 97.8091L105.387 98.3619C105.818 98.1112 106.086 97.5789 106.088 96.8223V96.8237Z" fill="black"/>
<path fill-rule="evenodd" clip-rule="evenodd" d="M106.117 86.9331L107.067 86.3803L106.431 86.0137L105.48 86.565L106.117 86.9331Z" fill="#232323"/>
<path fill-rule="evenodd" clip-rule="evenodd" d="M103.685 97.4673C104.657 98.0289 105.452 97.5758 105.454 96.4584L105.482 86.5664L106.119 86.9345L106.091 96.8265C106.086 98.35 105.004 98.9644 103.682 98.2004L103.685 97.4687V97.4673Z" fill="#2D2D2D"/>
<path fill-rule="evenodd" clip-rule="evenodd" d="M63.5541 111.652C63.5541 111.675 63.5497 111.699 63.5424 111.722C63.5424 111.725 63.5424 111.727 63.5394 111.73C63.5321 111.752 63.5204 111.772 63.5072 111.793C63.5042 111.797 63.5028 111.8 63.4998 111.804C63.4852 111.825 63.4676 111.845 63.4456 111.863C63.4324 111.875 63.4148 111.886 63.3986 111.898C63.384 111.908 63.3723 111.919 63.3561 111.928L57.9658 115.061L57.9629 115.923L63.3532 112.791C63.3532 112.791 63.3591 112.788 63.362 112.787C63.3752 112.778 63.384 112.769 63.3972 112.762C63.4133 112.75 63.4309 112.74 63.4441 112.727C63.4441 112.727 63.447 112.725 63.4485 112.724C63.4646 112.709 63.4793 112.694 63.491 112.678C63.494 112.674 63.4954 112.671 63.4984 112.667C63.5013 112.664 63.5028 112.659 63.5057 112.655C63.5101 112.649 63.5145 112.643 63.5174 112.636C63.5248 112.623 63.5306 112.609 63.535 112.596C63.535 112.595 63.535 112.592 63.5365 112.59C63.5365 112.587 63.5365 112.586 63.5394 112.583C63.5424 112.574 63.5453 112.567 63.5468 112.558C63.5497 112.545 63.5511 112.532 63.5511 112.518V112.513L63.5541 111.65V111.652Z" fill="#F92323"/>
<path fill-rule="evenodd" clip-rule="evenodd" d="M57.7564 115.141C57.7462 115.144 57.7344 115.147 57.7242 115.15C57.6479 115.166 57.5687 115.176 57.4881 115.176H57.4793C57.3957 115.176 57.3107 115.166 57.2315 115.149C57.2285 115.149 57.2256 115.149 57.2227 115.147C57.142 115.128 57.0658 115.1 56.9998 115.062L50.7487 111.453C50.6153 111.376 50.5479 111.275 50.5479 111.172L50.5449 112.036C50.5449 112.138 50.6109 112.239 50.7443 112.317L56.9954 115.926C57.0262 115.943 57.0585 115.96 57.0936 115.973C57.12 115.983 57.1479 115.992 57.1758 116.001C57.189 116.005 57.2036 116.008 57.2168 116.011C57.2197 116.011 57.2227 116.011 57.2256 116.012C57.2329 116.012 57.2388 116.015 57.2461 116.017C57.2681 116.021 57.2916 116.026 57.3136 116.028C57.3356 116.031 57.3576 116.034 57.3796 116.036C57.4016 116.037 57.425 116.039 57.447 116.04C57.4558 116.04 57.4646 116.04 57.4734 116.04H57.4822C57.494 116.04 57.5057 116.04 57.5174 116.04C57.5423 116.04 57.5687 116.037 57.5937 116.034C57.623 116.031 57.6523 116.027 57.6817 116.023C57.6948 116.02 57.7066 116.015 57.7183 116.014C57.73 116.011 57.7403 116.009 57.752 116.005C57.7711 115.999 57.7931 115.996 57.8107 115.99C57.8635 115.973 57.9148 115.951 57.9603 115.924L57.9632 115.062C57.9016 115.097 57.8298 115.124 57.755 115.143L57.7564 115.141Z" fill="#F92323"/>
<path fill-rule="evenodd" clip-rule="evenodd" d="M63.3541 111.371C63.6224 111.527 63.621 111.777 63.357 111.93L57.9667 115.063C57.7028 115.217 57.2687 115.217 57.0004 115.063L50.7494 111.455C50.4825 111.301 50.4825 111.049 50.7464 110.896L56.1367 107.764C56.4007 107.61 56.8362 107.61 57.103 107.764L63.3541 111.373V111.371Z" fill="#FE372F"/>
<path fill-rule="evenodd" clip-rule="evenodd" d="M57.069 96.8429L57.267 101.054L57.0558 112.295L55.9414 111.652L55.9546 96.1992L57.069 96.8429Z" fill="black"/>
<path fill-rule="evenodd" clip-rule="evenodd" d="M57.0679 96.8424L58.1588 96.209L58.1457 111.66L57.0547 112.295L57.0679 96.8424Z" fill="#2D2D2D"/>
<path fill-rule="evenodd" clip-rule="evenodd" d="M62.1474 96.1382L52.9769 101.433C52.8654 101.498 52.7569 101.545 52.6513 101.583C52.6308 101.59 52.6103 101.597 52.5898 101.603C52.49 101.636 52.3933 101.658 52.3009 101.666C52.2921 101.666 52.2833 101.668 52.276 101.669C52.1762 101.677 52.0809 101.672 51.9929 101.655C51.9886 101.655 51.9827 101.652 51.9783 101.652C51.8874 101.631 51.8009 101.6 51.7246 101.555L52.6748 102.108C52.6748 102.108 52.6807 102.112 52.6836 102.114C52.7129 102.13 52.7423 102.144 52.773 102.158C52.8024 102.171 52.8346 102.181 52.8669 102.191C52.8874 102.197 52.908 102.202 52.9299 102.206C52.9343 102.206 52.9387 102.209 52.9446 102.21C52.9519 102.21 52.9593 102.215 52.9666 102.215C53.0018 102.221 53.037 102.225 53.0736 102.226C53.1118 102.229 53.1499 102.229 53.191 102.226C53.2042 102.226 53.2174 102.224 53.2291 102.222C53.2379 102.222 53.2452 102.221 53.2555 102.219C53.2775 102.218 53.2995 102.216 53.3229 102.212C53.3728 102.203 53.4256 102.193 53.4784 102.178C53.5004 102.172 53.5224 102.162 53.5444 102.155C53.5649 102.149 53.5854 102.141 53.6074 102.134C53.6338 102.124 53.6587 102.118 53.6866 102.106C53.7672 102.073 53.8494 102.031 53.9329 101.985L63.1035 96.6895L62.1533 96.1367L62.1474 96.1382Z" fill="black"/>
<path fill-rule="evenodd" clip-rule="evenodd" d="M63.0979 96.6918L53.9273 101.987C52.9551 102.548 52.1604 102.095 52.156 100.978L52.1281 91.0859L51.4902 91.454L51.5181 101.346C51.5225 102.87 52.6047 103.484 53.9288 102.72L63.0993 97.425L63.0964 96.6933L63.0979 96.6918Z" fill="#2D2D2D"/>
<path fill-rule="evenodd" clip-rule="evenodd" d="M67.0534 97.084C67.0534 97.1206 67.0461 97.1558 67.0358 97.1925C67.0358 97.1969 67.0329 97.1998 67.0329 97.2042C67.0212 97.238 67.0036 97.2702 66.9831 97.3025C66.9787 97.3083 66.9757 97.3142 66.9713 97.3201C66.9479 97.3509 66.92 97.3831 66.8877 97.4124C66.8672 97.4315 66.8393 97.4491 66.8144 97.4667C66.7924 97.4814 66.7734 97.499 66.7484 97.5122L58.4562 102.332L58.2891 102.897L58.4518 103.659L66.744 98.8407C66.744 98.8407 66.7528 98.8363 66.7558 98.8333C66.7763 98.8216 66.791 98.8069 66.8086 98.7937C66.8335 98.7761 66.8599 98.7586 66.8804 98.7395C66.8819 98.738 66.8848 98.7366 66.8877 98.7336C66.9127 98.7116 66.9332 98.6882 66.9523 98.6632C66.9567 98.6574 66.9596 98.653 66.964 98.6471C66.9684 98.6412 66.9713 98.6354 66.9757 98.6295C66.9816 98.6207 66.9889 98.6105 66.9948 98.6017C67.005 98.5811 67.0153 98.5621 67.0226 98.5415C67.0226 98.5386 67.0241 98.5357 67.0256 98.5327C67.027 98.5283 67.0285 98.5254 67.0285 98.521C67.0329 98.5078 67.0373 98.4961 67.0402 98.4829C67.0446 98.4624 67.0461 98.4418 67.0476 98.4213V98.4125L67.052 97.0855L67.0534 97.084Z" fill="#F92323"/>
<path fill-rule="evenodd" clip-rule="evenodd" d="M58.1379 102.455C58.1217 102.459 58.1041 102.464 58.088 102.467C57.9707 102.492 57.849 102.508 57.7258 102.508H57.7126C57.5821 102.508 57.4531 102.493 57.3299 102.465C57.3255 102.465 57.3211 102.462 57.3152 102.462C57.1906 102.433 57.0748 102.389 56.9736 102.332L47.3573 96.7802C47.152 96.6615 47.0493 96.5046 47.0493 96.3477L47.0449 97.6762C47.0449 97.8331 47.1476 97.99 47.3529 98.1087L56.9692 103.66C57.0161 103.688 57.0674 103.712 57.1202 103.734C57.1613 103.75 57.2038 103.764 57.2478 103.776C57.2683 103.782 57.2903 103.786 57.3108 103.792C57.3152 103.792 57.3196 103.795 57.3255 103.795C57.3358 103.797 57.346 103.801 57.3578 103.803C57.3915 103.81 57.4267 103.816 57.4619 103.82C57.4956 103.825 57.5293 103.829 57.5645 103.832C57.5982 103.835 57.6334 103.836 57.6686 103.838C57.6818 103.838 57.695 103.838 57.7097 103.838H57.7244C57.742 103.838 57.7595 103.838 57.7771 103.838C57.8167 103.836 57.8563 103.833 57.8945 103.829C57.9399 103.825 57.9854 103.819 58.0294 103.81C58.0499 103.806 58.0675 103.8 58.0865 103.795C58.1041 103.792 58.1203 103.788 58.1364 103.784C58.1672 103.775 58.1995 103.77 58.2273 103.762C58.3094 103.735 58.3871 103.701 58.4561 103.66L58.4605 102.333C58.3666 102.388 58.2566 102.427 58.1393 102.456L58.1379 102.455Z" fill="#F92323"/>
<path fill-rule="evenodd" clip-rule="evenodd" d="M66.7463 96.651C67.1584 96.89 67.1569 97.2757 66.7507 97.5118L58.4585 102.332C58.0523 102.568 57.3851 102.569 56.9731 102.332L47.3568 96.7801C46.9477 96.544 46.9462 96.1554 47.3524 95.9193L55.6446 91.1009C56.0508 90.8648 56.7209 90.8648 57.13 91.1009L66.7463 96.6525V96.651Z" fill="#FF4A4A"/>
<path fill-rule="evenodd" clip-rule="evenodd" d="M56.9602 89.844L56.9455 96.5481C56.9455 96.6053 56.9397 96.6581 56.9309 96.7079C56.9309 96.7079 56.9309 96.7109 56.9309 96.7123C56.9206 96.7622 56.9074 96.8047 56.8883 96.8443C56.8883 96.8443 56.8883 96.8443 56.8883 96.8458C56.8766 96.8722 56.8605 96.8912 56.8444 96.9132C56.8121 96.9587 56.774 96.9997 56.7285 97.0261L57.8767 96.3589C57.9221 96.3326 57.9588 96.293 57.9925 96.246C57.9969 96.2402 58.0028 96.2372 58.0072 96.2314C58.0174 96.2152 58.0262 96.1977 58.035 96.1801C58.035 96.1801 58.035 96.1786 58.035 96.1771C58.035 96.1771 58.035 96.1771 58.035 96.1757C58.0409 96.1639 58.0468 96.1507 58.0512 96.1375C58.0556 96.1243 58.06 96.1126 58.0644 96.0979C58.0688 96.0847 58.0717 96.073 58.0746 96.0598C58.0746 96.0554 58.0761 96.0495 58.0776 96.0437C58.0776 96.0422 58.0776 96.0407 58.0776 96.0393C58.0776 96.0334 58.0805 96.029 58.0805 96.0232C58.082 96.0114 58.0849 95.9997 58.0849 95.988C58.0864 95.9762 58.0878 95.9645 58.0893 95.9528C58.0893 95.941 58.0908 95.9293 58.0922 95.9176C58.0922 95.9058 58.0922 95.8941 58.0922 95.8809L58.1069 89.1738L56.9587 89.841L56.9602 89.844Z" fill="#F92323"/>
<path fill-rule="evenodd" clip-rule="evenodd" d="M56.5039 88.789C56.5039 88.789 56.5053 88.7904 56.5068 88.7919C56.5508 88.8388 56.5919 88.8887 56.6314 88.9429V88.9444C56.6696 88.9972 56.7062 89.0514 56.7385 89.1072C56.74 89.1101 56.7429 89.113 56.7429 89.116C56.7752 89.1731 56.8045 89.2303 56.8309 89.289V89.2905C56.8573 89.3506 56.8793 89.4122 56.8983 89.4737V89.4767C56.9174 89.5383 56.9306 89.5999 56.9409 89.66C56.9511 89.7216 56.9555 89.7831 56.9555 89.8418L58.1037 89.1746C58.1037 89.1629 58.1037 89.1526 58.1037 89.1409C58.1037 89.1292 58.1037 89.1174 58.1022 89.1057C58.1022 89.094 58.1007 89.0808 58.0993 89.069C58.0993 89.0573 58.0963 89.0456 58.0949 89.0324C58.0934 89.0206 58.0919 89.0074 58.089 88.9957V88.9928C58.0875 88.9811 58.0846 88.9693 58.0831 88.9576C58.0802 88.9444 58.0787 88.9327 58.0758 88.9195C58.0729 88.9063 58.0699 88.8931 58.067 88.8799C58.0641 88.8667 58.0597 88.8535 58.0567 88.8403C58.0538 88.83 58.0509 88.8198 58.0479 88.8095C58.0479 88.8095 58.0479 88.8095 58.0479 88.8066C58.0479 88.8051 58.0479 88.8022 58.0465 88.8007C58.0421 88.789 58.0377 88.7758 58.0347 88.7626C58.0303 88.7494 58.0259 88.7376 58.0216 88.7244C58.0172 88.7127 58.0128 88.6995 58.0069 88.6878C58.0025 88.6746 57.9981 88.6629 57.9922 88.6511C57.9878 88.6423 57.9849 88.6335 57.9805 88.6233C57.9805 88.6233 57.9805 88.6233 57.9805 88.6218C57.9805 88.6203 57.979 88.6174 57.9776 88.6145C57.9717 88.6027 57.9658 88.5895 57.96 88.5778C57.9541 88.5646 57.9482 88.5514 57.9409 88.5382C57.9336 88.5221 57.9262 88.5089 57.9174 88.4928C57.9086 88.4781 57.8998 88.462 57.8925 88.4473C57.891 88.4444 57.8881 88.4414 57.8866 88.4385C57.8852 88.4341 57.8822 88.4312 57.8808 88.4282C57.8632 88.3989 57.8441 88.3681 57.8251 88.3403C57.8104 88.3183 57.7957 88.2977 57.7796 88.2757V88.2743C57.7693 88.2596 57.7576 88.2449 57.7459 88.2303C57.7371 88.2186 57.7268 88.2054 57.7165 88.1951C57.7077 88.1834 57.6975 88.1716 57.6872 88.1614C57.6784 88.1511 57.6682 88.1394 57.6579 88.1291C57.6564 88.1291 57.655 88.1262 57.6535 88.1247C57.6535 88.1247 57.652 88.1232 57.6506 88.1218C57.6432 88.113 57.6344 88.1042 57.6271 88.0968C57.6168 88.0866 57.6066 88.0763 57.5963 88.0661C57.586 88.0543 57.5743 88.0455 57.5641 88.0353C57.5523 88.025 57.5421 88.0162 57.5303 88.0059C57.5259 88.0015 57.5201 87.9971 57.5142 87.9927C57.5142 87.9927 57.5113 87.9913 57.5098 87.9898C57.5054 87.9854 57.501 87.9825 57.4966 87.9795C57.4863 87.9707 57.4746 87.9634 57.4643 87.9546C57.4541 87.9458 57.4438 87.9385 57.4321 87.9311C57.4218 87.9238 57.4115 87.9165 57.4013 87.9106C57.391 87.9048 57.3808 87.8974 57.3705 87.8916C57.3676 87.8901 57.3661 87.8886 57.3632 87.8872L47.7512 82.337C47.7439 82.3326 47.7351 82.3282 47.7278 82.3238C47.7175 82.318 47.7072 82.3136 47.697 82.3077C47.6867 82.3033 47.6764 82.2974 47.6676 82.293C47.6574 82.2886 47.6471 82.2842 47.6383 82.2798C47.6281 82.2754 47.6178 82.2725 47.609 82.2696C47.6061 82.2696 47.6046 82.2681 47.6017 82.2666C47.6017 82.2666 47.6017 82.2666 47.6002 82.2666C47.5929 82.2637 47.5855 82.2622 47.5782 82.2593C47.5679 82.2564 47.5577 82.2534 47.5474 82.2505C47.5371 82.2476 47.5269 82.2461 47.5166 82.2446C47.5049 82.2417 47.4946 82.2402 47.4844 82.2388C47.477 82.2388 47.4697 82.2388 47.4624 82.2358H47.4594C47.4594 82.2358 47.455 82.2358 47.4521 82.2358C47.4404 82.2358 47.4286 82.2344 47.4169 82.2344C47.4037 82.2344 47.3905 82.2344 47.3788 82.2358C47.3641 82.2358 47.3495 82.2388 47.3363 82.2417C47.3201 82.2446 47.3025 82.249 47.2864 82.2549C47.2659 82.2622 47.2453 82.2725 47.2263 82.2828L46.0781 82.95C46.1119 82.9309 46.1485 82.9162 46.1881 82.9089C46.1881 82.9089 46.1881 82.9089 46.1896 82.9089C46.2292 82.9001 46.2702 82.8986 46.3142 82.903H46.3171C46.3611 82.9074 46.4066 82.9177 46.455 82.9324C46.455 82.9324 46.4564 82.9324 46.4579 82.9324C46.5063 82.9485 46.5562 82.9719 46.6075 83.0013L56.2194 88.5514C56.2707 88.5807 56.3206 88.6159 56.3675 88.6541C56.3675 88.6541 56.3704 88.6555 56.3719 88.657C56.4188 88.6951 56.4643 88.7391 56.5083 88.7846L56.5039 88.789Z" fill="#F92323"/>
<path fill-rule="evenodd" clip-rule="evenodd" d="M56.2162 88.5541L46.6043 83.004C46.1923 82.7665 45.8579 82.96 45.8565 83.4307L45.8418 90.1349C45.8418 90.6056 46.1717 91.1833 46.5852 91.4223L56.1972 96.9725C56.6092 97.21 56.9435 97.0164 56.945 96.5457L56.9597 89.8416C56.9597 89.3709 56.6297 88.7931 56.2162 88.5541Z" fill="#FE372F"/>
<path fill-rule="evenodd" clip-rule="evenodd" d="M51.4956 101.345L51.4678 91.4532L50.5176 90.9004L50.5454 100.792C50.5454 101.265 50.6525 101.65 50.8358 101.933C50.9472 102.103 51.0851 102.237 51.2464 102.331L52.1965 102.883C51.7654 102.633 51.4971 102.1 51.4956 101.344V101.345Z" fill="black"/>
<path fill-rule="evenodd" clip-rule="evenodd" d="M51.4673 91.4541L50.5156 90.9013L51.1535 90.5332L52.1037 91.086L51.4673 91.4541Z" fill="#232323"/>
<path fill-rule="evenodd" clip-rule="evenodd" d="M53.9009 101.987C52.9287 102.548 52.134 102.095 52.1311 100.978L52.1032 91.0859L51.4668 91.454L51.4947 101.346C51.4991 102.87 52.5812 103.484 53.9039 102.72L53.9009 101.988V101.987Z" fill="#2D2D2D"/>
<path fill-rule="evenodd" clip-rule="evenodd" d="M137.842 77.5128L117.508 66.37L117.952 38.9199L138.34 50.3149L137.842 77.5128Z" fill="#E6F0FC" stroke="#DDDDDD" stroke-width="0.146635" stroke-miterlimit="10"/>
<path fill-rule="evenodd" clip-rule="evenodd" d="M103.946 59.6827L83.6133 48.5399L84.0576 21.0898L104.446 32.4849L103.946 59.6827Z" fill="#E6F0FC" stroke="#DDDDDD" stroke-width="0.146635" stroke-miterlimit="10"/>
</g>
<defs>
<clipPath id="clip0_935_1311">
<rect width="150.169" height="144" fill="white" transform="translate(0.416016)"/>
</clipPath>
</defs>
</svg>
